<svg width="492" height="444" viewBox="0 0 492 444" fill="none" xmlns="http://www.w3.org/2000/svg">
<g clip-path="url(#clip0)">
<path d="M110.291 178.152C107.908 170.581 104.479 163.456 100.962 156.378C93.7258 141.838 85.1271 128.148 75.1402 115.33C73.8296 113.645 73.1407 113.116 71.5349 115.18C49.5202 143.42 33.4469 174.496 26.2002 209.793C19.9998 239.983 23.2114 269.452 33.3433 298.325C36.586 307.565 40.2171 316.661 45.0033 325.237C46.174 325.17 46.5055 324.128 46.9769 323.381C61.2631 300.7 75.5494 278.019 89.7372 255.275C91.6745 252.164 94.0107 249.26 95.2953 245.76C92.5292 243.483 91.5036 240.481 91.0374 236.981C90.2397 230.986 91.2497 225.168 92.1925 219.34C93.6584 210.255 96.1396 201.409 98.8073 192.609C99.5117 190.286 100.936 188.948 103.252 189.135C105.971 189.352 108.649 190.011 111.348 190.478C111.721 186.76 110.084 183.083 111.125 179.339C111.275 178.8 110.618 178.52 110.291 178.152Z" fill="#D93636"/>
<path d="M95.2848 245.765C94.0002 249.265 91.6692 252.174 89.7268 255.28C75.5441 278.024 61.2527 300.705 46.9664 323.386C46.4951 324.133 46.1636 325.175 44.9929 325.242C45.3296 326.414 44.5163 327.187 43.988 328.043C39.181 335.785 34.3533 343.511 29.5567 351.258C26.9926 355.396 27.0185 355.411 30.2197 358.782C33.2966 360.483 36.3735 362.189 39.4504 363.89C44.449 365.959 49.4839 367.934 54.4204 370.149C56.6736 371.16 58.3105 370.672 59.994 369.106C62.5943 366.69 64.4539 363.672 66.7693 361.022C67.049 360.488 67.2821 359.923 67.6188 359.425C76.4558 346.27 83.8838 332.305 91.1668 318.268C96.124 308.722 101.18 299.222 105.665 289.432C106.002 288.701 106.147 287.772 107.193 287.275C106.049 296.219 105.018 305.04 103.723 313.824C103.443 315.727 104.293 317.786 102.982 319.538C101.874 330.755 100.713 341.971 99.6722 353.192C98.9574 360.913 98.5482 368.645 98.7916 376.413C98.8901 379.519 100.377 381.401 103.029 382.547C105.479 383.605 108.11 383.963 110.737 384.305C113.715 384.149 116.693 383.999 119.672 383.843C121.816 383.657 123.966 383.278 126.105 383.32C129.452 383.382 131.358 381.691 132.601 378.813C134.3 374.867 134.808 370.688 135.098 366.477C135.958 354.053 134.979 341.66 134.393 329.261C134.108 323.236 133.917 317.2 133.601 311.174C133.362 306.585 134.927 302.364 136.066 298.045C138.035 290.593 137.475 282.768 139.278 275.301C141.018 268.073 140.443 261.161 137.289 254.409C136.517 252.75 136.968 250.841 137.045 249.037C136.413 247.891 135.3 248.14 134.3 248.104C129.239 247.938 124.173 247.782 119.107 247.621C117.253 251.64 117.092 251.723 112.746 250.867C111.653 250.655 110.56 250.468 109.467 250.271C104.541 249.415 100.009 247.284 95.2848 245.765Z" fill="#1F396B"/>
<path d="M102.987 319.538C104.298 317.786 103.448 315.727 103.728 313.824C105.023 305.04 106.054 296.214 107.199 287.274C106.152 287.772 106.007 288.695 105.671 289.432C101.185 299.222 96.1292 308.722 91.172 318.268C83.889 332.305 76.461 346.275 67.624 359.425C67.2925 359.923 67.0542 360.488 66.7745 361.022C69.38 363.594 70.1 366.643 70.0275 370.32C69.8048 382.137 69.9239 393.96 69.9705 405.783C69.9757 407.276 69.7685 407.971 67.997 408.251C62.988 409.039 40.9888 409.952 36.2958 412C34.5864 412.747 32.3383 413.416 32.3642 415.615C32.3901 417.787 34.6175 418.498 36.3476 419.193C41.7036 421.345 50.5406 424.103 55.2233 432.675C59.5589 440.609 68.2404 445.182 77.1551 443.741C92.1354 441.319 109.934 436.517 123.458 435.542C130.348 435.045 137.268 435.496 144.033 436.865C211.465 450.487 172.554 426.463 181.241 421.059C183.587 420.499 185.882 419.763 188.042 418.674C189.342 418.021 190.891 417.331 190.927 415.656C190.968 413.826 189.311 413.105 187.943 412.441C184.514 410.782 180.847 409.729 177.107 409.2C174.766 408.868 174.248 407.919 174.305 405.721C174.46 400.115 174.419 394.505 174.32 388.899C174.289 386.986 174.833 385.492 175.973 383.947C186.493 369.708 194.102 354.146 197.35 336.599C200.23 321.068 198.22 306.046 192.844 291.381C188.549 279.662 182.499 268.882 174.937 258.936C173.693 257.303 173.139 257.23 171.86 258.905C160.521 273.772 152.274 290.054 148.84 308.576C145.867 324.641 148.151 340.135 153.937 355.24C158.029 365.922 163.53 375.832 170.404 384.963C171.311 386.166 171.777 387.644 171.761 389.153C171.694 394.878 171.709 400.603 171.756 406.327C171.766 407.598 171.596 408.189 170.062 407.951C155.035 405.627 139.894 404.912 124.712 404.803C123.857 404.798 122.997 404.673 122.143 404.606C123.329 407.344 124.598 410.045 125.126 413.022C125.644 415.952 123.894 419.198 121.49 419.452C116.108 420.017 112.544 416.901 109.058 413.416C106.598 410.958 105.443 408.345 106.634 404.948C96.9787 405.207 87.3388 405.716 77.756 406.976C75.684 407.245 74.9795 406.919 75.0054 404.59C75.1349 391.907 75.0883 379.218 75.0417 366.529C75.0365 364.989 75.4043 363.77 76.3522 362.516C79.2737 358.673 82.0967 354.758 84.8473 350.796C91.7469 340.861 97.4759 330.262 102.987 319.538Z" fill="#D93636"/>
<path d="M91.0321 236.991C90.2344 230.997 91.2445 225.179 92.1872 219.35C93.6531 210.265 96.1343 201.419 98.802 192.619C99.5065 190.296 100.931 188.958 103.246 189.145C105.966 189.363 108.644 190.021 111.343 190.488C112.472 190.669 113.601 190.851 114.73 191.032C117.569 197.468 120.413 203.903 123.469 210.82C126.473 206.827 129.265 203.115 132.057 199.407C136.931 200.465 141.997 200.999 146.623 202.72C152.269 204.815 157.662 203.218 163.137 202.835C165.737 202.653 166.312 201.16 165.26 198.764C164.763 197.633 164.944 197.162 166.151 196.7C168.56 195.777 168.715 195.062 167.25 192.93C166.716 192.152 166.162 191.344 165.452 190.737C164.224 189.689 164.851 189.031 165.753 188.331C168.141 186.34 170.528 184.348 172.911 182.362C178.278 185.94 182.39 190.602 184.856 196.581C187.109 202.057 186.358 207.232 182.758 211.935C179.92 215.643 176.812 219.112 173.341 222.233C167.441 227.538 161.049 231.946 153.031 233.475C150.788 233.901 147.944 232.376 146.457 234.201C145.105 235.861 145.002 238.536 144.349 240.761C137.589 240.605 130.793 240.927 124.132 239.309C122.899 239.008 122.236 239.506 121.816 240.678C120.972 243.017 120.024 245.319 119.118 247.637C117.268 251.656 117.103 251.739 112.757 250.888C111.664 250.676 110.571 250.489 109.478 250.292C104.547 249.421 100.019 247.289 95.29 245.77C92.5239 243.489 91.4931 240.491 91.0321 236.991ZM113.166 232.656C109.089 231.521 108.354 228.891 108.172 225.319C107.955 220.994 107.401 216.685 106.655 212.376C106.655 219.075 106.655 225.775 106.655 232.48C106.655 233.19 106.691 233.838 107.603 234.051C112.995 235.296 118.382 236.571 123.769 237.831C123.837 237.634 123.904 237.432 123.971 237.235C120.376 235.674 116.901 233.698 113.166 232.656ZM125.111 238.013C125.189 238.033 125.261 238.07 125.339 238.065C125.359 238.065 125.38 237.956 125.401 237.899C125.323 237.878 125.251 237.857 125.173 237.842C125.152 237.893 125.132 237.95 125.111 238.013Z" fill="#585B8A"/>
<path d="M111.342 190.483C112.472 190.664 113.601 190.846 114.73 191.027C116.699 188.87 118.76 186.791 120.04 184.089C120.718 182.653 120.853 181.444 119.729 180.065C118.361 178.38 117.698 176.321 117.429 174.128C117.237 172.577 117.584 171.914 119.304 172.048C121.878 172.256 124.479 172.1 127.043 172.37C129.389 172.614 130.477 172.038 130.57 169.451C130.627 167.864 130.617 166.07 131.731 164.358C132.057 165.536 132.311 166.438 132.554 167.345C132.798 168.258 133.124 169.165 133.238 170.099C133.507 172.297 135.134 171.914 136.527 171.883C138.351 171.841 137.382 170.384 137.6 169.549C137.729 169.051 137.708 168.517 137.786 167.641C139.703 171.125 139.687 171.177 143.116 172.095C144.411 172.443 144.126 173.298 144.017 174.112C143.297 179.464 140.324 183.042 135.372 185.069C134.611 185.38 133.606 185.318 133.223 186.298C131.762 190.011 130.622 193.765 131.953 197.789C136.776 197.815 141.604 197.805 146.426 197.893C147.866 197.919 148.576 197.608 148.716 195.969C148.881 193.967 149.446 191.997 150.321 189.928C150.927 191.732 151.699 193.501 152.103 195.347C152.507 197.213 153.476 197.099 154.844 196.612C159.599 194.922 161.463 191.411 160.303 186.148C159.707 183.451 158.744 180.869 157.527 178.39C155.103 173.449 152.689 168.507 150.166 163.617C148.286 159.972 145.753 156.819 142.277 154.558C141.236 153.884 141.06 153.334 141.464 152.136C142.857 148.014 141.288 143.865 137.75 141.869C137.159 141.537 136.584 141.071 135.755 141.573C139.324 144.197 141.08 147.495 139.542 152.707C139.304 151.13 139.252 150.259 139.034 149.424C137.9 145.12 133.652 142.305 129.426 143.02C125.033 143.762 121.873 147.516 122.246 152.007C122.402 153.827 121.894 154.713 120.438 155.683C113.487 160.34 111.286 167.392 110.824 175.289C110.768 176.243 111.301 177.358 110.296 178.152C110.622 178.52 111.28 178.795 111.125 179.344C110.079 183.088 111.715 186.765 111.342 190.483Z" fill="#1F396B"/>
<path d="M131.948 197.789C130.617 193.765 131.757 190.016 133.217 186.298C133.601 185.318 134.606 185.38 135.367 185.069C140.319 183.042 143.292 179.464 144.012 174.112C144.121 173.298 144.406 172.443 143.111 172.095C139.682 171.177 139.698 171.125 137.781 167.641C137.703 168.517 137.724 169.051 137.594 169.549C137.377 170.389 138.34 171.841 136.522 171.883C135.129 171.914 133.502 172.297 133.233 170.099C133.119 169.165 132.793 168.263 132.549 167.345C132.311 166.438 132.052 165.535 131.726 164.358C130.607 166.07 130.617 167.864 130.565 169.451C130.477 172.038 129.384 172.614 127.038 172.37C124.474 172.1 121.868 172.256 119.299 172.048C117.579 171.908 117.232 172.577 117.424 174.128C117.693 176.321 118.356 178.38 119.724 180.065C120.843 181.445 120.713 182.653 120.035 184.089C118.755 186.791 116.699 188.87 114.725 191.027C117.564 197.462 120.407 203.898 123.464 210.815C126.468 206.822 129.26 203.109 132.052 199.402C132.021 198.862 131.985 198.328 131.948 197.789Z" fill="#F5BDBE"/>
<path d="M19.1295 373.338C17.1301 373.109 15.5398 373.846 14.0014 375.132C11.3648 377.341 8.46403 379.233 5.87407 381.494C2.73503 384.232 -0.0103306 387.245 2.92258e-05 391.896C0.00520915 394.499 1.33127 395.438 3.569 395.661C6.28328 395.936 9.02346 395.64 11.3389 394.292C16.2598 391.419 21.7143 390.304 27.1273 389.034C28.6347 388.681 29.624 387.961 30.2404 386.643C31.6546 383.631 31.9343 380.359 32.3487 377.118C32.4678 376.195 31.9084 375.915 31.1159 375.884C29.4376 376.687 27.7126 377.408 26.0965 378.321C24.8067 379.052 23.8432 378.787 23.5117 377.486C22.916 375.101 21.1704 374.11 19.1295 373.338Z" fill="#1F396B"/>
<path d="M106.644 404.938C105.458 408.334 106.608 410.948 109.069 413.406C112.56 416.89 116.119 420.007 121.5 419.442C123.904 419.187 125.66 415.941 125.137 413.012C124.608 410.03 123.339 407.333 122.153 404.596C121.666 403.247 120.863 401.92 120.76 400.546C120.594 398.295 119.434 397.243 117.45 396.74C114.627 396.657 111.736 396.247 109.307 398.264C108.255 398.959 107.665 399.851 107.546 401.189C107.442 402.459 106.966 403.688 106.644 404.938Z" fill="#1F396B"/>
<path d="M144.344 240.756C137.584 240.6 130.788 240.922 124.127 239.304C122.894 239.003 122.231 239.501 121.811 240.673C120.967 243.011 120.019 245.314 119.113 247.632C124.179 247.792 129.239 247.943 134.305 248.114C135.305 248.145 136.419 247.901 137.051 249.047C137.962 248.295 139.024 248.482 139.993 248.747C142.572 249.447 145.095 248.964 147.587 248.415C148.835 248.14 150.006 247.481 150.156 245.91C150.311 244.334 149.954 243.058 148.421 242.254C147.12 241.565 145.758 241.108 144.344 240.756Z" fill="#F5BDBE"/>
<path d="M19.1294 373.338C21.1703 374.105 22.9159 375.101 23.5168 377.491C23.8431 378.793 24.8118 379.057 26.1016 378.326C27.7177 377.408 29.4426 376.693 31.1209 375.889C33.6954 371.746 37.0571 368.147 39.4554 363.885C36.3786 362.184 33.3017 360.478 30.2248 358.777C26.2622 363.428 22.3876 368.147 19.1294 373.338Z" fill="#F5BDBE"/>
<path d="M166.773 174.848C167.058 169.622 161.531 162.419 161.997 162.253C160.915 161.994 160.355 161.06 159.588 160.386C158.532 159.453 157.413 158.597 155.9 159.225C154.346 159.868 154.15 161.268 154.284 162.689C154.807 168.315 156.641 173.531 159.428 178.411C161.37 181.818 164.297 184.602 165.747 188.331C168.135 186.339 170.523 184.348 172.911 182.357C170.896 179.827 169.202 177.032 166.773 174.848Z" fill="#F5BDBE"/>
<path d="M109.317 398.264C111.752 396.247 114.637 396.657 117.46 396.74C118.18 392.441 119.309 388.209 119.672 383.843C116.693 383.999 113.715 384.149 110.736 384.305C110.265 388.961 109.789 393.613 109.317 398.264Z" fill="#F5BDBE"/>
<path d="M123.961 237.235C120.371 235.674 116.895 233.698 113.161 232.656C109.084 231.52 108.348 228.891 108.167 225.319C107.95 220.994 107.395 216.685 106.649 212.376C106.649 219.075 106.649 225.775 106.649 232.48C106.649 233.19 106.686 233.838 107.597 234.051C112.99 235.295 118.377 236.571 123.764 237.831C123.831 237.634 123.899 237.437 123.961 237.235Z" fill="#1F396B"/>
<path d="M125.173 237.836C125.152 237.893 125.132 237.95 125.111 238.013C125.189 238.033 125.261 238.07 125.339 238.065C125.359 238.065 125.38 237.956 125.401 237.899C125.323 237.873 125.246 237.857 125.173 237.836Z" fill="#1F396B"/>
<path d="M174.88 166.396C176.61 165.484 177.703 164.768 177.874 163.269C177.915 162.906 177.641 162.637 177.257 162.533C175.724 162.123 174.761 163.01 173.657 164.203C174.916 164.281 175.76 164.69 174.88 166.396Z" fill="#585B8A"/>
<path d="M391.23 18.6054C392.525 17.2209 393.82 15.8364 395.115 14.4518C394.939 14.2807 394.763 14.1096 394.581 13.9385C393.074 15.1156 391.826 16.5416 390.696 18.0972C390.872 18.2683 391.049 18.4395 391.23 18.6054Z" fill="white"/>
<path d="M401.662 7.46704C401.445 7.61742 401.175 7.72113 401.02 7.91818C400.44 8.63377 399.29 8.82045 399.165 9.93532C399.16 10.0027 399.404 10.1894 399.461 10.1635C400.579 9.63975 401.502 8.91378 402.056 7.84039C401.921 7.71594 401.792 7.59149 401.662 7.46704Z" fill="white"/>
<path d="M189.207 140.303C189.368 140.142 189.528 139.982 189.689 139.821C189.44 139.893 189.202 139.976 189.207 140.303Z" fill="#1F396B"/>
<path d="M386.889 22.8989C385.532 24.0345 384.77 25.6576 383.745 27.0629C383.548 27.3325 383.553 27.597 383.869 27.7266C384.014 27.7836 384.315 27.7421 384.392 27.6384C385.439 26.2021 386.459 24.745 387.485 23.293C387.288 23.153 387.086 23.0286 386.889 22.8989Z" fill="white"/>
<path d="M458.714 93.3538C457.352 94.4894 456.595 96.1124 455.57 97.5177C455.373 97.7873 455.399 98.0259 455.699 98.1918C456.015 98.3629 456.222 98.1607 456.373 97.9273C457.31 96.5169 458.237 95.1064 459.17 93.6908C459.014 93.5819 458.864 93.4678 458.714 93.3538Z" fill="white"/>
<path d="M450.219 108.615C451.022 107.126 451.819 105.638 452.622 104.155C452.804 103.818 452.876 103.502 452.42 103.32C452.047 103.17 451.918 103.497 451.814 103.709C451.094 105.234 450.038 106.618 449.665 108.298C449.851 108.402 450.037 108.511 450.219 108.615Z" fill="white"/>
<path d="M190.626 149.388C189.212 146.494 189.093 143.409 189.218 140.282L189.207 140.303C189.368 140.142 189.528 139.982 189.689 139.821C190.569 139.033 191.564 138.4 192.362 137.482C202.053 126.282 211.766 115.102 221.509 103.943C234.298 89.2936 247.243 74.7743 258.38 58.7772C267.336 45.912 278.235 34.9759 291.076 26.0258C313.841 10.1583 338.715 0.155512 366.842 -5.22537e-05C396.068 -0.160802 421.496 9.87307 442.242 30.4231C458.496 46.5239 471.001 65.5183 481.184 85.9853C487.063 97.803 491.617 110.092 491.99 123.512C492.404 138.353 481.479 149.435 468.219 156.637C457.144 162.652 240.753 160.096 214.485 159.935C209.953 159.909 205.4 159.375 200.883 160.236C195.475 158.504 192.916 154.076 190.626 149.388ZM383.745 27.0577C383.548 27.3273 383.553 27.5918 383.869 27.7214C384.014 27.7785 384.314 27.737 384.392 27.6333C385.438 26.1969 386.459 24.7398 387.485 23.2879C387.282 23.1582 387.086 23.0286 386.884 22.8989C385.527 24.0346 384.77 25.6524 383.745 27.0577ZM455.564 97.5177C455.367 97.7874 455.393 98.0259 455.694 98.1919C456.01 98.363 456.217 98.1608 456.367 97.9274C457.305 96.517 458.232 95.1065 459.164 93.6909C459.014 93.5768 458.859 93.4627 458.709 93.3486C457.351 94.4894 456.59 96.1125 455.564 97.5177ZM445.35 118.814C445.308 118.944 445.432 119.219 445.562 119.307C445.852 119.494 446.116 119.328 446.194 119.032C446.645 117.347 447.598 115.797 447.484 113.919C446.334 115.361 445.909 117.124 445.35 118.814ZM442.542 130.077C442.475 130.394 442.552 130.632 442.863 130.731C443.236 130.85 443.397 130.56 443.428 130.29C443.625 128.605 444.314 126.976 443.972 125.198C442.993 126.696 442.899 128.423 442.542 130.077ZM442.48 137.384C442.506 137.052 442.418 136.829 442.081 136.787C441.724 136.741 441.584 136.964 441.568 137.285C441.47 138.991 441.371 140.692 441.273 142.398C441.542 142.413 441.812 142.424 442.081 142.439C442.216 140.754 442.34 139.069 442.48 137.384ZM242.809 133.577C242.452 133.816 242.162 138.898 242.509 139.069C242.949 139.281 243.198 138.97 243.229 138.613C243.353 137.078 243.425 135.543 243.508 134.003C243.524 133.666 243.332 133.5 242.996 133.5C242.939 133.526 242.866 133.541 242.809 133.577ZM373.53 48.344C373.483 48.4788 373.597 48.7588 373.721 48.847C374.006 49.0492 374.276 48.8989 374.359 48.5981C374.83 46.9128 375.742 45.352 375.685 43.5163C374.431 44.9164 374.11 46.6847 373.53 48.344ZM256.65 94.1524C256.5 94.3702 256.349 94.6035 256.634 94.8576C256.924 95.1117 257.168 94.9872 257.323 94.7435C258.261 93.2812 259.509 92.0004 260.188 90.3877C259.981 90.2477 259.773 90.1129 259.566 89.9729C258.592 91.3626 257.618 92.7575 256.65 94.1524ZM246.373 115.61C246.337 115.729 246.513 116.004 246.647 116.056C246.777 116.102 247.098 115.999 247.139 115.89C247.766 114.205 248.362 112.504 248.963 110.808C248.73 110.725 248.497 110.642 248.269 110.559C247.362 112.12 246.906 113.883 246.373 115.61ZM243.591 126.717C243.534 126.987 243.462 127.282 243.804 127.433C244.125 127.573 244.379 127.407 244.436 127.116C244.767 125.4 245.062 123.678 245.373 121.962C245.109 121.931 244.845 121.9 244.575 121.869C244.249 123.481 243.918 125.099 243.591 126.717ZM243.27 145.81C243.27 145.514 243.135 145.26 242.783 145.291C242.446 145.323 242.338 145.571 242.364 145.877C242.519 147.563 242.333 149.3 243.192 150.902C243.778 149.196 243.255 147.506 243.27 145.81ZM263.757 85.4927C265.502 84.5541 266.652 83.0244 267.668 81.3858C265.896 82.3295 264.658 83.7452 263.757 85.4927ZM380.901 33.3943C380.953 33.2958 380.802 33.0002 380.673 32.9276C380.554 32.8602 380.233 32.9121 380.181 33.0106C379.311 34.5922 378.29 36.1115 377.803 37.8538C378.01 37.9627 378.212 38.0716 378.42 38.1805C379.248 36.5886 380.093 35.0018 380.901 33.3943ZM395.109 14.457C394.933 14.2859 394.757 14.1148 394.576 13.9437C393.068 15.1208 391.82 16.5468 390.691 18.1024C390.867 18.2735 391.048 18.4446 391.224 18.6158C392.525 17.2261 393.814 15.8415 395.109 14.457ZM462.402 88.6662C463.868 88.4484 465.8 86.5557 466.53 84.5541C464.862 85.5808 463.65 87.0172 462.402 88.6662ZM452.622 104.155C452.803 103.818 452.876 103.502 452.42 103.32C452.047 103.17 451.918 103.497 451.814 103.709C451.094 105.234 450.037 106.618 449.664 108.298C449.851 108.402 450.032 108.511 450.219 108.615C451.022 107.126 451.819 105.638 452.622 104.155ZM253.765 100.546C253.811 100.453 253.635 100.162 253.5 100.1C253.381 100.043 253.076 100.116 253.014 100.225C252.148 101.801 251.159 103.325 250.626 105.042C250.848 105.151 251.071 105.265 251.294 105.374C252.123 103.766 252.957 102.164 253.765 100.546ZM442.21 148.973C442.21 148.838 441.993 148.62 441.843 148.584C441.511 148.506 441.299 148.76 441.335 149.051C441.532 150.767 441.174 152.582 442.252 154.656C442.76 152.437 442.231 150.7 442.21 148.973ZM272.226 76.4855C272.055 76.6359 271.739 76.8692 272.039 77.1596C272.159 77.2789 272.485 77.3826 272.557 77.3204C273.365 76.5788 274.598 76.1796 274.868 74.3024C273.713 75.2514 272.956 75.8477 272.226 76.4855ZM401.02 7.91815C400.44 8.63374 399.29 8.82042 399.165 9.93529C399.16 10.0027 399.404 10.1894 399.461 10.1635C400.579 9.63972 401.501 8.91376 402.056 7.84037C401.926 7.71592 401.797 7.59146 401.667 7.46183C401.444 7.61739 401.18 7.7211 401.02 7.91815ZM471.156 79.7887C470.969 79.9494 470.736 80.2139 471.047 80.4628C471.177 80.5665 471.493 80.6339 471.576 80.5613C472.358 79.8146 473.632 79.4516 473.767 77.6782C472.715 78.5234 471.923 79.1405 471.156 79.7887Z" fill="url(#paint0_linear)"/>
<path d="M187.141 161.797C186.395 161.657 185.643 161.455 184.887 161.849C178.811 164.991 172.725 168.118 166.649 171.25C165.696 171.67 164.696 172.007 163.805 172.531C162.199 173.469 161.22 172.982 160.5 171.39C159.842 169.933 159.086 168.522 158.376 167.086C157.024 164.348 157.154 163.938 159.806 162.554C160.163 162.367 160.51 162.144 160.858 161.942C166.752 158.898 172.632 155.808 178.568 152.836C180.091 152.074 181.064 151.135 181.702 149.492C183.193 145.644 185.467 142.325 189.228 140.277C189.099 143.404 189.223 146.489 190.637 149.383C192.926 154.07 195.485 158.499 200.893 160.231C196.47 162.238 191.885 162.699 187.141 161.797ZM175.227 161.175C175.304 160.817 175.061 160.521 174.693 160.376C173.212 159.806 172.16 160.594 170.943 161.662C172.181 161.869 172.979 162.367 171.927 163.969C173.74 163.249 174.9 162.642 175.227 161.175Z" fill="#1F396B"/>
<path d="M447.484 113.925C446.334 115.361 445.909 117.124 445.35 118.82C445.308 118.949 445.433 119.224 445.562 119.312C445.852 119.499 446.116 119.333 446.194 119.037C446.645 117.347 447.598 115.797 447.484 113.925Z" fill="white"/>
<path d="M443.972 125.198C442.993 126.696 442.899 128.423 442.542 130.077C442.475 130.394 442.552 130.632 442.863 130.731C443.236 130.85 443.397 130.56 443.428 130.29C443.625 128.605 444.313 126.982 443.972 125.198Z" fill="white"/>
<path d="M442.086 142.439C442.216 140.754 442.34 139.069 442.48 137.384C442.506 137.052 442.418 136.829 442.081 136.787C441.724 136.741 441.584 136.963 441.568 137.285C441.47 138.991 441.371 140.692 441.273 142.398C441.542 142.413 441.817 142.424 442.086 142.439Z" fill="white"/>
<path d="M243.001 133.5C242.939 133.526 242.866 133.541 242.814 133.578C242.457 133.816 242.167 138.898 242.514 139.069C242.954 139.282 243.203 138.97 243.234 138.613C243.358 137.078 243.431 135.543 243.514 134.003C243.529 133.671 243.338 133.5 243.001 133.5Z" fill="white"/>
<path d="M375.69 43.5164C374.431 44.9164 374.11 46.6899 373.53 48.344C373.483 48.4789 373.597 48.7589 373.722 48.847C374.007 49.0492 374.276 48.8989 374.359 48.5981C374.83 46.9077 375.747 45.3468 375.69 43.5164Z" fill="white"/>
<path d="M259.566 89.9678C258.592 91.3627 257.613 92.7524 256.65 94.1525C256.5 94.3702 256.349 94.6036 256.634 94.8577C256.924 95.1118 257.168 94.9873 257.323 94.7436C258.261 93.2813 259.509 92.0005 260.188 90.3878C259.981 90.2478 259.773 90.1078 259.566 89.9678Z" fill="white"/>
<path d="M248.264 110.559C247.362 112.12 246.907 113.883 246.373 115.61C246.337 115.729 246.513 116.004 246.648 116.056C246.777 116.102 247.098 115.999 247.14 115.89C247.766 114.204 248.362 112.504 248.963 110.808C248.73 110.72 248.497 110.642 248.264 110.559Z" fill="white"/>
<path d="M244.581 121.869C244.249 123.487 243.918 125.104 243.591 126.722C243.534 126.992 243.462 127.287 243.804 127.438C244.125 127.578 244.379 127.412 244.436 127.122C244.767 125.405 245.062 123.684 245.373 121.967C245.109 121.931 244.845 121.9 244.581 121.869Z" fill="white"/>
<path d="M243.193 150.902C243.773 149.196 243.255 147.506 243.265 145.81C243.265 145.514 243.13 145.26 242.778 145.291C242.442 145.323 242.333 145.571 242.359 145.877C242.519 147.563 242.333 149.3 243.193 150.902Z" fill="white"/>
<path d="M267.662 81.3857C265.896 82.3295 264.653 83.7451 263.751 85.4926C265.497 84.5541 266.652 83.0243 267.662 81.3857Z" fill="white"/>
<path d="M378.42 38.1806C379.254 36.5886 380.093 35.0019 380.906 33.3944C380.958 33.2959 380.808 33.0003 380.678 32.9277C380.559 32.8603 380.238 32.9121 380.186 33.0107C379.316 34.5922 378.296 36.1116 377.809 37.8539C378.005 37.9628 378.213 38.0717 378.42 38.1806Z" fill="white"/>
<path d="M251.294 105.374C252.123 103.766 252.962 102.164 253.765 100.551C253.811 100.458 253.635 100.168 253.501 100.105C253.381 100.048 253.076 100.121 253.014 100.23C252.149 101.806 251.159 103.331 250.626 105.047C250.848 105.151 251.071 105.26 251.294 105.374Z" fill="white"/>
<path d="M442.257 154.651C442.76 152.432 442.226 150.7 442.211 148.973C442.211 148.838 441.993 148.621 441.843 148.584C441.511 148.506 441.299 148.761 441.335 149.051C441.537 150.767 441.18 152.577 442.257 154.651Z" fill="white"/>
<path d="M274.873 74.3025C273.713 75.2514 272.956 75.853 272.226 76.4856C272.055 76.636 271.739 76.8693 272.04 77.1597C272.159 77.279 272.485 77.3827 272.558 77.3204C273.366 76.5737 274.598 76.1796 274.873 74.3025Z" fill="white"/>
<path d="M400.062 84.2638C400.455 107.645 383.175 127.899 360.87 131.695C352.587 133.106 344.512 132.613 336.607 129.761C335.224 129.263 334.68 129.419 334.111 130.897C331.469 137.726 325.108 140.899 319.317 140.542C311.469 140.054 306.02 134.941 304.797 127.728C303.679 121.112 306.186 116.056 311.495 112.302C312.645 111.487 312.459 110.995 311.873 110.061C307.74 103.481 305.429 96.3459 304.735 88.5625C302.591 64.476 318.923 43.1949 341.342 38.0406C356.597 34.53 370.5 37.8176 382.719 47.6907C392.1 55.2719 397.477 65.2228 399.616 77.0093C399.844 78.2798 399.968 79.5761 400.041 80.8673C400.113 82.1688 400.062 83.4704 400.062 84.2638Z" fill="white"/>
<path d="M351.676 96.4391C346.584 96.7398 345.745 95.6872 346.18 90.5277C346.511 86.5763 348.402 83.7606 351.448 81.4583C353.406 79.9804 355.53 78.7255 357.203 76.8484C358.943 74.8987 359.43 72.6897 358.643 70.3562C357.798 67.8464 355.628 66.5708 353.136 66.2856C349.081 65.8189 345.859 66.8405 343.88 70.994C342.471 73.9549 339.451 74.8468 336.69 73.4312C334.173 72.14 333.266 68.9821 334.68 66.2027C336.524 62.5625 339.467 60.0838 343.227 58.6526C348.511 56.6407 353.924 56.3088 359.394 57.9059C365.289 59.6275 369.36 63.3195 370.412 69.4695C371.422 75.3602 369.08 80.1153 364.211 83.5947C363.154 84.3466 362.103 85.1089 361.046 85.8556C358.285 87.8053 356.581 90.3306 356.674 93.8412C356.716 95.4072 355.706 96.0294 354.395 96.2628C353.509 96.4183 352.587 96.3872 351.676 96.4391Z" fill="#1F396B"/>
<path d="M352.867 113.598C349.433 113.769 346.237 110.969 346.133 107.697C346.035 104.502 348.894 101.396 352.152 101.179C355.478 100.95 358.819 103.813 358.99 107.043C359.166 110.321 356.265 113.427 352.867 113.598Z" fill="#1F396B"/>
<path d="M400.605 56.5111C404.19 56.5111 407.096 53.6021 407.096 50.0137C407.096 46.4253 404.19 43.5164 400.605 43.5164C397.021 43.5164 394.115 46.4253 394.115 50.0137C394.115 53.6021 397.021 56.5111 400.605 56.5111Z" fill="white"/>
<path d="M407.443 67.3903C409.477 67.3903 411.126 65.7397 411.126 63.7035C411.126 61.6673 409.477 60.0166 407.443 60.0166C405.409 60.0166 403.76 61.6673 403.76 63.7035C403.76 65.7397 405.409 67.3903 407.443 67.3903Z" fill="white"/>
<path d="M412.996 56.5113C414.363 56.5113 415.472 55.4015 415.472 54.0326C415.472 52.6637 414.363 51.554 412.996 51.554C411.628 51.554 410.52 52.6637 410.52 54.0326C410.52 55.4015 411.628 56.5113 412.996 56.5113Z" fill="white"/>
<path d="M299.907 151.789C303.492 151.789 306.398 148.88 306.398 145.291C306.398 141.703 303.492 138.794 299.907 138.794C296.323 138.794 293.417 141.703 293.417 145.291C293.417 148.88 296.323 151.789 299.907 151.789Z" fill="white"/>
</g>
<defs>
<linearGradient id="paint0_linear" x1="481.361" y1="64.7637" x2="185.019" y2="123.118" gradientUnits="userSpaceOnUse">
<stop offset="0.00558659" stop-color="#8E434A"/>
<stop offset="1" stop-color="#754058"/>
</linearGradient>
<clipPath id="clip0">
<rect width="492" height="444" fill="white"/>
</clipPath>
</defs>
</svg>
