<svg width="201" height="153" viewBox="0 0 201 153" fill="none" xmlns="http://www.w3.org/2000/svg">
<g clip-path="url(#clip0)">
<path d="M120.586 100.429L113.299 116.723L193.705 152.608L200.992 136.315L120.586 100.429Z" fill="#D94521"/>
<path d="M106.363 135.84C80.1436 158.775 40.136 156.13 17.1685 129.947C-5.79904 103.763 -3.14225 63.7881 23.0775 40.8445C49.2973 17.9009 89.3049 20.5549 112.272 46.7382C135.24 72.9216 132.583 112.906 106.363 135.84ZM32.0373 51.067C11.4609 69.0687 9.38131 100.441 27.4017 120.996C45.4221 141.551 76.8272 143.628 97.4035 125.627C117.98 107.625 120.06 76.2528 102.039 55.6979C84.0188 35.1429 52.6137 33.0654 32.0373 51.067Z" fill="#D94521" stroke="#D94521" stroke-width="3.3689" stroke-miterlimit="10"/>
<path d="M98.9333 0C110.541 0.0915181 122.148 0.183036 133.756 0.247099C134.562 0.247099 135.047 0.613171 135.56 1.07991C142.12 6.99198 148.689 12.9041 155.266 18.7887C155.862 19.3195 156.091 19.8503 156.091 20.6282C156.064 41.2198 156.045 61.8113 156.109 82.4029C156.118 83.9404 155.505 84.096 154.121 84.0869C144.758 84.0686 135.396 84.1143 126.033 84.1418C125.648 84.1418 125.272 84.1509 124.887 84.1509C123.596 84.1143 122.304 84.0869 121.012 84.0502C121.031 64.3555 121.04 44.67 121.067 24.9753C121.067 24.2706 120.811 23.7581 120.316 23.2365C118.044 20.8295 115.809 18.386 113.573 15.9516C108.69 10.6436 103.816 5.32635 98.9333 0ZM137.219 33.6787C137.732 33.6787 138.236 33.6787 138.749 33.6787C141.378 33.6787 141.378 33.6787 141.378 31.2534C141.378 27.0528 141.378 27.0528 136.449 27.0528C133.142 27.0528 133.142 27.0528 133.142 29.9356C133.142 33.6787 133.142 33.6787 137.219 33.6787ZM137.292 38.6573C136.779 38.6573 136.266 38.6573 135.753 38.6573C133.151 38.6573 133.151 38.6573 133.151 41.1191C133.151 45.3381 133.151 45.3381 137.732 45.3381C141.387 45.3381 141.387 45.3381 141.387 42.2265C141.387 38.6573 141.387 38.6573 137.292 38.6573ZM137.393 57.1348C138.098 57.1348 138.804 57.0616 139.5 57.1531C140.975 57.3361 141.579 56.8877 141.415 55.4417C141.277 54.2153 141.341 52.9707 141.405 51.7352C141.451 50.8383 141.149 50.4539 140.114 50.4997C138.776 50.5638 137.429 50.518 136.092 50.518C133.151 50.518 133.151 50.518 133.151 53.2086C133.142 57.1348 133.142 57.1348 137.393 57.1348ZM137.191 68.7942C137.576 68.7942 137.961 68.7942 138.345 68.7942C141.387 68.7942 141.387 68.7942 141.387 66.0029C141.387 62.1134 141.387 62.1134 136.87 62.1134C133.151 62.1134 133.151 62.1133 133.151 65.3256C133.142 68.7942 133.142 68.7942 137.191 68.7942Z" fill="#D94521"/>
<path d="M98.9333 0C103.816 5.32635 108.69 10.6436 113.573 15.9699C115.809 18.4043 118.044 20.8478 120.316 23.2548C120.811 23.7764 121.067 24.2889 121.067 24.9936C121.04 44.6883 121.03 64.3738 121.012 84.0686C119.638 84.096 89.0208 84.1326 82.7452 84.2058C81.2977 84.2241 80.9313 83.8489 80.9313 82.5219C80.9862 70.9357 80.9679 59.3404 80.9588 47.7542C80.9496 40.2497 80.9221 32.736 80.9038 25.2315C80.9038 24.8563 80.9038 24.4811 80.913 24.1059C80.29 20.5733 81.7833 17.8277 84.5775 15.5306C85.0997 15.1005 85.4753 14.5331 85.9151 14.0297C88.526 11.3757 91.0729 8.65761 93.3907 5.77479C95.3512 3.93528 96.7987 1.68393 98.9333 0ZM100.949 47.1135C101.526 47.1135 102.112 47.0403 102.671 47.1227C104.668 47.443 105.31 46.6559 105.044 44.8988C104.824 43.462 105.731 41.5309 104.641 40.689C103.725 39.9843 101.709 40.4419 100.188 40.4419C96.7896 40.4236 96.7896 40.4327 96.7896 43.407C96.7896 47.1135 96.7896 47.1135 100.949 47.1135ZM100.83 63.898C100.124 63.898 99.4097 63.962 98.7135 63.8888C97.266 63.7241 96.588 64.1268 96.7712 65.6002C96.9087 66.7716 96.8629 67.9705 96.7804 69.1419C96.7071 70.2036 97.0644 70.6337 98.2737 70.5788C99.996 70.4964 101.737 70.5056 103.468 70.5788C104.623 70.6245 105.154 70.3042 105.016 69.1877C104.961 68.721 105.007 68.2451 105.007 67.7692C105.007 63.898 105.007 63.898 100.83 63.898ZM100.848 35.4541C101.425 35.4541 102.002 35.4541 102.58 35.4541C105.026 35.4541 105.026 35.4541 105.026 33.157C105.026 28.8099 105.026 28.8099 100.179 28.8099C96.7896 28.8099 96.7896 28.8099 96.7896 31.8209C96.7896 35.4541 96.7896 35.4541 100.848 35.4541ZM100.857 52.2935C96.8079 52.2935 96.8079 52.2935 96.8079 56.0823C96.8079 56.549 96.8537 57.0249 96.7987 57.4917C96.6705 58.535 97.0461 59.0109 98.2737 58.9194C99.5471 58.8279 100.821 58.9011 102.103 58.9011C105.016 58.9011 105.016 58.9011 105.016 56.1738C105.007 52.2935 105.007 52.2935 100.857 52.2935Z" fill="#1F396B"/>
<path d="M93.3816 5.7565C91.0638 8.64848 88.5169 11.3574 85.9059 14.0114C85.8876 9.92973 85.9151 5.84802 85.8326 1.77546C85.8143 0.732157 86.2083 0.457603 87.2618 0.512514C88.7276 0.585728 90.2118 0.585728 91.6867 0.512514C92.8319 0.448451 93.2808 0.750461 93.2259 1.88529C93.1801 3.16654 92.9877 4.47525 93.3816 5.7565Z" fill="#1F396B"/>
<path d="M137.219 33.6786C133.142 33.6786 133.142 33.6786 133.142 29.9356C133.142 27.0527 133.142 27.0527 136.449 27.0527C141.387 27.0527 141.387 27.0527 141.378 31.2534C141.378 33.6786 141.378 33.6786 138.749 33.6786C138.245 33.6786 137.732 33.6786 137.219 33.6786Z" fill="white"/>
<path d="M137.292 38.6572C141.387 38.6572 141.387 38.6572 141.387 42.2264C141.387 45.338 141.387 45.338 137.732 45.338C133.151 45.338 133.151 45.338 133.151 41.1191C133.151 38.6572 133.151 38.6572 135.753 38.6572C136.266 38.6572 136.779 38.6572 137.292 38.6572Z" fill="white"/>
<path d="M137.393 57.1347C133.142 57.1347 133.142 57.1347 133.142 53.1903C133.142 50.4997 133.142 50.4997 136.083 50.4997C137.42 50.4997 138.767 50.5454 140.104 50.4813C141.14 50.4264 141.442 50.82 141.396 51.7168C141.332 52.9523 141.268 54.197 141.405 55.4233C141.57 56.8693 140.966 57.3178 139.491 57.1347C138.804 57.0707 138.098 57.1347 137.393 57.1347Z" fill="white"/>
<path d="M137.191 68.7941C133.151 68.7941 133.151 68.7941 133.151 65.3256C133.151 62.1133 133.151 62.1133 136.87 62.1133C141.387 62.1133 141.387 62.1133 141.387 66.0028C141.387 68.7941 141.387 68.7941 138.345 68.7941C137.961 68.7941 137.576 68.7941 137.191 68.7941Z" fill="white"/>
<path d="M100.949 47.1136C96.7988 47.1136 96.7988 47.1136 96.7988 43.4072C96.7988 40.442 96.7988 40.4237 100.198 40.442C101.728 40.4511 103.734 39.9844 104.65 40.6891C105.74 41.531 104.833 43.4621 105.053 44.8989C105.319 46.656 104.678 47.4431 102.68 47.1228C102.112 47.0404 101.517 47.1136 100.949 47.1136Z" fill="white"/>
<path d="M100.83 63.898C105.007 63.898 105.007 63.898 105.007 67.76C105.007 68.2359 104.961 68.7118 105.016 69.1786C105.154 70.2951 104.622 70.6154 103.468 70.5697C101.737 70.4964 100.005 70.4873 98.2736 70.5697C97.0643 70.6246 96.6979 70.2036 96.7803 69.1328C96.8628 67.9522 96.9086 66.7533 96.7712 65.5911C96.5971 64.1176 97.2659 63.7149 98.7134 63.8797C99.4188 63.962 100.124 63.898 100.83 63.898Z" fill="white"/>
<path d="M100.848 35.4542C96.7896 35.4542 96.7896 35.4542 96.7896 31.83C96.7896 28.8191 96.7895 28.8191 100.179 28.8191C105.026 28.8191 105.026 28.8191 105.026 33.1662C105.026 35.4542 105.026 35.4542 102.58 35.4633C102.002 35.4542 101.425 35.4542 100.848 35.4542Z" fill="white"/>
<path d="M100.857 52.2935C105.017 52.2935 105.017 52.2935 105.017 56.183C105.017 58.9102 105.017 58.9102 102.103 58.9102C100.83 58.9102 99.5472 58.837 98.2738 58.9285C97.0462 59.0109 96.6798 58.5441 96.7988 57.5008C96.8538 57.0341 96.808 56.5582 96.808 56.0915C96.7988 52.2935 96.7988 52.2935 100.857 52.2935Z" fill="white"/>
<path d="M0.375513 74.7885C6.88007 68.4554 13.4304 62.1682 19.8617 55.7619C21.2817 54.3434 22.7017 53.5655 24.7172 53.7576C25.7891 53.8583 26.8793 53.6844 27.9603 53.6295C28.2169 53.6295 28.4642 53.6295 28.7207 53.6204C29.2887 53.6478 29.8659 53.6936 30.4339 53.6936C39.4945 53.6844 48.5551 53.657 57.6248 53.6295C50.6988 61.7563 43.7637 69.8923 36.8285 78.0099C36.1597 78.797 35.4726 79.5474 35.2894 80.6091C35.2894 80.4352 35.2436 80.2247 35.5368 80.307C35.5734 80.3162 35.6101 80.3894 35.6101 80.4443C35.6284 80.8287 35.6467 81.2131 35.6467 81.5975C35.6467 93.6504 35.6467 105.712 35.6376 117.765C35.6376 118.205 35.5368 118.644 35.4818 119.083C24.3141 119.092 13.1373 119.074 1.96959 119.166C0.467126 119.175 0.531256 118.461 0.531256 117.418C0.549578 104.01 0.549578 90.6028 0.531256 77.1954C0.531256 76.509 0.732805 75.786 0.338867 75.1271C0.35719 75.0173 0.375513 74.8983 0.375513 74.7885ZM19.2479 90.0171C19.7609 90.0171 20.274 90.0171 20.787 90.0171C23.3613 90.0171 23.4071 90.0171 23.343 87.5187C23.3064 86.0086 24.0484 83.9586 23.0132 83.1441C22.0513 82.3845 20.0816 82.8787 18.5608 82.8696C15.2169 82.8512 15.2169 82.8604 15.2169 85.8988C15.2169 90.0171 15.2169 90.0171 19.2479 90.0171ZM19.2021 102.573C19.5227 102.573 19.8434 102.573 20.1549 102.573C23.3522 102.573 23.3522 102.573 23.3522 99.4069C23.3522 95.3892 23.3522 95.3892 19.083 95.3892C15.2169 95.3892 15.2169 95.3892 15.2169 99.05C15.2169 102.573 15.2169 102.573 19.2021 102.573Z" fill="#1F396B"/>
<path d="M35.2894 80.6089C35.4726 79.5473 36.1597 78.7877 36.8285 78.0098C43.7636 69.883 50.6896 61.7562 57.6247 53.6294C59.8326 55.4323 61.2893 57.9033 63.2681 59.9167C65.5768 62.9826 68.032 65.9203 70.6705 68.7116C72.2554 70.5969 73.8403 72.4821 75.4252 74.3766C75.4527 76.9391 75.5077 79.5016 75.5077 82.0641C75.5443 94.3641 75.5627 106.664 75.5902 118.973C75.4894 119.074 75.3886 119.175 75.2787 119.275C74.958 119.248 74.6465 119.184 74.3259 119.184C61.9764 119.175 49.6269 119.175 37.2774 119.184C36.9018 119.184 36.5262 119.285 36.1505 119.339C35.9307 119.248 35.72 119.166 35.5001 119.074C35.1611 118.699 35.2527 118.232 35.2527 117.793C35.2619 105.401 35.2711 93.0097 35.2894 80.6089ZM55.6184 91.948C59.7227 91.948 59.7227 91.948 59.7227 87.848C59.7227 87.3355 59.6769 86.823 59.7319 86.3105C59.851 85.194 59.5211 84.654 58.266 84.7639C57.0567 84.8737 55.8383 84.7913 54.6198 84.7913C51.4866 84.7913 51.4866 84.7913 51.4866 87.8938C51.4958 91.948 51.4958 91.948 55.6184 91.948ZM55.5818 104.468C59.6586 104.468 59.6586 104.468 59.6586 100.377C59.6586 99.7362 59.6311 99.0956 59.6586 98.4641C59.7044 97.6496 59.3471 97.3202 58.5317 97.3385C56.8735 97.3659 55.197 97.4666 53.5479 97.311C51.8073 97.1463 51.2118 97.796 51.4866 99.4525C51.5416 99.7637 51.4958 100.093 51.4958 100.413C51.4958 104.468 51.4958 104.468 55.5818 104.468Z" fill="#D94521"/>
<path d="M0.375561 74.7886C0.375561 74.9075 0.357238 75.0174 0.338916 75.1272C0.311432 75.0448 0.274786 74.9625 0.265625 74.8709C0.265625 74.8526 0.338916 74.816 0.375561 74.7886Z" fill="#E7E6E6"/>
<path d="M19.248 90.017C15.217 90.017 15.217 90.017 15.217 85.9079C15.217 82.8695 15.217 82.8603 18.5609 82.8786C20.0817 82.8878 22.0514 82.3936 23.0133 83.1532C24.0486 83.9677 23.2973 86.0177 23.3432 87.5277C23.4073 90.0262 23.3615 90.0262 20.7871 90.0262C20.2741 90.017 19.7611 90.017 19.248 90.017Z" fill="white"/>
<path d="M19.2022 102.573C15.217 102.573 15.217 102.573 15.217 99.0499C15.217 95.3892 15.217 95.3892 19.0831 95.3892C23.3523 95.3892 23.3523 95.3892 23.3523 99.4068C23.3523 102.573 23.3523 102.573 20.155 102.573C19.8344 102.573 19.5229 102.573 19.2022 102.573Z" fill="white"/>
<path d="M63.2683 59.9169C63.305 58.4434 63.4424 56.97 63.3599 55.5148C63.2866 54.2702 63.763 53.9773 64.9082 54.0506C66.7496 54.1695 69.1499 53.4648 70.3134 54.38C71.5593 55.3593 70.6615 57.8486 70.7073 59.6789C70.7715 62.6899 70.6982 65.7008 70.6798 68.7118C68.0231 65.9205 65.5678 62.9827 63.2683 59.9169Z" fill="#D94521"/>
<path d="M55.6185 91.9481C51.4958 91.9481 51.4958 91.9481 51.4958 87.8938C51.4958 84.7914 51.4959 84.7914 54.629 84.7914C55.8475 84.7914 57.066 84.8737 58.2753 84.7639C59.5304 84.6541 59.8602 85.1849 59.7411 86.3106C59.6861 86.8139 59.7319 87.3356 59.7319 87.8481C59.7227 91.9481 59.7227 91.9481 55.6185 91.9481Z" fill="white"/>
<path d="M55.5819 104.468C51.4868 104.468 51.4868 104.468 51.4868 100.404C51.4868 100.084 51.5326 99.7546 51.4776 99.4434C51.2028 97.7869 51.7983 97.1372 53.5389 97.3019C55.188 97.4575 56.8645 97.3568 58.5227 97.3293C59.3381 97.311 59.6954 97.6405 59.6496 98.455C59.6129 99.0956 59.6496 99.7363 59.6496 100.368C59.6587 104.468 59.6587 104.468 55.5819 104.468Z" fill="white"/>
</g>
<defs>
<clipPath id="clip0">
<rect width="201" height="153" fill="white"/>
</clipPath>
</defs>
</svg>
