<svg width="686" height="691" viewBox="0 0 686 691" fill="none" xmlns="http://www.w3.org/2000/svg">
<g clip-path="url(#clip0)">
<path d="M205.358 570.111C162.297 568.089 149.607 553.765 122.084 560.298C104.138 564.558 78.3315 578.046 75.3012 598.157C70.9723 626.877 114.064 662.669 155.477 670.64C195.204 678.287 203.095 654.51 250.5 650.43C330.319 643.564 362.612 706.27 416.062 685.916C445.423 674.738 469.201 643.043 465.647 616.408C460.908 580.859 408.095 558.879 373.343 553.765C356.999 551.366 356.392 554.421 259.105 565.573C217.616 570.345 212.148 570.435 205.358 570.111Z" fill="#D94521"/>
<path d="M673.009 5.40771C679.627 5.40771 681.085 6.98366 681.085 14.1063C681.085 115.276 681.085 216.446 681.085 317.616C681.085 324.731 679.613 326.314 672.995 326.314C527.81 326.314 382.625 326.314 237.439 326.314C230.828 326.314 229.363 324.738 229.363 317.608C229.363 216.438 229.363 115.268 229.363 14.0986C229.37 6.97594 230.828 5.40771 237.453 5.40771C309.93 5.40771 382.407 5.40771 454.884 5.40771C527.593 5.40771 600.301 5.40771 673.009 5.40771ZM238.477 7.72529C231.866 7.72529 231.473 8.15018 231.473 15.242C231.473 115.655 231.473 216.06 231.473 316.472C231.473 323.472 231.936 323.997 238.126 323.997C382.863 323.997 527.599 323.997 672.336 323.997C678.442 323.997 678.989 323.41 678.989 316.859C678.989 216.191 678.989 115.523 678.989 14.8557C678.989 8.30468 678.442 7.72529 672.336 7.72529C599.852 7.72529 527.368 7.72529 454.884 7.72529C382.744 7.72529 310.61 7.72529 238.477 7.72529Z" fill="white" stroke="white" stroke-width="14" stroke-miterlimit="10"/>
<path d="M176.747 395.556C175.254 401.226 171.665 405.537 168.909 410.404C162.333 422.022 160.49 435.202 159.003 448.481C157.587 461.12 156.991 473.813 156.781 486.521C156.662 493.52 154.411 499.8 152.476 506.22C143.278 536.719 134.213 567.265 124.609 597.602C122.414 604.539 122.751 611.283 122.632 618.213C134.697 618.228 146.756 618.244 158.821 618.259C158.498 607.83 153.142 602.716 141.287 602.005C159.424 561.146 177.47 520.496 195.522 479.846C195.732 479.846 195.943 479.846 196.16 479.854C196.595 484.303 197.058 488.753 197.45 493.203C199.981 522.227 202.47 551.258 205.029 580.274C206.164 593.183 207.16 606.092 206.515 619.078C206.88 619.325 207.244 619.797 207.609 619.797C218.798 619.843 229.98 619.827 241.169 619.858C242.221 619.858 242.999 619.681 243.069 618.313C240.524 607.56 236.507 603.828 226.657 603.813C223.824 603.805 224.063 602.345 224.182 600.306C225.163 583.511 226.138 566.709 227.077 549.914C229.209 511.821 231.536 473.735 229.896 435.526C225.865 430.914 221.918 426.202 217.781 421.698C208.779 411.895 199.378 402.431 195.711 388.356C191.07 389.461 186.443 390.681 181.774 391.631C179.447 392.118 177.652 393.053 176.747 395.556Z" fill="#1F396B"/>
<path d="M200.878 281.91C203.199 278.781 204.804 275.359 203.024 271.357C201.965 268.985 200.906 266.699 197.485 266.961C194.996 267.154 192.43 265.277 189.829 264.682C174.869 261.299 160.588 271.071 157.896 286.576C157.082 291.265 157.454 296.039 157.938 300.767C158.407 305.363 158.646 309.968 158.358 314.595C157.945 321.247 155.456 326.67 150.478 330.571C148.109 332.425 145.655 334.148 143.243 335.94C140.923 337.67 138.665 339.478 136.898 341.919C131.605 349.22 133.183 356.93 140.951 360.699C147.576 363.913 154.678 365.412 161.737 366.988C162.88 367.243 164.023 367.459 165.173 367.691C172.352 367.699 179.334 366.779 185.588 362.422C186.338 361.789 187.081 361.163 187.831 360.529C192.178 355.562 194.569 349.66 195.564 342.831C196.497 336.45 195.333 330.308 194.723 324.082C193.468 319.532 192.213 314.981 190.958 310.439C189.262 304.931 187.235 299.492 187.004 293.59C186.815 288.685 188.448 286.344 192.732 284.946C195.473 284.042 198.326 283.478 200.878 281.91Z" fill="#1F396B"/>
<path d="M187.817 360.529C187.074 361.163 186.324 361.789 185.581 362.422C188.953 371.067 192.332 379.719 195.705 388.364C199.371 402.439 208.766 411.902 217.774 421.706C221.911 426.209 225.858 430.914 229.889 435.534C232.455 437.913 234.81 440.107 234.845 444.549C234.874 448.559 238.351 451.054 242.228 451.023C246.154 450.984 249.154 448.281 249.89 444.109C250.5 440.679 248.194 435.936 244.948 434.939C242.922 434.313 241.814 433.023 240.748 431.293C236.318 424.093 231.838 416.924 227.372 409.747C227.211 409.585 227.05 409.423 226.888 409.26L226.965 409.338C221.616 401.597 216.015 394.011 214.115 384.138C213.512 382.616 212.832 381.133 212.306 379.58C210.048 372.859 207.861 366.107 205.59 359.386C205.106 357.949 204.868 355.794 202.582 357.532C198.088 360.931 193.012 361.147 187.817 360.529Z" fill="#F6B6B8"/>
<path d="M377.601 637.937C374.481 632.212 372.939 626.782 370.807 620.764C370.106 632.599 371.614 643.051 376.675 652.623C372.553 655.118 367.884 652.808 364 655.342C367.793 658.911 398.247 659.004 402.629 655.38C400.442 654.129 398.212 653.967 395.906 653.967C390.108 653.974 390.143 653.727 389.505 647.663C387.78 631.432 388.243 615.147 388.096 598.87C388.075 596.622 389.351 594.529 388.51 591.655C381.408 606.132 377.257 620.903 377.601 637.937Z" fill="#F1EABE"/>
<path d="M356.731 641.227C353.582 638.373 352.025 635.664 349.873 632.663C349.165 638.565 350.687 643.778 355.797 648.551C351.635 649.795 346.921 648.643 343 649.907C346.829 651.687 377.576 651.733 382 649.926C379.792 649.302 377.541 649.221 375.212 649.221C369.359 649.225 369.394 649.102 368.75 646.078C367.009 637.984 367.476 629.862 367.327 621.745C367.306 620.624 368.594 619.58 367.745 618.147C360.575 625.366 356.385 632.733 356.731 641.227Z" fill="#F1EABE"/>
<path d="M395.731 631.728C392.582 628.683 391.025 625.794 388.873 622.593C388.165 628.888 389.687 634.448 394.797 639.54C390.635 640.867 385.921 639.638 382 640.986C385.829 642.885 416.576 642.934 421 641.007C418.792 640.341 416.541 640.255 414.212 640.255C408.359 640.259 408.394 640.127 407.75 636.901C406.009 628.268 406.476 619.605 406.327 610.947C406.306 609.751 407.594 608.637 406.745 607.108C399.575 614.809 395.385 622.667 395.731 631.728Z" fill="#F1EABE"/>
<path d="M270.731 589.347C267.582 586.492 266.025 583.784 263.873 580.783C263.165 586.685 264.687 591.898 269.797 596.671C265.635 597.915 260.921 596.763 257 598.027C260.829 599.807 291.576 599.853 296 598.046C293.792 597.422 291.541 597.341 289.212 597.341C283.359 597.345 283.394 597.222 282.75 594.197C281.009 586.103 281.476 577.982 281.327 569.865C281.306 568.744 282.594 567.7 281.745 566.267C274.575 573.486 270.385 580.852 270.731 589.347Z" fill="#F1EABE"/>
<path d="M170.731 646.512C167.582 643.277 166.025 640.208 163.873 636.806C163.165 643.495 164.687 649.403 169.797 654.813C165.635 656.223 160.921 654.917 157 656.349C160.829 658.367 191.576 658.419 196 656.371C193.792 655.664 191.541 655.572 189.212 655.572C183.359 655.577 183.394 655.437 182.75 652.009C181.009 642.836 181.476 633.632 181.327 624.433C181.306 623.162 182.594 621.979 181.745 620.354C174.575 628.537 170.385 636.885 170.731 646.512Z" fill="#F1EABE"/>
<path d="M187.817 360.529C193.012 361.14 198.081 360.931 202.575 357.509C204.86 355.771 205.099 357.926 205.583 359.363C207.854 366.084 210.041 372.836 212.299 379.557C212.818 381.109 213.498 382.6 214.108 384.115C215.398 383.721 216.828 383.891 217.999 382.987C217.704 382.152 217.466 381.287 217.094 380.491C215.257 376.613 214.009 373.114 216.365 368.486C218.545 364.207 217.136 359.193 215.454 354.728C211.724 344.839 205.337 336.983 199.077 329.049C197.703 327.311 196.174 325.727 194.716 324.074C195.326 330.301 196.49 336.442 195.557 342.823C194.562 349.66 192.164 355.57 187.817 360.529Z" fill="#D94521"/>
<path d="M195.705 388.364C192.332 379.719 188.96 371.067 185.581 362.422C179.327 366.779 172.345 367.698 165.166 367.691C167.606 377.695 172.548 386.432 176.748 395.556C177.652 393.053 179.447 392.11 181.767 391.639C186.436 390.697 191.056 389.476 195.705 388.364Z" fill="#D94521"/>
<path d="M200.878 281.91C198.326 283.478 195.48 284.042 192.725 284.946C188.441 286.352 186.808 288.692 186.997 293.59C187.228 299.492 189.247 304.931 190.951 310.439C195.704 307.774 200.647 305.371 202.68 299.222C204.699 293.104 204.671 287.279 200.878 281.91Z" fill="#F6B6B8"/>
<path d="M158.814 618.259C146.749 618.244 134.69 618.228 122.625 618.213C120.788 619.912 118.348 618.723 116.343 619.804C115.46 620.283 114.303 620.167 113.427 622.315C132.965 625.552 152.084 625.482 171.251 621.774C167.486 618.529 162.964 619.256 158.814 618.259Z" fill="#F1EABE"/>
<path d="M243.055 618.321C242.985 619.688 242.207 619.866 241.155 619.866C229.966 619.835 218.784 619.851 207.595 619.804C207.23 619.804 206.866 619.341 206.501 619.086C204.433 619.495 201.047 618.931 200.899 621.318C200.745 623.759 204.103 622.84 205.877 623.234C209.032 623.937 212.285 624.424 215.503 624.439C227.232 624.478 238.975 624.972 250.683 623.713C251.594 623.613 252.498 623.35 253.396 623.118C254.868 622.74 257.385 623.358 257.266 621.11C257.168 619.248 254.56 619.518 253.087 619.256C249.778 618.676 246.399 618.599 243.055 618.321Z" fill="#F1EABE"/>
<path d="M217.992 382.987C216.821 383.891 215.391 383.721 214.101 384.115C216 393.988 221.602 401.574 226.951 409.322C226.376 402.987 224.554 397.093 221.889 391.477C220.564 388.665 219.296 385.822 217.992 382.987Z" fill="#1F396B"/>
<path d="M226.874 409.245C227.036 409.407 227.197 409.569 227.358 409.732C227.204 409.569 227.043 409.407 226.874 409.245Z" fill="#1F396B"/>
<path d="M672.329 7.72522C678.442 7.72522 678.982 8.30461 678.982 14.8556C678.982 115.523 678.982 216.191 678.982 316.859C678.982 323.41 678.435 323.997 672.329 323.997C527.593 323.997 382.856 323.997 238.119 323.997C231.922 323.997 231.466 323.471 231.466 316.472C231.466 216.06 231.466 115.655 231.466 15.2419C231.466 8.14238 231.859 7.72522 238.47 7.72522C310.603 7.72522 382.737 7.72522 454.87 7.72522C527.361 7.72522 599.845 7.72522 672.329 7.72522ZM344.423 80.4584C328.439 80.5048 312.454 80.5511 296.477 80.5897C289.613 80.6052 288.33 82.0189 288.33 89.6205C288.33 124.964 288.33 160.307 288.33 195.657C288.33 203.251 289.487 204.487 296.498 204.503C312.482 204.541 328.467 204.595 344.444 204.642C344.451 227.4 344.458 250.151 344.472 272.91C344.479 279.577 345.559 280.774 351.602 280.774C427.704 280.774 503.805 280.774 579.907 280.774C585.95 280.774 587.086 279.538 587.086 272.948C587.086 201.598 587.086 130.248 587.086 58.8895C587.086 52.1299 585.943 50.8939 579.752 50.8939C504.233 50.8939 428.72 50.8862 353.201 50.9248C351.735 50.9248 350.228 51.2261 348.798 51.3729C345.082 51.7437 344.514 54.2157 344.486 57.3831C344.423 64.838 344.423 72.2928 344.395 79.7477C344.234 79.879 344.213 80.0335 344.332 80.2112L344.423 80.4584ZM653.043 21.592C652.909 19.1586 651.493 17.8376 649.39 17.8839C647.062 17.938 645.772 19.5912 645.871 22.1328C645.962 24.5508 647.469 25.6555 649.579 25.9568C651.732 25.4856 653.183 24.2341 653.043 21.592ZM636.869 25.8641C638.972 25.7637 640.367 24.2263 640.318 21.8624C640.269 19.3285 638.825 17.7989 636.504 17.8762C634.338 17.9534 633.272 19.5912 632.957 21.8392C633.321 24.3345 634.548 25.98 636.869 25.8641ZM662.072 25.8564C664.323 25.9491 665.809 24.4813 665.823 21.8624C665.837 19.4676 664.554 17.9534 662.423 17.8762C660.137 17.7989 658.819 19.2745 658.623 21.7543C658.742 24.2881 660.004 25.7714 662.072 25.8564Z" fill="url(#paint0_linear)"/>
<path d="M346.463 80.6439C347.978 80.6748 349.499 80.7366 351.013 80.7366C408.789 80.7443 466.564 80.7366 524.347 80.7443C531.028 80.7443 532.002 81.8336 532.002 89.2576C532.002 125.002 532.002 160.739 532.002 196.484C532.002 203.205 530.803 204.503 524.613 204.503C466.599 204.503 408.592 204.503 350.579 204.51C349.183 204.51 347.788 204.611 346.386 204.665C345.741 204.657 345.089 204.65 344.444 204.65C328.46 204.603 312.475 204.549 296.498 204.51C289.487 204.495 288.33 203.259 288.33 195.665C288.33 160.322 288.33 124.979 288.33 89.6284C288.33 82.0344 289.613 80.6207 296.477 80.5976C312.461 80.5512 328.446 80.5048 344.423 80.4585C345.103 80.528 345.734 81.2233 346.463 80.6439ZM476.898 145.876C477.95 145.876 479.008 145.938 480.046 145.806C481.532 145.621 482.303 144.547 482.38 142.94C482.457 141.156 481.679 139.951 480.06 139.665C479.036 139.487 477.964 139.564 476.919 139.564C432.485 139.564 388.051 139.564 343.624 139.564C342.692 139.564 341.752 139.51 340.827 139.626C339.193 139.827 338.275 141.009 338.275 142.724C338.275 144.431 339.165 145.629 340.82 145.814C341.745 145.922 342.685 145.868 343.617 145.868C365.89 145.868 388.163 145.868 410.443 145.868C432.583 145.876 454.744 145.876 476.898 145.876ZM476.835 127.258C477.886 127.258 478.959 127.366 479.976 127.142C481.504 126.802 482.443 125.705 482.387 123.882C482.331 122.067 481.434 121.047 479.772 120.939C478.959 120.885 478.139 120.885 477.326 120.885C432.667 120.885 388.009 120.885 343.358 120.885C342.544 120.885 341.724 120.885 340.911 120.947C339.242 121.078 338.317 122.221 338.268 123.936C338.212 125.69 339.277 126.802 340.785 127.142C341.794 127.366 342.874 127.266 343.918 127.266C366.072 127.273 388.226 127.266 410.38 127.266C432.527 127.258 454.681 127.258 476.835 127.258ZM476.568 164.424C477.382 164.424 478.202 164.432 479.015 164.401C480.915 164.339 482.226 163.397 482.17 161.18C482.114 158.993 480.796 158.097 478.882 158.097C459.42 158.105 439.958 158.105 420.497 158.089C418.485 158.089 416.977 158.839 417.019 161.319C417.061 163.837 418.674 164.416 420.637 164.416C430.312 164.409 439.979 164.409 449.654 164.409C458.621 164.424 467.595 164.424 476.568 164.424Z" fill="#D94521"/>
<path d="M346.386 204.657C345.741 204.65 345.089 204.642 344.444 204.642C344.451 227.4 344.458 250.151 344.472 272.91C344.479 279.577 345.559 280.774 351.602 280.774C427.704 280.774 503.805 280.774 579.907 280.774C585.95 280.774 587.086 279.538 587.086 272.948C587.086 201.598 587.086 130.248 587.086 58.8896C587.086 52.13 585.943 50.8939 579.752 50.8939C504.233 50.8939 428.72 50.8862 353.201 50.9248C351.735 50.9248 350.228 51.2261 348.798 51.3729C345.082 51.7437 344.514 54.2158 344.486 57.3831C344.423 64.838 344.423 72.2929 344.395 79.74L344.542 79.9949L344.332 80.2035L344.423 80.4662C345.103 80.528 345.734 81.2233 346.463 80.6516C346.435 73.1967 346.386 65.7419 346.372 58.287C346.365 53.4355 346.744 53.0029 351.146 53.0029C427.598 52.9952 504.05 52.9952 580.503 53.0029C584.772 53.0029 585.123 53.4046 585.123 58.0475C585.13 129.915 585.109 201.783 585.179 273.651C585.179 277.251 584.253 278.665 580.811 278.665C504.128 278.588 427.437 278.588 350.754 278.665C347.375 278.665 346.295 277.367 346.316 273.705C346.428 250.684 346.379 227.671 346.386 204.657Z" fill="#1F396B"/>
<path d="M649.579 25.9569C651.731 25.4856 653.183 24.2341 653.042 21.5921C652.909 19.1587 651.493 17.8376 649.39 17.884C647.062 17.9381 645.772 19.5913 645.87 22.1329C645.969 24.5509 647.469 25.6556 649.579 25.9569Z" fill="#D94521"/>
<path d="M632.964 21.8392C633.321 24.3422 634.548 25.98 636.869 25.8718C638.972 25.7714 640.367 24.2341 640.318 21.8701C640.269 19.3362 638.825 17.8066 636.504 17.8839C634.338 17.9534 633.272 19.5912 632.964 21.8392Z" fill="#D94521"/>
<path d="M658.63 21.7621C658.742 24.2882 660.011 25.7792 662.072 25.8642C664.323 25.9569 665.809 24.4891 665.823 21.8702C665.837 19.4754 664.554 17.9612 662.423 17.884C660.137 17.799 658.819 19.2745 658.63 21.7621Z" fill="#D94521"/>
<path d="M344.332 80.1957L344.542 79.9872C344.542 79.9872 344.395 79.7245 344.395 79.7322C344.234 79.8636 344.213 80.0181 344.332 80.1957Z" fill="#F6B6B8"/>
<path d="M350.579 204.503C408.593 204.495 466.599 204.495 524.613 204.495C530.811 204.495 532.002 203.205 532.002 196.476C532.009 160.731 532.002 124.994 532.002 89.2498C532.002 81.8258 531.028 80.7366 524.347 80.7366C466.571 80.7366 408.796 80.7366 351.013 80.7288C349.499 80.7288 347.978 80.667 346.463 80.6361C346.435 73.1813 346.386 65.7264 346.372 58.2716C346.365 53.4201 346.744 52.9875 351.147 52.9875C427.599 52.9798 504.051 52.9798 580.503 52.9875C584.772 52.9875 585.123 53.3892 585.123 58.0321C585.13 129.9 585.109 201.768 585.179 273.636C585.179 277.236 584.253 278.65 580.811 278.65C504.128 278.572 427.437 278.572 350.754 278.65C347.375 278.65 346.295 277.352 346.316 273.69C346.428 250.676 346.379 227.663 346.386 204.65C347.781 204.603 349.184 204.503 350.579 204.503ZM564.02 241.638C564.119 230.861 556.091 222.109 546.164 222.155C536.489 222.201 528.532 230.993 528.588 241.584C528.644 252.268 536.531 260.858 546.29 260.874C556.056 260.874 563.929 252.337 564.02 241.638ZM502.831 235.141C503.875 235.141 504.955 235.218 505.965 234.987C507.5 234.631 508.425 233.434 508.397 231.696C508.369 230.12 507.437 229.03 506.091 228.667C505.095 228.397 504.009 228.451 502.964 228.451C458.509 228.443 414.054 228.443 369.599 228.443C368.898 228.443 368.197 228.412 367.496 228.459C365.498 228.582 363.997 229.61 364.046 231.92C364.088 234.005 365.498 235.025 367.362 235.126C368.295 235.172 369.227 235.141 370.16 235.141C392.215 235.141 414.264 235.141 436.32 235.141C458.495 235.149 480.663 235.149 502.831 235.141ZM502.915 254.57C503.847 254.57 504.822 254.717 505.705 254.47C507.255 254.029 508.636 252.878 508.636 251.101C508.636 249.325 507.241 248.204 505.698 247.741C504.934 247.509 504.079 247.648 503.258 247.648C485.059 247.648 466.859 247.648 448.666 247.648C448.084 247.648 447.495 247.602 446.92 247.664C444.67 247.895 443.022 249.17 443.106 251.712C443.183 254.114 444.985 254.593 446.934 254.593C456.497 254.562 466.067 254.578 475.629 254.578C484.715 254.57 493.815 254.57 502.915 254.57Z" fill="white"/>
<path d="M410.429 145.876C432.59 145.876 454.744 145.876 476.905 145.876C477.957 145.876 479.015 145.938 480.053 145.806C481.539 145.621 482.31 144.547 482.387 142.94C482.464 141.156 481.686 139.951 480.067 139.665C479.043 139.487 477.971 139.564 476.926 139.564C432.492 139.564 388.058 139.564 343.631 139.564C342.699 139.564 341.759 139.51 340.834 139.626C339.2 139.827 338.282 141.009 338.282 142.724C338.282 144.431 339.172 145.629 340.827 145.814C341.752 145.922 342.692 145.868 343.624 145.868C365.876 145.876 388.156 145.876 410.429 145.876Z" fill="white"/>
<path d="M410.373 127.258C432.527 127.258 454.681 127.258 476.835 127.258C477.886 127.258 478.959 127.366 479.976 127.142C481.504 126.802 482.443 125.705 482.387 123.882C482.331 122.067 481.434 121.047 479.772 120.939C478.959 120.885 478.139 120.885 477.326 120.885C432.667 120.885 388.009 120.885 343.358 120.885C342.544 120.885 341.724 120.885 340.911 120.946C339.242 121.078 338.317 122.221 338.268 123.936C338.212 125.69 339.277 126.802 340.785 127.142C341.794 127.366 342.874 127.266 343.918 127.266C366.065 127.258 388.219 127.258 410.373 127.258Z" fill="white"/>
<path d="M449.647 164.416C458.621 164.416 467.595 164.416 476.569 164.416C477.382 164.416 478.202 164.424 479.015 164.393C480.915 164.331 482.226 163.389 482.17 161.172C482.114 158.986 480.796 158.089 478.882 158.089C459.42 158.097 439.959 158.097 420.497 158.082C418.485 158.082 416.977 158.831 417.019 161.311C417.061 163.829 418.674 164.409 420.637 164.409C430.305 164.409 439.973 164.416 449.647 164.416Z" fill="white"/>
<path d="M546.29 260.866C556.056 260.874 563.929 252.337 564.02 241.638C564.118 230.861 556.091 222.108 546.164 222.155C536.489 222.201 528.532 230.993 528.588 241.584C528.644 252.26 536.531 260.858 546.29 260.866Z" fill="#D94521"/>
<path d="M436.327 235.149C458.495 235.149 480.663 235.149 502.838 235.141C503.882 235.141 504.962 235.218 505.971 234.986C507.507 234.631 508.432 233.434 508.404 231.696C508.376 230.12 507.444 229.03 506.098 228.667C505.102 228.397 504.015 228.451 502.971 228.451C458.516 228.443 414.061 228.443 369.606 228.443C368.905 228.443 368.204 228.412 367.502 228.459C365.504 228.582 364.004 229.61 364.053 231.92C364.095 234.005 365.504 235.025 367.369 235.125C368.302 235.172 369.234 235.141 370.167 235.141C392.222 235.149 414.271 235.149 436.327 235.149Z" fill="#D94521"/>
<path d="M475.622 254.57C484.722 254.57 493.822 254.57 502.922 254.57C503.854 254.57 504.829 254.717 505.712 254.47C507.261 254.029 508.643 252.878 508.643 251.101C508.643 249.325 507.247 248.204 505.705 247.741C504.941 247.509 504.086 247.648 503.265 247.648C485.065 247.648 466.866 247.648 448.673 247.648C448.091 247.648 447.502 247.602 446.927 247.664C444.677 247.895 443.029 249.17 443.113 251.712C443.19 254.114 444.992 254.593 446.941 254.593C456.49 254.555 466.052 254.57 475.622 254.57Z" fill="#F1EABE"/>
</g>
<defs>
<linearGradient id="paint0_linear" x1="231.47" y1="165.86" x2="678.988" y2="165.86" gradientUnits="userSpaceOnUse">
<stop offset="0.00558659" stop-color="#8E434A"/>
<stop offset="1" stop-color="#754058"/>
</linearGradient>
<clipPath id="clip0">
<rect width="686" height="691" fill="white"/>
</clipPath>
</defs>
</svg>
