<svg width="1075" height="585" viewBox="0 0 1075 585" fill="none" xmlns="http://www.w3.org/2000/svg">
<path d="M540.64 584.23C831.97 584.23 1068.14 568.596 1068.14 549.31C1068.14 530.024 831.97 514.39 540.64 514.39C249.31 514.39 13.1401 530.024 13.1401 549.31C13.1401 568.596 249.31 584.23 540.64 584.23Z" fill="#F1EABE"/>
<path d="M520.43 167.01C434.49 167.01 372.78 222.15 372.78 350.81C372.78 496.62 434.49 535.22 520.43 535.22C606.37 535.22 671.76 492.95 671.76 350.81C671.75 198.87 606.37 167.01 520.43 167.01ZM520.99 486.82C461.46 486.82 430.36 451.9 430.36 350.9C430.36 261.79 462.73 214.8 522.26 214.8C581.79 214.8 614.16 245.67 614.16 350.9C614.16 449.35 580.52 486.82 520.99 486.82Z" fill="#1F386B"/>
<path d="M321.31 433.52H285.78V328.88C285.78 317.31 276.4 307.92 264.82 307.92H256.49C244.92 307.92 235.53 317.3 235.53 328.88V433.52H135.31C128.7 433.52 123.35 428.16 123.35 421.56C123.35 419.61 123.83 417.69 124.74 415.97L230.82 215.19C236.23 204.96 232.31 192.28 222.08 186.87C221.8 186.72 221.52 186.58 221.24 186.45L214.98 183.49C204.88 178.72 192.82 182.71 187.55 192.56L58.1603 434.59C55.9603 438.71 54.8003 443.31 54.8003 447.99C54.8003 463.68 67.5203 476.41 83.2203 476.41H235.54V542.58C235.54 556.45 246.79 567.7 260.66 567.7C274.53 567.7 285.78 556.45 285.78 542.58V476.4H321.31C333.15 476.4 342.75 466.8 342.75 454.96C342.75 443.12 333.15 433.52 321.31 433.52Z" fill="#D93635"/>
<path d="M979.31 433.52H943.78V328.88C943.78 317.31 934.4 307.92 922.82 307.92H914.49C902.92 307.92 893.53 317.3 893.53 328.88V433.52H793.3C786.69 433.52 781.34 428.16 781.34 421.56C781.34 419.61 781.82 417.69 782.73 415.97L888.81 215.19C894.22 204.96 890.3 192.28 880.07 186.87C879.79 186.72 879.51 186.58 879.23 186.45L872.97 183.49C862.87 178.72 850.81 182.71 845.54 192.56L716.16 434.59C713.96 438.71 712.8 443.31 712.8 447.99C712.8 463.68 725.52 476.41 741.22 476.41H893.54V542.58C893.54 556.45 904.79 567.7 918.66 567.7C932.53 567.7 943.78 556.45 943.78 542.58V476.4H979.31C991.15 476.4 1000.75 466.8 1000.75 454.96C1000.75 443.12 991.15 433.52 979.31 433.52Z" fill="#D93635"/>
<path d="M331.11 421.26H295.58V316.62C295.58 305.05 286.2 295.66 274.62 295.66H266.29C254.72 295.66 245.33 305.04 245.33 316.62V421.26H145.11C138.5 421.26 133.15 415.9 133.15 409.3C133.15 407.35 133.63 405.43 134.54 403.71L240.62 202.93C246.03 192.7 242.11 180.02 231.88 174.61C231.6 174.46 231.32 174.32 231.04 174.19L224.78 171.23C214.68 166.46 202.62 170.45 197.35 180.3L67.9601 422.34C65.7601 426.46 64.6001 431.06 64.6001 435.74C64.6001 451.43 77.3201 464.16 93.0201 464.16H245.34V530.33C245.34 544.2 256.59 555.45 270.46 555.45C284.33 555.45 295.58 544.2 295.58 530.33V464.16H331.11C342.95 464.16 352.55 454.56 352.55 442.72C352.56 430.86 342.96 421.26 331.11 421.26Z" stroke="#3F3C55" stroke-miterlimit="10"/>
<path d="M997.69 421.26H962.16V316.62C962.16 305.05 952.78 295.66 941.2 295.66H932.87C921.3 295.66 911.91 305.04 911.91 316.62V421.26H811.68C805.07 421.26 799.72 415.9 799.72 409.3C799.72 407.35 800.2 405.43 801.11 403.71L907.19 202.93C912.6 192.7 908.68 180.02 898.45 174.61C898.17 174.46 897.89 174.32 897.61 174.19L891.35 171.23C881.25 166.46 869.19 170.45 863.92 180.3L734.54 422.34C732.34 426.46 731.18 431.06 731.18 435.74C731.18 451.43 743.9 464.16 759.6 464.16H911.92V530.33C911.92 544.2 923.17 555.45 937.04 555.45C950.91 555.45 962.16 544.2 962.16 530.33V464.16H997.69C1009.53 464.16 1019.13 454.56 1019.13 442.72C1019.13 430.86 1009.53 421.26 997.69 421.26Z" stroke="#3F3C55" stroke-miterlimit="10"/>
<path d="M540.03 155.98C454.09 155.98 392.38 211.12 392.38 339.78C392.38 485.59 454.09 524.19 540.03 524.19C625.97 524.19 691.36 481.92 691.36 339.78C691.36 187.84 625.97 155.98 540.03 155.98ZM540.6 475.79C481.07 475.79 449.97 440.87 449.97 339.87C449.97 250.76 482.34 203.77 541.87 203.77C601.4 203.77 633.77 234.64 633.77 339.87C633.77 438.32 600.12 475.79 540.6 475.79Z" stroke="#3F3C55" stroke-miterlimit="10"/>
<path d="M471.14 31.1501C478.265 31.1501 484.04 25.3746 484.04 18.2501C484.04 11.1256 478.265 5.3501 471.14 5.3501C464.016 5.3501 458.24 11.1256 458.24 18.2501C458.24 25.3746 464.016 31.1501 471.14 31.1501Z" fill="#1F386B"/>
<path d="M502.61 93.76C522.598 93.76 538.8 72.7711 538.8 46.88C538.8 20.9889 522.598 0 502.61 0C482.623 0 466.42 20.9889 466.42 46.88C466.42 72.7711 482.623 93.76 502.61 93.76Z" fill="#1F386B"/>
<path opacity="0.1" d="M502.61 79.6101C484.48 79.6101 469.47 62.3401 466.83 39.8101C466.56 42.1601 466.42 44.5201 466.42 46.8901C466.42 72.7801 482.62 93.7701 502.61 93.7701C522.6 93.7701 538.8 72.7801 538.8 46.8901C538.8 44.5201 538.66 42.1601 538.39 39.8101C535.75 62.3401 520.73 79.6101 502.61 79.6101Z" fill="#010202"/>
<path d="M576.24 184.19C575.46 187.38 572.11 189.94 568.4 191.73C560.6 195.49 550.97 196.61 541.64 196.98C539.26 197.12 536.87 197.08 534.5 196.85C529.9 196.4 525.58 194.42 522.25 191.22C521.47 190.71 521.25 189.67 521.76 188.89C521.9 188.68 522.08 188.5 522.29 188.37C527.26 182.91 535.55 179.56 543.91 177.15C550.24 175.32 561.29 170.59 568.2 171.23C574.89 171.85 577.22 180.16 576.24 184.19Z" fill="#3F3C55"/>
<path opacity="0.1" d="M576.24 184.19C575.46 187.38 572.11 189.94 568.4 191.73C560.6 195.49 550.97 196.61 541.64 196.98C539.26 197.12 536.87 197.08 534.5 196.85C529.9 196.4 525.58 194.42 522.25 191.22C521.47 190.71 521.25 189.67 521.76 188.89C521.9 188.68 522.08 188.5 522.29 188.37C527.26 182.91 535.55 179.56 543.91 177.15C550.24 175.32 561.29 170.59 568.2 171.23C574.89 171.85 577.22 180.16 576.24 184.19Z" fill="#010202"/>
<path d="M477.04 160.32C474.66 164.99 474.23 170.41 475.84 175.39C477.48 180.34 480.55 184.69 484.67 187.89C494.76 195.98 508.66 197.1 521.59 196.98C532.93 196.88 544.25 196.11 555.5 194.66C559.27 194.33 562.97 193.47 566.5 192.11C570.72 190.28 574.43 186.93 575.94 182.58C577.45 178.23 576.38 172.91 572.81 170.01C569.67 167.46 565.35 167.11 561.31 166.87L538.22 165.48C540.5 163.17 543.54 161.87 546.32 160.19C550.01 157.96 552.45 154.23 555.13 150.86C559.26 145.93 563.75 141.31 568.57 137.04C569.32 141.35 572.05 144.89 575.26 147.86C578.47 150.83 582.17 153.23 585.5 156.06C593.58 162.92 599.4 172.23 607.89 178.56C613.73 177.02 619.2 174.3 623.94 170.55L620.64 164.57C620.36 163.95 619.94 163.42 619.4 163.02C618.47 162.44 617.26 162.74 616.18 162.58C613.28 162.15 612.01 158.8 610.87 156.09C607.75 148.67 601.76 142.91 596.65 136.69C592.88 132.1 589.53 127.17 586.65 121.97C584.93 118.87 583.36 115.64 581.03 112.97C578.7 110.3 575.44 108.2 571.89 108.19C568.76 108.18 565.87 109.77 563.18 111.37C554.98 116.24 547.09 121.62 539.55 127.47C535.61 130.53 531.69 133.77 527.06 135.64C525.11 136.43 523.06 136.97 521.19 137.93C517.92 139.61 515.43 142.46 512.76 144.99C503.22 154.01 490.16 159.85 477.04 160.32Z" fill="#D93635"/>
<path d="M525.32 96.1C525.21 98.86 524.63 101.58 523.59 104.13C522.52 106.71 520.44 108.73 517.82 109.7C515.98 110.19 514.06 110.25 512.2 109.88C510.58 109.71 509.01 109.18 507.62 108.32C505.46 106.83 504.38 104.18 503.98 101.58C503.59 98.98 503.76 96.33 503.51 93.72C503.26 91.61 502.86 89.52 502.31 87.46C502.14 86.78 501.97 86.1 501.8 85.42C501.63 84.74 501.47 84.06 501.32 83.38C501.18 82.74 501.05 82.1 500.94 81.45C500.85 80.91 500.77 80.36 500.71 79.81C500.65 78.18 500.38 76.56 499.9 75C499.45 73.99 498.88 73.03 498.21 72.15C497.92 71.74 497.65 71.33 497.39 70.91C496.65 69.81 496.31 68.49 496.42 67.16C496.45 66.96 496.5 66.75 496.57 66.56C496.6 66.48 496.62 66.41 496.66 66.34C497.23 66.18 497.7 65.75 497.89 65.19C498 64.59 497.95 63.98 497.74 63.41C497.5 62.61 497.18 61.85 496.78 61.12C496.52 60.64 495.62 59.78 495.61 59.23C495.6 58.13 497.75 57.24 498.62 56.81C501.28 55.48 504.25 54.88 507.22 55.07C509.12 55.2 511.19 55.78 512.24 57.38C513.18 58.82 513.06 60.68 513.46 62.35C513.5 62.59 513.61 62.82 513.76 63.01C513.97 63.2 514.22 63.32 514.5 63.35C514.97 63.44 515.44 63.46 515.92 63.41C516.04 63.4 516.17 63.38 516.29 63.36C517.03 63.22 517.72 62.92 518.32 62.48C518.71 62.38 519.1 62.29 519.5 62.23C519.52 62.23 519.53 62.23 519.55 62.22C521.13 67.19 521.33 72.53 522.62 77.59C523.26 80.11 524.17 82.6 524.3 85.19C524.31 85.3 524.31 85.42 524.32 85.54C524.34 86.37 524.27 87.21 524.31 88.04C524.32 88.41 524.36 88.79 524.44 89.15C524.58 89.74 524.76 90.32 524.97 90.89L524.98 90.92C525.04 91.1 525.1 91.29 525.14 91.47C525.17 91.61 525.21 91.74 525.23 91.87V91.88C525.45 93.28 525.48 94.7 525.32 96.1Z" fill="#F5BBBB"/>
<path d="M503.24 63.5699C513.496 63.5699 521.81 55.2559 521.81 44.9999C521.81 34.744 513.496 26.4299 503.24 26.4299C492.984 26.4299 484.67 34.744 484.67 44.9999C484.67 55.2559 492.984 63.5699 503.24 63.5699Z" fill="#F5BBBB"/>
<path d="M621.1 146.15C620.56 141.08 618.76 136.24 615.86 132.05C616.34 134.91 616.82 137.78 617.31 140.64C616.08 141 614.76 140.59 613.94 139.6C613.16 138.62 612.56 137.51 612.17 136.32C610.06 131.08 607.3 126.13 603.96 121.58C592.14 120.6 580.46 115.7 570.06 109.98C559.66 104.27 549.93 97.4301 539.68 91.4801C537.9 90.4101 536.05 89.4601 534.14 88.6501C530.93 87.3601 527.33 86.7001 524.28 85.1801C524.08 85.0801 523.87 84.9701 523.67 84.8601C522.98 84.4901 522.33 84.0501 521.73 83.5501C521.4 83.2801 521.09 83.0001 520.8 82.6901C519.28 80.9201 518.08 78.9101 517.24 76.7401C515.61 73.1301 515.02 68.7701 513.39 65.1601C514.14 64.4601 514.98 63.8701 515.89 63.3901C516.02 63.3201 516.15 63.2501 516.29 63.1901C516.93 62.8901 517.61 62.6401 518.29 62.4601C518.68 62.3601 519.07 62.2701 519.47 62.2101C519.49 62.2101 519.5 62.2101 519.52 62.2001C521.36 61.9001 523.24 62.0501 525.01 62.6301C527.6 63.5001 529.78 65.2501 531.95 66.9001C535.48 69.3901 538.87 72.0801 542.1 74.9501C543.89 76.6701 545.53 78.5601 547.46 80.1201C549.06 81.3601 550.75 82.4801 552.52 83.4701C562.96 89.6901 573.4 95.9001 583.84 102.12C587.37 104.23 590.91 106.33 594.37 108.56C599.62 111.95 604.68 115.61 609.73 119.28C612.71 121.44 615.69 123.6 618.67 125.76C619.65 126.38 620.5 127.18 621.2 128.1C621.82 129.15 622.2 130.32 622.32 131.53C623.08 136.44 622.66 141.45 621.1 146.15Z" fill="#F5BBBB"/>
<path d="M529.92 110.06C528.67 115.68 522.99 119.07 520.02 124.01C516.33 130.13 517.84 137.25 519.22 144.26C516.69 146.44 514.16 148.62 511.63 150.8C510.23 152 508.84 153.2 507.33 154.26C505.14 155.73 502.84 157.05 500.47 158.2C498.23 159.35 495.99 160.5 493.75 161.66C491.67 162.83 489.46 163.77 487.17 164.45C482.76 165.58 478.07 164.79 473.7 163.48C473.18 163.34 472.69 163.14 472.23 162.88C471.96 162.72 471.72 162.5 471.53 162.25C471.1 161.48 470.94 160.58 471.09 159.71C471.53 152.36 473.33 145.16 475.12 138.02C476.08 133.73 477.36 129.53 478.97 125.44C480.54 121.94 482.35 118.55 484.39 115.29C486.63 111.19 489.29 107.33 492.32 103.78C493.79 102.41 495.04 100.81 496 99.04C497.12 96.49 496.69 93.57 496.91 90.79C497.08 88.7 497.64 86.67 498.54 84.78C499.02 83.76 499.61 82.8 500.28 81.9C500.59 82.61 500.89 83.32 501.2 84.03C501.4 84.5 501.6 84.96 501.8 85.42C502.06 86.02 502.31 86.61 502.57 87.21C503.3 88.92 504.04 90.62 504.77 92.32C505.56 94.47 506.69 96.47 508.11 98.26C510.18 101.19 514.24 101.89 517.17 99.81C518.05 99.19 518.76 98.36 519.23 97.4C520.29 95.52 521.05 93.49 521.5 91.39C522.12 88.82 522.21 86.16 521.75 83.55C520.99 78.54 518.86 73.42 517.31 68.77C516.68 67.22 516.32 65.57 516.23 63.9C516.23 63.71 516.25 63.52 516.29 63.34C516.3 63.29 516.31 63.24 516.32 63.2C516.96 62.9 517.64 62.65 518.32 62.47C518.71 62.37 519.1 62.28 519.5 62.22C520.86 69.6 522.23 76.97 523.59 84.35C523.62 84.52 523.66 84.7 523.69 84.87C523.89 85.93 524.08 86.98 524.3 88.04C524.5 89 524.71 89.95 524.95 90.9L524.96 90.93C525.04 91.25 525.13 91.57 525.21 91.89V91.9C525.45 92.77 525.72 93.63 526.03 94.48C527.88 99.59 531.11 104.74 529.92 110.06Z" fill="#744058"/>
<path d="M605.27 188.99C605.21 190.07 605.42 191.15 605.88 192.13C607.04 194.25 609.83 194.74 612.24 194.93C626.33 196.09 640.51 195.66 654.51 193.64C655.27 193.59 656.01 193.36 656.66 192.97C658.65 191.57 657.42 188.17 655.25 187.09C653.08 186.01 650.5 186.26 648.11 185.79C645.74 185.19 643.49 184.22 641.43 182.89C636.6 180.11 631.83 177.22 627.14 174.2C624.35 172.41 621.05 170.49 617.9 171.55C609.38 174.46 605.21 179.8 605.27 188.99Z" fill="#3F3C55"/>
<path d="M501.38 82.9899C501.36 83.1299 501.34 83.2499 501.31 83.3799C501.28 83.5899 501.23 83.8099 501.19 84.0299C500.8 86.0299 500.32 88.0199 499.77 89.9899C498.26 95.4499 496.24 100.82 494.23 106.11C488.84 120.3 483.45 134.49 478.07 148.69C476.71 152.26 475.35 155.84 473.81 159.34C473.29 160.51 472.76 161.68 472.23 162.87C470.34 167.13 468.52 171.52 467.91 176.05C467.35 179.03 467.28 182.09 467.72 185.09C468.32 188.06 470.13 190.96 472.95 192.06C474.33 192.6 476.3 193.32 475.92 194.75C475.72 195.54 474.82 195.92 474.02 196.05C471.87 196.39 469.69 195.76 468.05 194.33C466.54 192.99 465.38 190.91 463.38 190.69C461.99 190.54 460.71 191.37 459.44 191.95C454.25 194.32 448.21 192.66 442.77 190.98C443.2 188.77 445.41 187.32 447.61 186.88C449.81 186.44 452.08 186.75 454.33 186.69C455.05 186.73 455.76 186.54 456.37 186.16C456.92 185.66 457.3 185 457.47 184.28C458.92 180 459.99 175.6 460.68 171.13C461.4 166.46 461.71 161.72 462.74 157.11C463.54 153.51 464.78 150.03 465.85 146.5C467.91 139.23 469.6 131.86 470.91 124.42C471.57 121.33 472.05 118.2 472.34 115.05C472.52 112.44 472.43 109.81 472.69 107.21C473.11 103.82 473.82 100.48 474.8 97.2099C475.76 93.6399 476.72 90.0799 477.69 86.5199C479.12 81.2499 480.64 75.7699 484.26 71.6799C486.8 68.7599 490.43 67.0299 494.29 66.8899C495.01 66.8899 495.72 66.9699 496.42 67.1199C496.54 67.1499 496.65 67.1799 496.77 67.2099C497.53 67.4099 498.26 67.7099 498.94 68.1099C500.05 67.3999 500.62 67.6499 501.36 68.7399C502.01 69.8999 502.31 71.2099 502.24 72.5299C502.3 76.0699 502.01 79.5499 501.38 82.9899Z" fill="#F5BBBB"/>
<path d="M502.61 87.1601L502.56 87.2101L502.31 87.4601L499.78 89.9901L498.54 84.7801L494.29 66.9301C495.01 66.9301 495.72 67.0101 496.42 67.1601C496.45 66.9601 496.5 66.7501 496.57 66.5601L496.77 67.2501L498.21 72.1501L500.94 81.4601L501.39 82.9901L502.61 87.1601Z" fill="#744058"/>
<path d="M518.66 30.2001C518.66 33.5401 517.32 36.7401 514.96 39.1001C514.54 39.5201 514.08 39.9201 513.6 40.2801C511.43 41.9201 508.78 42.8001 506.06 42.8001H490.96C484.01 42.7901 478.38 37.1401 478.39 30.1901C478.4 23.2501 484.02 17.6301 490.96 17.6201H506.06C513.01 17.6401 518.64 23.2601 518.66 30.2001Z" fill="#1F386B"/>
<path d="M532.81 31.1501C539.935 31.1501 545.71 25.3746 545.71 18.2501C545.71 11.1256 539.935 5.3501 532.81 5.3501C525.686 5.3501 519.91 11.1256 519.91 18.2501C519.91 25.3746 525.686 31.1501 532.81 31.1501Z" fill="#1F386B"/>
<path opacity="0.1" d="M532.5 5.3501C532.34 5.3501 532.18 5.3601 532.03 5.3601C539.15 5.6201 544.71 11.6001 544.45 18.7201C544.2 25.4801 538.78 30.9001 532.03 31.1401C532.19 31.1501 532.34 31.1501 532.5 31.1501C539.63 31.1501 545.4 25.3701 545.4 18.2501C545.4 11.1301 539.62 5.3501 532.5 5.3501Z" fill="#010202"/>
<path opacity="0.1" d="M471.14 5.3501C471.3 5.3501 471.46 5.3601 471.61 5.3601C464.49 5.6201 458.93 11.6001 459.19 18.7201C459.44 25.4801 464.86 30.9001 471.61 31.1401C471.45 31.1501 471.3 31.1501 471.14 31.1501C464.01 31.1401 458.24 25.3601 458.25 18.2401C458.25 11.1201 464.02 5.3501 471.14 5.3501Z" fill="#010202"/>
<path opacity="0.1" d="M513.6 40.27C511.43 41.91 508.78 42.79 506.06 42.79H490.96C488.24 42.79 485.6 41.9 483.42 40.27H513.6Z" fill="#010202"/>
<path d="M611.09 133.76C611.09 133.76 614.34 143.13 617.32 140.64L614.95 128.39L611.09 133.76Z" fill="#F5BBBB"/>
<path d="M1006.86 419.55C1017.66 423.48 1029.6 417.9 1033.53 407.1C1037.46 396.3 1031.88 384.36 1021.08 380.43C1017.41 379.1 1013.45 378.82 1009.63 379.63L1010.15 390.34L1005.08 381.16C1000.11 383.5 996.26 387.71 994.4 392.88C993.74 394.69 993.33 396.59 993.2 398.51C992.55 407.79 998.12 416.38 1006.86 419.55Z" fill="#744058"/>
<path d="M1031.94 543.79C1030.15 534.68 1037.9 526.6 1045.56 521.35C1053.22 516.1 1062.16 510.94 1064.78 502.03C1068.54 489.23 1057.35 477.5 1048.64 467.39C1042.18 459.89 1036.63 451.64 1032.12 442.83C1030.31 439.3 1028.64 435.6 1028.17 431.66C1027.48 425.98 1029.31 420.34 1031.14 414.92C1037.26 396.89 1043.8 379 1050.77 361.27" stroke="#3F3C55" stroke-miterlimit="10"/>
<path d="M1007.72 416.79C1018.52 420.72 1030.46 415.14 1034.39 404.34C1038.32 393.54 1032.74 381.6 1021.94 377.67C1018.27 376.34 1014.31 376.06 1010.49 376.87L1011.01 387.58L1005.94 378.4C1000.97 380.74 997.12 384.95 995.26 390.12C994.6 391.93 994.19 393.83 994.06 395.75C993.41 405.03 998.98 413.62 1007.72 416.79Z" stroke="#3F3C55" stroke-miterlimit="10"/>
<path d="M1029.4 357.59C1031.82 350.92 1037.46 345.95 1044.38 344.39L1046.09 354.57L1049.27 343.87C1060.76 344.04 1069.94 353.49 1069.77 364.99C1069.6 376.48 1060.15 385.66 1048.65 385.49C1037.16 385.32 1027.98 375.87 1028.15 364.37C1028.19 362.06 1028.61 359.77 1029.4 357.59Z" fill="#744058"/>
<path d="M1030.54 353.91C1032.96 347.24 1038.6 342.27 1045.52 340.71L1047.23 350.89L1050.41 340.19C1061.9 340.36 1071.08 349.81 1070.91 361.31C1070.74 372.8 1061.29 381.98 1049.79 381.81C1038.3 381.64 1029.12 372.19 1029.29 360.69C1029.33 358.38 1029.75 356.09 1030.54 353.91Z" stroke="#3F3C55" stroke-miterlimit="10"/>
<path d="M1044.99 467.6C1055.79 471.52 1067.73 465.94 1071.65 455.13C1074.95 446.02 1071.54 435.84 1063.41 430.57L1060.97 438.79L1059.24 428.49C1059.22 428.48 1059.21 428.48 1059.19 428.47C1048.39 424.55 1036.45 430.12 1032.53 440.93C1028.61 451.73 1034.18 463.67 1044.99 467.59C1044.98 467.6 1044.99 467.6 1044.99 467.6Z" fill="#744058"/>
<path d="M1045.98 463.88C1056.78 467.8 1068.72 462.22 1072.64 451.41C1075.94 442.3 1072.53 432.12 1064.4 426.85L1061.96 435.07L1060.23 424.77C1060.21 424.76 1060.2 424.76 1060.18 424.75C1049.38 420.83 1037.44 426.4 1033.52 437.21C1029.6 448.01 1035.17 459.95 1045.98 463.87C1045.97 463.88 1045.98 463.88 1045.98 463.88Z" stroke="#3F3C55" stroke-miterlimit="10"/>
<path d="M1023.32 502.17C1025.31 513.48 1036.09 521.05 1047.41 519.06C1058.73 517.07 1066.29 506.29 1064.3 494.97C1062.31 483.66 1051.53 476.09 1040.21 478.08C1035.1 478.98 1030.5 481.76 1027.33 485.87L1036.6 499.83L1023.93 492.42C1022.95 495.57 1022.74 498.92 1023.32 502.17Z" fill="#744058"/>
<path d="M1024.18 499.41C1026.17 510.72 1036.95 518.29 1048.27 516.3C1059.59 514.31 1067.15 503.53 1065.16 492.21C1063.17 480.9 1052.39 473.33 1041.07 475.32C1035.96 476.22 1031.36 479 1028.19 483.11L1037.46 497.07L1024.79 489.66C1023.81 492.81 1023.6 496.16 1024.18 499.41Z" stroke="#3F3C55" stroke-miterlimit="10"/>
<path d="M9.01022 470.25C16.1102 472.83 23.9502 469.17 26.5302 462.07C29.1102 454.97 25.4502 447.13 18.3502 444.55C15.9402 443.67 13.3302 443.49 10.8302 444.03L11.1702 451.07L7.84022 445.04C4.57022 446.58 2.05022 449.35 0.820215 452.74C0.380215 453.93 0.120215 455.17 0.0302155 456.44C-0.399785 462.52 3.27022 468.16 9.01022 470.25Z" fill="#744058"/>
<path d="M25.48 551.88C24.3 545.89 29.4 540.59 34.43 537.14C39.46 533.69 45.34 530.3 47.06 524.45C49.53 516.04 42.18 508.33 36.46 501.69C32.22 496.76 28.57 491.34 25.6 485.56C24.31 483.29 23.43 480.8 23 478.22C22.55 474.49 23.75 470.78 24.95 467.22C28.97 455.37 33.27 443.62 37.85 431.97" stroke="#3F3C55" stroke-miterlimit="10"/>
<path d="M9.57032 468.44C16.6703 471.02 24.5103 467.36 27.0903 460.26C29.6703 453.16 26.0103 445.32 18.9103 442.74C16.5003 441.86 13.8903 441.68 11.3903 442.22L11.7303 449.26L8.40032 443.23C5.13032 444.77 2.61032 447.54 1.38032 450.93C0.940322 452.12 0.680322 453.36 0.590322 454.63C0.170322 460.71 3.83032 466.35 9.57032 468.44Z" stroke="#3F3C55" stroke-miterlimit="10"/>
<path d="M23.8102 429.54C25.4002 425.16 29.1103 421.89 33.6503 420.87L34.7802 427.56L36.8702 420.53C44.4202 420.64 50.4502 426.85 50.3402 434.4C50.2302 441.95 44.0203 447.98 36.4703 447.87C28.9202 447.76 22.8802 441.55 22.9902 434C23.0202 432.48 23.2902 430.97 23.8102 429.54Z" fill="#744058"/>
<path d="M24.56 427.12C26.15 422.74 29.86 419.47 34.4 418.45L35.53 425.14L37.62 418.11C45.17 418.22 51.2 424.43 51.09 431.98C50.98 439.53 44.77 445.56 37.22 445.45C29.67 445.34 23.64 439.13 23.75 431.58C23.77 430.06 24.04 428.55 24.56 427.12Z" stroke="#3F3C55" stroke-miterlimit="10"/>
<path d="M34.0601 501.82C41.1601 504.39 49.0001 500.73 51.5801 493.63C53.7501 487.65 51.5101 480.96 46.1701 477.5L44.5701 482.9L43.4301 476.13C43.4201 476.12 43.4101 476.12 43.4001 476.12C36.3001 473.53 28.4601 477.19 25.8701 484.28C23.2801 491.38 26.9401 499.22 34.0301 501.81C34.0301 501.81 34.0401 501.82 34.0601 501.82Z" fill="#744058"/>
<path d="M34.7104 499.37C41.8104 501.94 49.6504 498.28 52.2304 491.18C54.4004 485.2 52.1604 478.51 46.8204 475.05L45.2204 480.45L44.0804 473.68C44.0704 473.67 44.0604 473.67 44.0504 473.67C36.9504 471.09 29.1104 474.76 26.5304 481.86C23.9404 488.96 27.6104 496.8 34.7104 499.37Z" stroke="#3F3C55" stroke-miterlimit="10"/>
<path d="M19.8201 524.53C21.1301 531.96 28.2101 536.93 35.6501 535.62C43.0801 534.31 48.0501 527.23 46.7401 519.79C45.4301 512.36 38.3501 507.39 30.9101 508.7C27.5501 509.29 24.5301 511.12 22.4501 513.82L28.5401 522.99L20.2201 518.12C19.5801 520.2 19.4401 522.39 19.8201 524.53Z" fill="#1F386B"/>
<path d="M20.3802 522.72C21.6902 530.15 28.7702 535.12 36.2102 533.81C43.6402 532.5 48.6102 525.42 47.3002 517.98C45.9902 510.55 38.9102 505.58 31.4702 506.89C28.1102 507.48 25.0902 509.31 23.0102 512.01L29.1002 521.18L20.7802 516.31C20.1402 518.38 20.0002 520.58 20.3802 522.72Z" fill="#744058" stroke="#3F3C55" stroke-miterlimit="10"/>
<path d="M480.95 341.12C490.339 341.12 497.95 331.27 497.95 319.12C497.95 306.97 490.339 297.12 480.95 297.12C471.561 297.12 463.95 306.97 463.95 319.12C463.95 331.27 471.561 341.12 480.95 341.12Z" fill="#1F386B"/>
<path d="M573.45 341.62C582.839 341.62 590.45 331.77 590.45 319.62C590.45 307.47 582.839 297.62 573.45 297.62C564.061 297.62 556.45 307.47 556.45 319.62C556.45 331.77 564.061 341.62 573.45 341.62Z" fill="#1F386B"/>
<path d="M560.45 384.62C560.45 394.56 546.57 402.62 529.45 402.62C512.33 402.62 498.45 394.56 498.45 384.62C498.45 376.01 508.86 368.81 522.77 367.05C524.98 366.76 527.22 366.61 529.45 366.62C533.19 366.61 536.93 367.01 540.58 367.82C552.2 370.41 560.45 376.96 560.45 384.62Z" fill="#1F386B"/>
<path d="M484.95 336.12C494.339 336.12 501.95 326.27 501.95 314.12C501.95 301.97 494.339 292.12 484.95 292.12C475.561 292.12 467.95 301.97 467.95 314.12C467.95 326.27 475.561 336.12 484.95 336.12Z" stroke="#3F3C55" stroke-miterlimit="10"/>
<path d="M577.45 336.62C586.839 336.62 594.45 326.77 594.45 314.62C594.45 302.47 586.839 292.62 577.45 292.62C568.061 292.62 560.45 302.47 560.45 314.62C560.45 326.77 568.061 336.62 577.45 336.62Z" stroke="#3F3C55" stroke-miterlimit="10"/>
<path d="M533.45 397.62C550.571 397.62 564.45 389.561 564.45 379.62C564.45 369.679 550.571 361.62 533.45 361.62C516.329 361.62 502.45 369.679 502.45 379.62C502.45 389.561 516.329 397.62 533.45 397.62Z" stroke="#3F3C55" stroke-miterlimit="10"/>
<path d="M540.95 369.32C540.96 370.58 540.49 371.79 539.63 372.71C538.81 373.6 537.66 374.11 536.45 374.12H526.45C523.88 374.03 521.87 371.89 521.95 369.32C521.94 368.35 522.23 367.39 522.77 366.58C524.98 366.27 527.22 366.12 529.45 366.12C533.2 366.11 536.93 366.54 540.58 367.4C540.82 368.01 540.95 368.66 540.95 369.32Z" fill="white"/>
<path d="M484.95 313.12C487.712 313.12 489.95 310.882 489.95 308.12C489.95 305.359 487.712 303.12 484.95 303.12C482.189 303.12 479.95 305.359 479.95 308.12C479.95 310.882 482.189 313.12 484.95 313.12Z" fill="white"/>
<path d="M577.95 313.12C580.712 313.12 582.95 310.882 582.95 308.12C582.95 305.359 580.712 303.12 577.95 303.12C575.189 303.12 572.95 305.359 572.95 308.12C572.95 310.882 575.189 313.12 577.95 313.12Z" fill="white"/>
<path opacity="0.3" d="M582.95 360.12C585.712 360.12 587.95 357.882 587.95 355.12C587.95 352.359 585.712 350.12 582.95 350.12C580.189 350.12 577.95 352.359 577.95 355.12C577.95 357.882 580.189 360.12 582.95 360.12Z" fill="#744058"/>
<path opacity="0.3" d="M460.95 360.12C463.712 360.12 465.95 357.882 465.95 355.12C465.95 352.359 463.712 350.12 460.95 350.12C458.189 350.12 455.95 352.359 455.95 355.12C455.95 357.882 458.189 360.12 460.95 360.12Z" fill="#744058"/>
</svg>
