<svg width="507" height="395" viewBox="0 0 507 395" fill="none" xmlns="http://www.w3.org/2000/svg">
<path d="M127.448 357.894L95.1431 357.104C95.1431 357.104 20.6301 327.969 25.8504 217.447C31.0707 106.926 132.19 30.7863 195.378 27.1325C272.468 22.6769 255.009 67.3396 339.751 74.6609C379.368 78.0856 429.508 96.3247 461.249 152.92C484.888 195.071 502.911 254.461 426.614 357.902L127.448 357.894Z" fill="#E2F2F1"/>
<path d="M309.033 265.282C309.033 265.282 332.812 224.168 346.978 248.508C346.978 248.508 373.335 201.144 394.748 217.917C416.161 234.691 383.548 321.53 383.548 321.53C383.548 321.53 418.798 287.651 407.268 337.976C407.268 337.976 422.092 326.756 431.646 330.394C441.201 334.032 432.964 362.331 432.964 362.331H288.709L309.033 265.282Z" fill="#7FC6A6"/>
<path d="M252.103 362.963C250.458 361.648 223.448 309.488 205.662 334.15C205.662 334.15 178.983 243.719 142.423 247.993C105.863 252.267 136.825 319.357 136.825 319.357C136.825 319.357 105.534 306.52 112.78 340.399C112.78 340.399 72.9265 333.165 75.8918 361.774L252.103 362.963Z" fill="#7FC6A6"/>
<path d="M105.494 292.019C108.645 289.411 107.247 282.537 102.372 276.664C97.4975 270.791 90.9911 268.143 87.84 270.751C84.689 273.358 86.0865 280.232 90.9614 286.105C95.8364 291.978 102.343 294.626 105.494 292.019Z" fill="#7FC6A6"/>
<path d="M94.9512 299.75C97.8373 303.228 98.6642 307.296 96.7988 308.835C94.9334 310.373 91.0819 308.811 88.1958 305.335C85.3097 301.859 84.4808 297.789 86.3462 296.25C88.2116 294.712 92.0611 296.274 94.9512 299.75Z" fill="#7FC6A6"/>
<path d="M138.273 325.966C138.369 325.945 138.453 325.888 138.508 325.806C138.565 325.721 138.586 325.618 138.566 325.519C138.546 325.419 138.488 325.331 138.403 325.275C138.083 325.061 130.501 320.068 123.844 321.51C123.795 321.521 123.749 321.541 123.707 321.57C123.666 321.598 123.631 321.635 123.604 321.677C123.576 321.719 123.558 321.766 123.549 321.815C123.54 321.865 123.541 321.915 123.551 321.964C123.562 322.013 123.582 322.06 123.611 322.101C123.64 322.142 123.676 322.178 123.718 322.205C123.761 322.232 123.808 322.25 123.857 322.259C123.907 322.268 123.957 322.267 124.006 322.257C130.336 320.874 137.903 325.859 137.978 325.911C138.021 325.939 138.069 325.959 138.12 325.968C138.17 325.978 138.222 325.977 138.273 325.966Z" fill="black"/>
<path d="M133.175 326.537C133.223 326.527 133.269 326.507 133.31 326.479C133.351 326.452 133.386 326.416 133.412 326.375C133.44 326.333 133.46 326.286 133.469 326.237C133.479 326.188 133.479 326.137 133.469 326.088C133.459 326.039 133.44 325.992 133.412 325.95C133.384 325.909 133.348 325.873 133.306 325.845C133.159 325.749 129.656 323.485 123.437 323.87C123.387 323.874 123.337 323.887 123.292 323.909C123.247 323.931 123.207 323.961 123.174 323.999C123.14 324.036 123.115 324.08 123.099 324.128C123.082 324.175 123.076 324.225 123.079 324.275C123.082 324.325 123.095 324.374 123.117 324.419C123.139 324.464 123.17 324.505 123.207 324.538C123.245 324.571 123.289 324.597 123.336 324.613C123.384 324.629 123.434 324.636 123.484 324.633C129.45 324.263 132.849 326.46 132.882 326.483C132.925 326.511 132.973 326.531 133.023 326.54C133.074 326.549 133.125 326.548 133.175 326.537Z" fill="black"/>
<path d="M228.154 341.308C228.203 341.308 228.252 341.298 228.297 341.28C228.343 341.261 228.384 341.234 228.419 341.199C228.455 341.164 228.483 341.122 228.502 341.075C228.521 341.029 228.531 340.98 228.531 340.929C228.531 340.879 228.521 340.83 228.502 340.784C228.483 340.737 228.455 340.695 228.419 340.66C228.152 340.383 221.802 333.899 214.991 333.899C214.939 333.896 214.886 333.903 214.836 333.92C214.787 333.938 214.741 333.965 214.702 334.001C214.664 334.037 214.633 334.08 214.612 334.129C214.591 334.177 214.58 334.229 214.58 334.282C214.58 334.334 214.591 334.386 214.612 334.435C214.633 334.483 214.664 334.526 214.702 334.562C214.741 334.598 214.787 334.625 214.836 334.643C214.886 334.66 214.939 334.668 214.991 334.664C221.48 334.664 227.806 341.124 227.869 341.181C227.905 341.221 227.949 341.253 227.998 341.275C228.047 341.297 228.1 341.308 228.154 341.308Z" fill="black"/>
<path d="M223.052 340.786C223.152 340.785 223.247 340.746 223.319 340.678C223.391 340.606 223.431 340.508 223.431 340.407C223.431 340.306 223.391 340.208 223.319 340.136C223.197 340.012 220.255 337.057 214.095 336.119C213.995 336.104 213.893 336.129 213.811 336.189C213.73 336.249 213.675 336.339 213.66 336.439C213.645 336.539 213.67 336.641 213.73 336.723C213.79 336.804 213.88 336.859 213.981 336.874C219.868 337.772 222.744 340.642 222.771 340.672C222.808 340.708 222.852 340.737 222.9 340.757C222.949 340.777 223 340.786 223.052 340.786Z" fill="black"/>
<path d="M263.409 109.822C263.409 109.822 247.154 95.8943 228.085 106.628C209.015 117.363 209.013 155.273 196.727 169.285C184.441 183.298 139.901 202.084 134.524 243.869C129.147 285.654 168.378 313.419 221.044 314.406C273.711 315.394 344.631 207.067 344.631 207.067C344.631 207.067 334.244 150.203 308.845 121.196C308.845 121.196 290.927 95.5901 263.409 109.822Z" fill="#FEC786"/>
<path d="M199.621 311.979C199.839 312.933 197.196 334.889 202.193 362.604C202.193 362.604 223.754 362.442 261.717 362.604C283.752 362.701 310.38 363.394 343.666 362.324C343.666 362.324 364.528 309.842 359.663 268.61C354.799 227.378 199.621 311.979 199.621 311.979Z" fill="#E2F2F1"/>
<path d="M221.044 185.599C221.044 185.599 210.038 179.338 197.878 192.116C185.719 204.894 172.92 243.486 175.225 269.171C175.225 269.171 184.126 276.711 213.403 273.318C242.679 269.925 241.528 274.914 246.392 275.043C251.257 275.171 289.912 274.914 290.42 275.043C290.929 275.171 351.385 269.813 361.752 268.345C361.752 268.345 365.204 227.769 357.189 199.475C352.285 182.164 332.883 173.5 316.662 181.331L311.539 183.803L295 208.467L279.117 213.754L251.819 211.88L221.044 185.599Z" fill="#E2F2F1"/>
<path d="M288.185 151.161V196.71L311.527 183.803C311.527 183.803 314.854 228.656 272.36 230.573C229.865 232.491 221.037 185.593 221.037 185.593L249.84 201.699L248.236 186.713L288.185 151.161Z" fill="#FE9F73"/>
<path d="M287.938 152.912L248.341 185.982L248.946 192.829C253.286 198.025 262.685 202.759 272.56 199.655C292.669 193.335 287.938 152.912 287.938 152.912Z" fill="#F07162"/>
<path d="M285.473 174.61C289.884 169.277 289.7 156.637 287.556 150.479L274.288 124.646C274.288 124.646 252.61 117.86 252.96 118.51C253.31 119.16 228.081 150.074 228.081 150.074C228.081 150.074 233.072 178.186 251.374 188.784C251.378 188.794 268.237 195.412 285.473 174.61Z" fill="#FE9F73"/>
<path d="M306.754 255.545C306.704 255.545 306.654 255.539 306.605 255.525C306.532 255.506 306.464 255.472 306.403 255.426C306.343 255.38 306.293 255.323 306.255 255.257C306.217 255.192 306.193 255.119 306.183 255.044C306.173 254.969 306.178 254.893 306.198 254.82C307.856 248.682 306.198 235.57 306.184 235.438C306.17 235.289 306.214 235.141 306.307 235.024C306.4 234.907 306.535 234.831 306.684 234.812C306.832 234.793 306.982 234.832 307.102 234.922C307.222 235.011 307.302 235.144 307.325 235.292C307.397 235.839 309.027 248.761 307.31 255.119C307.277 255.241 307.205 255.349 307.104 255.426C307.004 255.503 306.88 255.545 306.754 255.545Z" fill="black"/>
<path d="M307.282 246.237C307.187 246.237 307.094 246.214 307.011 246.17C306.927 246.125 306.856 246.061 306.803 245.982L302.394 239.419C302.352 239.357 302.322 239.286 302.307 239.212C302.292 239.138 302.292 239.062 302.307 238.988C302.321 238.914 302.35 238.843 302.392 238.78C302.434 238.718 302.488 238.663 302.55 238.621C302.613 238.579 302.683 238.55 302.758 238.535C302.832 238.52 302.908 238.52 302.982 238.534C303.056 238.549 303.127 238.578 303.19 238.619C303.253 238.661 303.307 238.715 303.349 238.777L307.759 245.342C307.817 245.429 307.851 245.529 307.857 245.633C307.863 245.737 307.84 245.841 307.791 245.933C307.742 246.025 307.668 246.102 307.579 246.156C307.489 246.209 307.386 246.237 307.282 246.237Z" fill="black"/>
<path d="M231.454 248.06C231.327 248.059 231.204 248.017 231.104 247.94C231.004 247.863 230.932 247.755 230.9 247.633C229.183 241.278 230.813 228.355 230.884 227.808C230.891 227.732 230.914 227.657 230.951 227.59C230.988 227.522 231.038 227.462 231.098 227.414C231.158 227.366 231.227 227.331 231.302 227.31C231.376 227.29 231.454 227.284 231.53 227.294C231.606 227.304 231.68 227.329 231.747 227.367C231.813 227.406 231.871 227.458 231.918 227.519C231.964 227.581 231.997 227.651 232.016 227.726C232.034 227.801 232.037 227.878 232.025 227.954C232.009 228.085 230.354 241.187 232.011 247.335C232.031 247.408 232.036 247.484 232.026 247.559C232.017 247.634 231.992 247.707 231.954 247.772C231.916 247.838 231.866 247.895 231.806 247.941C231.746 247.987 231.677 248.021 231.604 248.04C231.555 248.054 231.504 248.06 231.454 248.06Z" fill="black"/>
<path d="M230.927 238.752C230.823 238.752 230.72 238.724 230.631 238.67C230.541 238.617 230.468 238.54 230.419 238.448C230.37 238.356 230.347 238.252 230.352 238.148C230.357 238.044 230.39 237.944 230.449 237.857L234.858 231.292C234.943 231.165 235.075 231.078 235.225 231.048C235.375 231.019 235.531 231.05 235.658 231.135C235.785 231.22 235.873 231.352 235.902 231.502C235.932 231.652 235.901 231.807 235.815 231.934L231.406 238.497C231.353 238.576 231.282 238.64 231.199 238.684C231.115 238.729 231.022 238.752 230.927 238.752Z" fill="black"/>
<path d="M332.025 247.942C335.277 237.794 327.475 241.075 327.475 241.075C328.662 235.45 326.87 234.225 325.17 234.182C324.555 234.176 323.947 234.315 323.395 234.586C322.843 234.858 322.363 235.254 321.992 235.744C319.566 238.855 312.192 248.384 307.933 254.607C303.571 256.809 300.687 248.969 300.398 244.244C300.25 241.809 298.477 238.699 295.789 244.501C293.591 249.241 293 260.894 293 260.894L268.338 272.576L291.028 302.596C291.028 302.596 317.426 286.334 321.42 283.91C325.414 281.487 336.112 268.9 338.058 262.956C341.587 252.162 336.762 254.601 336.762 254.601C339.37 243.038 332.025 247.942 332.025 247.942Z" fill="#F9956E"/>
<path d="M322.225 251.396C322.116 251.471 321.984 251.506 321.851 251.494C321.719 251.481 321.596 251.422 321.503 251.328C321.41 251.233 321.354 251.109 321.344 250.976C321.334 250.844 321.371 250.713 321.45 250.606C324.049 247.122 326.929 240.904 326.957 240.843C326.987 240.776 327.031 240.716 327.085 240.666C327.139 240.615 327.203 240.576 327.272 240.551C327.341 240.525 327.415 240.513 327.489 240.516C327.563 240.519 327.635 240.536 327.702 240.567C327.77 240.597 327.83 240.641 327.88 240.695C327.931 240.749 327.97 240.813 327.995 240.882C328.021 240.951 328.033 241.024 328.03 241.098C328.027 241.172 328.01 241.244 327.979 241.311C327.859 241.57 325.012 247.698 322.35 251.275C322.315 251.322 322.272 251.362 322.225 251.396Z" fill="#F07162"/>
<path d="M326.343 257.19C326.229 257.272 326.088 257.309 325.948 257.292C325.809 257.275 325.68 257.206 325.589 257.1C325.497 256.993 325.449 256.856 325.454 256.715C325.459 256.575 325.517 256.441 325.615 256.341C329.299 252.545 331.491 247.758 331.514 247.71C331.543 247.64 331.585 247.576 331.638 247.523C331.692 247.469 331.756 247.427 331.826 247.399C331.897 247.371 331.972 247.357 332.048 247.359C332.123 247.361 332.198 247.378 332.267 247.409C332.336 247.44 332.398 247.485 332.449 247.541C332.501 247.596 332.54 247.662 332.565 247.733C332.59 247.805 332.601 247.88 332.596 247.956C332.591 248.031 332.571 248.105 332.537 248.173C332.446 248.37 330.246 253.181 326.421 257.123C326.397 257.148 326.371 257.171 326.343 257.19Z" fill="#F07162"/>
<path d="M332.058 263.07C331.945 263.15 331.807 263.185 331.669 263.169C331.532 263.153 331.405 263.087 331.313 262.983C331.222 262.88 331.171 262.746 331.172 262.608C331.173 262.47 331.225 262.337 331.318 262.235C334.404 258.865 336.214 254.422 336.232 254.376C336.288 254.238 336.396 254.128 336.534 254.07C336.602 254.041 336.675 254.026 336.749 254.025C336.822 254.025 336.896 254.038 336.964 254.066C337.032 254.094 337.095 254.134 337.147 254.186C337.2 254.238 337.242 254.299 337.271 254.367C337.3 254.435 337.315 254.508 337.316 254.582C337.316 254.655 337.302 254.728 337.275 254.797C337.199 254.984 335.37 259.474 332.147 262.991C332.121 263.021 332.091 263.047 332.058 263.07Z" fill="#F07162"/>
<path d="M184.427 272.534C184.427 272.534 195.319 322.201 209.397 326.544C223.476 330.888 262.896 323.479 279.028 312.234C295.16 300.988 253.686 281.949 253.686 281.949L213.401 273.324C203.811 274.351 196.142 274.827 186.791 273.127L184.427 272.534Z" fill="#F9956E"/>
<path d="M208.299 236.182C206.602 225.664 213.838 230.074 213.838 230.074C213.51 224.334 215.464 223.392 217.15 223.602C217.759 223.688 218.339 223.916 218.844 224.266C219.35 224.617 219.766 225.08 220.059 225.62C221.992 229.059 227.857 239.577 231.137 246.371C235.119 249.2 239.143 241.878 240.138 237.249C240.648 234.863 242.868 232.053 244.656 238.191C246.12 243.21 244.96 254.817 244.96 254.817L267.594 270.048L240.666 296.335C240.666 296.335 216.999 276.316 213.413 273.324C209.826 270.332 201.134 256.292 200.1 250.12C198.227 238.922 202.632 242.052 202.632 242.052C201.771 230.238 208.299 236.182 208.299 236.182Z" fill="#FE9F73"/>
<path d="M217.462 241.061C217.559 241.152 217.685 241.206 217.818 241.214C217.951 241.221 218.082 241.181 218.188 241.101C218.294 241.021 218.368 240.906 218.397 240.776C218.426 240.646 218.408 240.511 218.347 240.393C216.297 236.562 214.39 229.983 214.362 229.926C214.342 229.855 214.308 229.789 214.262 229.731C214.215 229.674 214.158 229.626 214.094 229.59C214.029 229.554 213.958 229.532 213.885 229.524C213.811 229.516 213.737 229.522 213.666 229.542C213.595 229.563 213.529 229.597 213.471 229.643C213.414 229.689 213.366 229.746 213.33 229.811C213.294 229.875 213.272 229.946 213.264 230.019C213.256 230.093 213.262 230.167 213.282 230.238C213.362 230.512 215.261 236.994 217.357 240.93C217.385 240.979 217.421 241.023 217.462 241.061Z" fill="#F07162"/>
<path d="M212.522 246.176C212.623 246.273 212.757 246.329 212.897 246.333C213.038 246.337 213.174 246.289 213.281 246.197C213.387 246.105 213.455 245.977 213.471 245.838C213.488 245.699 213.451 245.559 213.369 245.445C210.295 241.143 208.843 236.08 208.819 236.03C208.799 235.959 208.766 235.893 208.72 235.835C208.674 235.777 208.618 235.729 208.553 235.693C208.489 235.657 208.418 235.634 208.345 235.625C208.271 235.616 208.197 235.622 208.126 235.642C208.055 235.662 207.989 235.696 207.931 235.741C207.873 235.787 207.824 235.844 207.788 235.908C207.752 235.972 207.729 236.043 207.72 236.116C207.712 236.189 207.717 236.263 207.737 236.334C207.799 236.548 209.253 241.629 212.443 246.097C212.467 246.126 212.493 246.152 212.522 246.176Z" fill="#F07162"/>
<path d="M205.989 251.143C206.089 251.24 206.221 251.296 206.36 251.301C206.499 251.306 206.635 251.26 206.741 251.17C206.848 251.081 206.917 250.956 206.937 250.818C206.956 250.681 206.923 250.541 206.845 250.426C204.299 246.634 203.174 241.971 203.164 241.934C203.13 241.789 203.039 241.663 202.912 241.585C202.785 241.507 202.633 241.483 202.487 241.517C202.342 241.551 202.217 241.642 202.139 241.768C202.06 241.895 202.036 242.047 202.07 242.192C202.118 242.39 203.257 247.102 205.912 251.06C205.935 251.09 205.96 251.118 205.989 251.143Z" fill="#F07162"/>
<path d="M212.392 272.353C213.397 273.34 250.952 315.137 292.76 320.078C334.569 325.02 343.735 312.832 343.735 312.832C343.735 312.832 355.816 298.824 359.656 268.624L329.607 275.831C326.247 276.638 322.786 276.949 319.335 276.755C306.643 276.04 274.753 273.002 252.869 260.289L212.392 272.353Z" fill="#FE9F73"/>
<path d="M335.194 268.385L329.607 275.823C329.607 275.823 353.005 272.981 359.656 268.616C359.656 268.616 344.948 269.514 335.194 268.385Z" fill="#FE9F73"/>
<path d="M260.978 114.55C260.978 114.55 255.346 135.763 226.162 153.655C226.164 153.655 218.485 112.761 260.978 114.55Z" fill="#FEC786"/>
<path d="M246.003 112.123C248.305 114.678 257.456 139.315 281.584 139.937C281.584 139.937 287.386 132.76 292.895 138.795C292.895 138.795 295.093 121.259 294.994 120.876C294.895 120.493 274.672 110.973 274.672 110.973L246.003 112.123Z" fill="#FEC786"/>
<path d="M196.862 274.784H196.826C183.218 273.759 175.306 269.846 174.975 269.686L174.708 269.552L174.665 269.256C172.75 256.385 178.038 234.95 178.263 234.043C184.581 206.788 193.758 194.502 200.345 189.013C207.593 182.962 213.304 183.483 213.543 183.517C213.695 183.533 213.835 183.608 213.931 183.726C214.027 183.845 214.072 183.996 214.057 184.148C214.041 184.3 213.966 184.439 213.847 184.535C213.729 184.631 213.577 184.676 213.425 184.66C213.369 184.66 207.87 184.179 200.976 189.993C194.559 195.397 185.606 207.476 179.385 234.328C179.327 234.555 174.008 256.112 175.761 268.799C177.254 269.485 184.914 272.749 196.913 273.654C197.061 273.666 197.198 273.735 197.296 273.845C197.395 273.956 197.446 274.1 197.441 274.248C197.436 274.395 197.374 274.535 197.267 274.638C197.161 274.742 197.02 274.8 196.872 274.801L196.862 274.784Z" fill="black"/>
<path d="M218.521 328.812C216.531 328.812 215.019 328.711 214.141 328.521C202.824 326.086 200.045 319.764 195.839 310.193L195.109 308.534C190.722 298.62 183.937 272.945 183.869 272.682C183.85 272.609 183.845 272.533 183.855 272.458C183.865 272.383 183.89 272.311 183.928 272.246C183.966 272.181 184.017 272.124 184.077 272.078C184.137 272.032 184.206 271.998 184.279 271.979C184.352 271.96 184.428 271.955 184.503 271.965C184.578 271.975 184.65 272 184.716 272.038C184.781 272.076 184.838 272.126 184.884 272.186C184.93 272.246 184.964 272.315 184.983 272.388C185.05 272.647 191.812 298.237 196.161 308.07C196.412 308.635 196.656 309.189 196.893 309.731C201.101 319.308 203.641 325.087 214.382 327.398C218.871 328.363 240.308 326.975 257.354 321.18C257.425 321.156 257.501 321.146 257.576 321.151C257.652 321.156 257.726 321.175 257.793 321.208C257.861 321.242 257.922 321.288 257.972 321.345C258.022 321.401 258.06 321.467 258.085 321.539C258.109 321.61 258.119 321.686 258.114 321.761C258.109 321.837 258.09 321.91 258.056 321.978C258.023 322.046 257.977 322.106 257.92 322.156C257.863 322.206 257.797 322.244 257.726 322.269C243.799 327.003 226.906 328.812 218.521 328.812Z" fill="black"/>
<path d="M349.484 270.069C346.811 270.09 344.141 269.87 341.508 269.412C341.434 269.398 341.363 269.37 341.299 269.329C341.236 269.287 341.181 269.234 341.138 269.172C341.095 269.11 341.065 269.04 341.049 268.966C341.033 268.892 341.032 268.815 341.046 268.741C341.06 268.667 341.088 268.596 341.129 268.533C341.171 268.469 341.224 268.415 341.286 268.372C341.349 268.329 341.419 268.299 341.493 268.283C341.567 268.267 341.643 268.266 341.718 268.28C349.919 269.791 359.367 268.207 361.284 267.853C362.706 261.666 361.137 227.141 361.121 226.785C360.02 211.396 357.727 200.889 353.905 193.738C350.344 187.08 345.302 182.919 337.546 180.24C323.234 175.303 302.946 189.181 302.742 189.325C302.617 189.412 302.461 189.446 302.311 189.419C302.161 189.391 302.027 189.306 301.94 189.18C301.853 189.055 301.819 188.9 301.847 188.75C301.874 188.6 301.96 188.466 302.085 188.379C305.955 185.824 310.053 183.633 314.328 181.834C320.795 179.127 330.14 176.464 337.932 179.154C345.985 181.933 351.227 186.264 354.932 193.196C358.831 200.494 361.167 211.147 362.281 226.718C362.35 228.219 363.936 263.171 362.308 268.517L362.209 268.845L361.873 268.914C357.786 269.668 353.64 270.054 349.484 270.069Z" fill="black"/>
<path d="M294.921 224.151C294.791 224.15 294.666 224.106 294.565 224.025C294.463 223.945 294.392 223.833 294.362 223.707C294.332 223.582 294.346 223.449 294.4 223.332C294.454 223.215 294.546 223.119 294.661 223.061C303.476 218.648 307.438 208.248 309.209 200.312C310.391 194.897 310.978 189.368 310.957 183.825C310.955 183.75 310.968 183.674 310.995 183.603C311.021 183.533 311.062 183.468 311.114 183.413C311.166 183.358 311.228 183.313 311.298 183.283C311.367 183.252 311.442 183.235 311.517 183.233C311.669 183.232 311.815 183.29 311.925 183.394C312.036 183.498 312.102 183.64 312.111 183.792C312.129 189.421 311.532 195.036 310.33 200.536C307.713 212.287 302.471 220.432 295.17 224.088C295.093 224.127 295.007 224.149 294.921 224.151Z" fill="black"/>
<path d="M343.187 286C343.097 286 343.009 285.972 342.936 285.919L329.362 276.172C329.316 276.139 329.277 276.097 329.247 276.049C329.217 276.001 329.197 275.948 329.188 275.892C329.179 275.836 329.181 275.779 329.194 275.724C329.207 275.669 329.231 275.617 329.264 275.571C329.297 275.525 329.339 275.486 329.387 275.456C329.435 275.426 329.489 275.407 329.545 275.397C329.601 275.388 329.658 275.39 329.713 275.403C329.768 275.416 329.82 275.44 329.866 275.473L343.448 285.22C343.523 285.273 343.578 285.348 343.606 285.435C343.635 285.522 343.635 285.615 343.607 285.702C343.579 285.789 343.524 285.864 343.45 285.918C343.376 285.971 343.287 286 343.195 286H343.187Z" fill="#F07162"/>
<path d="M343.187 313.875C343.076 313.875 342.966 313.842 342.873 313.781C342.779 313.72 342.705 313.633 342.661 313.531C342.616 313.429 342.602 313.316 342.62 313.206C342.638 313.096 342.688 312.993 342.764 312.911C354.702 299.953 359.042 268.851 359.086 268.539C359.106 268.388 359.186 268.251 359.308 268.158C359.429 268.066 359.582 268.026 359.734 268.046C359.885 268.066 360.022 268.146 360.115 268.267C360.207 268.389 360.248 268.542 360.227 268.693C360.051 269.984 355.796 300.465 343.611 313.689C343.557 313.748 343.491 313.795 343.419 313.827C343.346 313.859 343.267 313.875 343.187 313.875Z" fill="black"/>
<path d="M208.59 191.751C208.69 191.735 208.792 191.757 208.876 191.814C208.959 191.87 209.018 191.957 209.04 192.056C209.062 192.154 209.045 192.257 208.993 192.344C208.941 192.43 208.857 192.494 208.76 192.521C203.447 194.101 201.198 198.134 201.176 198.173C201.126 198.266 201.041 198.334 200.94 198.364C200.84 198.394 200.731 198.382 200.639 198.332C200.547 198.282 200.478 198.198 200.448 198.097C200.418 197.997 200.429 197.888 200.48 197.796C200.575 197.62 202.893 193.451 208.535 191.763C208.553 191.757 208.571 191.753 208.59 191.751Z" fill="black"/>
<path d="M213.401 192.507C213.503 192.489 213.607 192.512 213.693 192.57C213.778 192.628 213.837 192.717 213.857 192.818C213.878 192.919 213.858 193.024 213.802 193.111C213.746 193.197 213.658 193.259 213.557 193.281C208.018 194.737 204.944 198.243 204.913 198.278C204.881 198.324 204.84 198.362 204.792 198.391C204.745 198.419 204.692 198.438 204.637 198.445C204.581 198.452 204.525 198.447 204.472 198.431C204.419 198.414 204.37 198.387 204.328 198.351C204.286 198.314 204.252 198.269 204.229 198.219C204.206 198.169 204.193 198.114 204.192 198.059C204.191 198.003 204.202 197.948 204.224 197.897C204.246 197.846 204.278 197.8 204.319 197.763C204.45 197.611 207.577 194.038 213.361 192.517L213.401 192.507Z" fill="black"/>
<path d="M327.805 312.303C327.708 312.322 327.607 312.304 327.523 312.252C327.439 312.2 327.377 312.119 327.349 312.024C327.322 311.929 327.331 311.827 327.375 311.739C327.42 311.651 327.495 311.582 327.588 311.546C332.794 309.635 334.788 305.475 334.808 305.424C334.852 305.329 334.933 305.255 335.031 305.219C335.13 305.183 335.239 305.188 335.334 305.232C335.429 305.277 335.503 305.357 335.539 305.455C335.575 305.554 335.57 305.663 335.526 305.758C335.441 305.939 333.388 310.249 327.861 312.275C327.843 312.286 327.825 312.296 327.805 312.303Z" fill="black"/>
<path d="M322.957 311.852C322.859 311.87 322.758 311.849 322.674 311.796C322.591 311.742 322.53 311.659 322.505 311.563C322.48 311.466 322.493 311.364 322.54 311.277C322.587 311.189 322.665 311.123 322.759 311.09C328.193 309.295 331.047 305.606 331.077 305.57C331.108 305.527 331.147 305.49 331.192 305.462C331.237 305.434 331.287 305.416 331.339 305.408C331.392 305.4 331.445 305.402 331.497 305.415C331.548 305.428 331.596 305.451 331.639 305.483C331.681 305.515 331.716 305.555 331.743 305.601C331.769 305.647 331.786 305.697 331.793 305.75C331.799 305.802 331.795 305.856 331.781 305.906C331.766 305.957 331.741 306.005 331.708 306.046C331.587 306.206 328.686 309.964 323.004 311.841C322.989 311.847 322.973 311.851 322.957 311.852Z" fill="black"/>
<path d="M393.961 233.583C393.953 233.688 393.904 233.785 393.825 233.854C393.745 233.923 393.641 233.957 393.536 233.95C393.431 233.942 393.334 233.893 393.265 233.814C393.196 233.734 393.162 233.631 393.169 233.526C393.169 227.996 389.939 224.688 389.905 224.654C389.831 224.58 389.79 224.479 389.79 224.374C389.79 224.269 389.832 224.168 389.906 224.094C389.981 224.02 390.082 223.979 390.187 223.979C390.292 223.979 390.393 224.021 390.467 224.095C390.61 224.237 393.955 227.65 393.961 233.526C393.962 233.545 393.962 233.564 393.961 233.583Z" fill="black"/>
<path d="M391.872 237.97C391.862 238.074 391.812 238.171 391.731 238.239C391.65 238.306 391.545 238.339 391.44 238.329C391.336 238.32 391.239 238.269 391.171 238.188C391.104 238.108 391.071 238.003 391.08 237.899C391.26 232.187 388.774 228.241 388.75 228.201C388.693 228.113 388.674 228.006 388.697 227.904C388.719 227.801 388.781 227.712 388.87 227.655C388.958 227.599 389.065 227.579 389.168 227.602C389.271 227.624 389.36 227.687 389.417 227.775C389.524 227.943 392.06 231.954 391.872 237.924C391.872 237.94 391.872 237.954 391.872 237.97Z" fill="black"/>
<path d="M343.258 190.961C343.318 191.034 343.349 191.127 343.346 191.222C343.344 191.316 343.307 191.407 343.243 191.476C343.207 191.515 343.165 191.546 343.118 191.568C343.071 191.59 343.02 191.602 342.968 191.604C342.916 191.606 342.864 191.598 342.815 191.58C342.766 191.563 342.721 191.535 342.683 191.5C338.6 187.748 333.979 187.884 333.937 187.886C333.833 187.89 333.73 187.853 333.653 187.782C333.575 187.711 333.529 187.612 333.525 187.508C333.521 187.403 333.558 187.301 333.629 187.223C333.7 187.146 333.799 187.1 333.904 187.096C334.102 187.096 338.885 186.94 343.219 190.917C343.233 190.931 343.246 190.945 343.258 190.961Z" fill="black"/>
<path d="M345.069 195.474C345.139 195.552 345.175 195.655 345.169 195.761C345.163 195.866 345.116 195.964 345.037 196.034C344.998 196.069 344.953 196.096 344.903 196.113C344.854 196.13 344.802 196.138 344.75 196.135C344.644 196.129 344.545 196.081 344.475 196.003C340.39 192.002 335.797 191.152 335.751 191.144C335.649 191.126 335.557 191.067 335.497 190.982C335.437 190.896 335.414 190.79 335.432 190.687C335.45 190.585 335.508 190.493 335.593 190.433C335.679 190.373 335.785 190.349 335.888 190.366C336.086 190.4 340.76 191.257 345.029 195.44C345.043 195.45 345.057 195.461 345.069 195.474Z" fill="black"/>
<path d="M290.268 113.849C290.331 113.926 290.363 114.025 290.356 114.125C290.349 114.224 290.305 114.318 290.232 114.386C290.159 114.455 290.063 114.493 289.962 114.493C289.862 114.493 289.766 114.456 289.692 114.388C285.609 110.635 280.988 110.772 280.947 110.774C280.895 110.776 280.843 110.768 280.794 110.75C280.746 110.732 280.701 110.704 280.663 110.669C280.624 110.634 280.593 110.592 280.572 110.544C280.55 110.497 280.538 110.446 280.535 110.395C280.533 110.343 280.542 110.291 280.56 110.242C280.577 110.193 280.605 110.149 280.64 110.111C280.675 110.072 280.718 110.042 280.765 110.02C280.812 109.998 280.863 109.986 280.915 109.984C281.113 109.984 285.894 109.828 290.228 113.805C290.243 113.819 290.256 113.833 290.268 113.849Z" fill="black"/>
<path d="M292.078 118.362C292.148 118.44 292.185 118.544 292.179 118.649C292.173 118.754 292.126 118.853 292.047 118.924C291.968 118.994 291.865 119.031 291.759 119.025C291.654 119.019 291.555 118.972 291.484 118.893C287.399 114.89 282.808 114.042 282.761 114.035C282.657 114.017 282.565 113.958 282.504 113.872C282.444 113.786 282.42 113.68 282.438 113.576C282.456 113.473 282.515 113.381 282.601 113.321C282.687 113.26 282.794 113.236 282.897 113.254C283.095 113.29 287.769 114.145 292.038 118.328C292.052 118.338 292.066 118.349 292.078 118.362Z" fill="black"/>
<path d="M205.706 315.812C205.675 315.715 205.684 315.609 205.729 315.517C205.775 315.425 205.855 315.355 205.952 315.321C206.049 315.287 206.155 315.292 206.248 315.334C206.341 315.377 206.414 315.454 206.452 315.55C208.685 320.618 212.966 322.348 213.009 322.363C213.107 322.402 213.186 322.477 213.228 322.573C213.27 322.669 213.272 322.778 213.234 322.876C213.196 322.974 213.12 323.052 213.024 323.094C212.927 323.136 212.818 323.138 212.721 323.1C212.533 323.027 208.098 321.248 205.726 315.868C205.728 315.85 205.712 315.83 205.706 315.812Z" fill="black"/>
<path d="M205.864 310.954C205.847 310.905 205.841 310.853 205.844 310.801C205.848 310.749 205.861 310.699 205.884 310.652C205.907 310.606 205.939 310.564 205.979 310.53C206.018 310.496 206.063 310.47 206.112 310.453C206.162 310.437 206.214 310.43 206.265 310.433C206.317 310.437 206.368 310.45 206.414 310.473C206.461 310.496 206.503 310.528 206.537 310.567C206.571 310.606 206.597 310.652 206.614 310.701C208.746 316.006 212.612 318.623 212.649 318.648C212.695 318.676 212.734 318.712 212.765 318.756C212.797 318.799 212.819 318.848 212.83 318.9C212.842 318.952 212.843 319.006 212.833 319.058C212.823 319.11 212.803 319.16 212.774 319.205C212.744 319.249 212.706 319.287 212.662 319.316C212.617 319.345 212.567 319.365 212.515 319.375C212.462 319.384 212.408 319.383 212.356 319.371C212.304 319.359 212.255 319.337 212.212 319.306C212.044 319.195 208.107 316.541 205.882 310.997C205.872 310.981 205.868 310.968 205.864 310.954Z" fill="black"/>
<path d="M202.185 363.181C202.062 363.18 201.943 363.141 201.844 363.068C201.745 362.995 201.672 362.893 201.635 362.776C197.382 349.034 198.976 318.206 199.046 316.901C199.057 316.751 199.127 316.612 199.24 316.513C199.353 316.414 199.5 316.363 199.65 316.371C199.8 316.379 199.941 316.446 200.043 316.556C200.145 316.666 200.199 316.812 200.195 316.962C200.179 317.28 198.545 348.892 202.737 362.436C202.781 362.582 202.766 362.74 202.695 362.874C202.623 363.009 202.501 363.11 202.355 363.155C202.3 363.172 202.243 363.181 202.185 363.181Z" fill="black"/>
<path d="M224.688 151.735C224.564 151.735 224.443 151.695 224.343 151.62C224.243 151.546 224.171 151.441 224.136 151.322C224.101 151.203 224.105 151.076 224.149 150.959C224.193 150.843 224.273 150.744 224.378 150.677C224.575 150.544 245.229 137.227 251.739 120.854C251.766 120.782 251.806 120.716 251.859 120.66C251.911 120.603 251.974 120.558 252.044 120.527C252.114 120.495 252.19 120.478 252.267 120.476C252.344 120.475 252.42 120.488 252.492 120.517C252.563 120.545 252.629 120.587 252.683 120.641C252.738 120.695 252.782 120.759 252.811 120.83C252.841 120.901 252.856 120.977 252.856 121.053C252.855 121.13 252.84 121.206 252.81 121.277C246.163 137.997 225.21 151.508 224.999 151.642C224.907 151.703 224.799 151.735 224.688 151.735Z" fill="black"/>
<path d="M256.185 164.676C256.257 164.649 256.317 164.596 256.354 164.528C256.391 164.46 256.401 164.38 256.383 164.305C256.366 164.23 256.321 164.163 256.258 164.118C256.195 164.074 256.117 164.053 256.04 164.061C253.967 164.324 251.92 162.377 251.293 161.725C253.52 159.308 254.525 156.825 254.282 154.342C253.886 150.296 250.325 147.75 250.183 147.643C250.149 147.619 250.11 147.602 250.07 147.593C250.029 147.584 249.987 147.583 249.946 147.59C249.905 147.597 249.866 147.612 249.83 147.634C249.795 147.656 249.765 147.685 249.741 147.719C249.717 147.753 249.7 147.792 249.69 147.832C249.681 147.873 249.68 147.915 249.687 147.956C249.694 147.997 249.709 148.036 249.732 148.071C249.754 148.106 249.783 148.137 249.817 148.161C249.85 148.186 253.283 150.653 253.651 154.41C253.88 156.78 252.859 159.15 250.63 161.504L250.432 161.701L250.616 161.918C250.725 162.045 253.302 165.035 256.111 164.683C256.136 164.683 256.16 164.68 256.185 164.676Z" fill="#F07162"/>
<path d="M236.417 154.265C236.525 154.255 236.63 154.219 236.721 154.16C236.813 154.101 236.889 154.02 236.943 153.926C236.97 153.876 239.777 148.988 244.816 148.028C244.903 148.012 244.986 147.978 245.06 147.93C245.134 147.881 245.198 147.819 245.248 147.745C245.298 147.672 245.333 147.59 245.351 147.503C245.37 147.417 245.37 147.327 245.354 147.24C245.337 147.153 245.304 147.07 245.255 146.996C245.207 146.922 245.144 146.858 245.071 146.808C244.997 146.758 244.915 146.723 244.828 146.705C244.741 146.687 244.652 146.686 244.565 146.703C238.897 147.775 235.89 153.043 235.766 153.266C235.706 153.373 235.676 153.494 235.68 153.617C235.684 153.74 235.722 153.859 235.789 153.962C235.856 154.065 235.95 154.147 236.06 154.201C236.171 154.254 236.294 154.277 236.417 154.265Z" fill="#49263E"/>
<path d="M268.435 141.39C268.574 141.35 268.696 141.266 268.783 141.152C268.871 141.037 268.92 140.898 268.922 140.754C268.924 140.609 268.88 140.468 268.796 140.351C268.712 140.234 268.592 140.147 268.455 140.102C268.211 140.023 262.425 138.185 257.529 141.23C257.454 141.277 257.389 141.338 257.338 141.41C257.286 141.482 257.249 141.563 257.229 141.65C257.209 141.736 257.206 141.825 257.221 141.912C257.235 142 257.267 142.083 257.314 142.158C257.361 142.233 257.422 142.299 257.494 142.35C257.566 142.402 257.648 142.438 257.734 142.458C257.82 142.478 257.91 142.481 257.997 142.467C258.085 142.452 258.168 142.42 258.244 142.374C262.611 139.658 267.98 141.366 268.035 141.386C268.165 141.428 268.304 141.429 268.435 141.39Z" fill="#49263E"/>
<path d="M264.479 152.379L264.368 152.413C260.471 153.58 258.519 150.438 258.501 150.4C258.476 150.359 258.459 150.313 258.452 150.266C258.445 150.218 258.447 150.17 258.458 150.123C258.47 150.077 258.49 150.033 258.519 149.994C258.547 149.955 258.583 149.922 258.624 149.898C258.666 149.873 258.711 149.856 258.759 149.849C258.806 149.842 258.855 149.844 258.902 149.855C258.948 149.867 258.993 149.887 259.031 149.916C259.07 149.944 259.103 149.98 259.128 150.021C259.201 150.139 260.821 152.709 264.158 151.712L264.255 151.68C267.45 150.665 266.874 147.896 266.849 147.777C266.828 147.683 266.845 147.583 266.898 147.501C266.95 147.42 267.033 147.362 267.128 147.341C267.223 147.32 267.322 147.338 267.404 147.39C267.486 147.442 267.544 147.525 267.565 147.619C267.581 147.655 268.312 151.163 264.479 152.379Z" fill="black"/>
<path d="M246.717 159.752L246.608 159.795C242.824 161.284 240.614 158.312 240.593 158.282C240.564 158.244 240.544 158.199 240.533 158.153C240.521 158.106 240.519 158.057 240.527 158.01C240.535 157.962 240.551 157.917 240.576 157.876C240.602 157.835 240.635 157.799 240.674 157.771C240.713 157.743 240.757 157.722 240.804 157.711C240.85 157.7 240.899 157.698 240.947 157.705C240.994 157.713 241.04 157.73 241.081 157.755C241.122 157.78 241.158 157.813 241.186 157.852C241.269 157.964 243.101 160.388 246.329 159.114L246.426 159.074C249.524 157.795 248.717 155.083 248.679 154.968C248.652 154.875 248.662 154.775 248.707 154.689C248.752 154.604 248.828 154.539 248.921 154.508C249.014 154.48 249.114 154.489 249.201 154.534C249.287 154.579 249.352 154.656 249.381 154.749C249.401 154.785 250.434 158.219 246.717 159.752Z" fill="black"/>
<path d="M264.874 163.828C263.393 169.084 258.386 168.896 258.335 168.894C258.262 168.886 258.195 168.85 258.148 168.794C258.1 168.738 258.076 168.667 258.079 168.594C258.083 168.521 258.114 168.452 258.167 168.401C258.219 168.35 258.289 168.321 258.362 168.319C258.56 168.319 262.965 168.479 264.321 163.676C264.344 163.589 264.368 163.5 264.39 163.41C264.41 163.337 264.458 163.274 264.523 163.235C264.588 163.196 264.666 163.184 264.74 163.2C264.777 163.209 264.811 163.225 264.841 163.248C264.872 163.27 264.898 163.298 264.917 163.33C264.937 163.363 264.949 163.399 264.955 163.436C264.961 163.473 264.959 163.511 264.95 163.548C264.92 163.643 264.894 163.737 264.874 163.828Z" fill="#F07162"/>
<path d="M239.679 163.984C240.729 165.238 241.383 166.774 241.559 168.399C241.735 170.024 241.424 171.665 240.666 173.113C239.908 174.562 238.737 175.754 237.3 176.538C235.864 177.321 234.227 177.662 232.596 177.517C230.966 177.372 229.415 176.748 228.14 175.723C226.865 174.698 225.923 173.318 225.433 171.758C224.943 170.199 224.928 168.529 225.389 166.961C225.849 165.393 226.765 163.996 228.021 162.947C229.705 161.542 231.879 160.861 234.065 161.056C236.251 161.25 238.27 162.304 239.679 163.984Z" fill="#FE9F73"/>
<path d="M236.132 171.511C235.028 172.85 233.283 172.919 232.033 172.386C230.555 171.756 229.725 170.411 229.92 168.946C230.197 166.866 231.728 166.025 232.717 165.695C231.903 165.408 231.014 165.42 230.207 165.726C228.49 166.412 227.723 168.367 227.715 168.387C227.689 168.452 227.637 168.505 227.572 168.532C227.507 168.56 227.434 168.561 227.369 168.535C227.303 168.509 227.251 168.457 227.223 168.393C227.195 168.328 227.194 168.255 227.22 168.189C227.254 168.1 228.079 165.997 230.009 165.227C231.125 164.78 232.369 164.875 233.709 165.509L234.567 165.916L233.62 166.013C233.505 166.013 230.803 166.327 230.454 169.007C230.257 170.488 231.299 171.485 232.251 171.892C233.24 172.317 234.763 172.372 235.758 171.134C235.803 171.084 235.866 171.053 235.933 171.047C236.001 171.042 236.067 171.062 236.12 171.104C236.173 171.146 236.208 171.207 236.217 171.274C236.227 171.341 236.21 171.409 236.171 171.464L236.132 171.511Z" fill="#F07162"/>
<path d="M278.808 146.328C279.123 148.005 279.929 149.551 281.124 150.771C282.32 151.991 283.85 152.83 285.522 153.181C287.195 153.533 288.934 153.381 290.52 152.746C292.107 152.111 293.468 151.02 294.434 149.612C295.4 148.204 295.925 146.542 295.945 144.836C295.964 143.13 295.477 141.456 294.544 140.027C293.611 138.597 292.274 137.476 290.703 136.804C289.132 136.133 287.396 135.942 285.716 136.255C284.6 136.463 283.536 136.889 282.584 137.508C281.633 138.127 280.813 138.927 280.172 139.862C279.53 140.798 279.08 141.85 278.846 142.96C278.612 144.069 278.599 145.214 278.808 146.328Z" fill="#FE9F73"/>
<path d="M287.239 148.474C289.053 148.474 290.266 147.12 290.668 145.761C291.142 144.153 290.602 142.587 289.295 141.773C287.431 140.616 285.734 141.289 284.812 141.866C285.123 141.021 285.723 140.312 286.506 139.865C288.201 138.941 290.288 139.623 290.31 139.628C290.345 139.642 290.382 139.649 290.42 139.648C290.457 139.647 290.494 139.639 290.529 139.623C290.563 139.607 290.594 139.584 290.619 139.556C290.644 139.528 290.663 139.495 290.675 139.46C290.687 139.424 290.692 139.386 290.689 139.349C290.685 139.311 290.675 139.275 290.657 139.242C290.639 139.208 290.615 139.179 290.585 139.156C290.556 139.132 290.522 139.115 290.486 139.105C290.391 139.073 288.145 138.341 286.24 139.382C285.141 139.974 284.391 141.046 284.013 142.542L283.77 143.503L284.476 142.806C284.561 142.719 286.602 140.748 289.002 142.241C290.327 143.065 290.442 144.568 290.137 145.599C289.817 146.683 288.856 147.937 287.196 147.916C287.122 147.916 287.052 147.945 287 147.997C286.948 148.048 286.919 148.119 286.919 148.192C286.919 148.265 286.948 148.336 287 148.388C287.052 148.439 287.122 148.469 287.196 148.469L287.239 148.474Z" fill="#F07162"/>
<path d="M442.641 364.042H73.4348C72.9442 364.042 72.5466 363.4 72.5466 362.604C72.5466 361.808 72.9423 361.168 73.4348 361.168H442.641C443.133 361.168 443.531 361.812 443.531 362.604C443.531 363.396 443.133 364.042 442.641 364.042Z" fill="black"/>
<path d="M141.183 157.743C133.446 156.578 132.918 164.756 132.904 166.771C131.244 165.621 124.244 161.344 120.744 168.329C116.042 177.712 134.651 186.766 143.808 187.763C148.27 179.713 151.572 159.309 141.183 157.743Z" fill="#F75553"/>
<path d="M190.373 112.067C185.893 110.29 184.439 115.123 184.14 116.331C183.305 115.411 179.701 111.864 176.623 115.571C172.495 120.548 182.385 128.572 187.748 130.456C191.554 126.246 196.393 114.457 190.373 112.067Z" fill="#F75553"/>
<path d="M356.91 122.606C355.1 119.841 352.374 121.984 351.735 122.549C351.63 121.704 351.007 118.301 347.822 119.17C343.543 120.335 345.931 128.725 348.194 131.881C351.986 131.016 359.341 126.307 356.91 122.606Z" fill="#F75553"/>
<path d="M140.251 75.1587C133.992 72.0895 131.349 78.8973 130.785 80.6057C129.686 79.1837 124.89 73.6675 120.032 78.6643C113.504 85.3793 126.88 98.0647 134.392 101.377C140.354 95.7303 148.656 79.2805 140.251 75.1587Z" fill="#F75553"/>
<path d="M393.589 164.559C390.396 159.264 385.14 163.07 383.896 164.077C383.761 162.497 382.839 156.073 376.812 157.467C368.715 159.341 372.577 175.228 376.588 181.299C383.761 179.952 397.873 171.669 393.589 164.559Z" fill="#F75553"/>
<path d="M387.623 77.8683C384.119 73.3258 379.673 77.3864 378.638 78.447C378.345 76.9954 376.818 71.1731 371.402 73.0947C364.132 75.678 369.374 89.9257 373.718 95.1061C380.183 93.1074 392.331 83.977 387.623 77.8683Z" fill="#F75553"/>
</svg>
