<svg width="98" height="112" viewBox="0 0 98 112" fill="none" xmlns="http://www.w3.org/2000/svg">
<path d="M8.23201 110.662C7.06401 110.365 5.92421 109.966 4.82559 109.47L3.54629 108.846L3.45924 94.5977L3.40625 80.376L5.59014 80.2057C6.81267 80.0922 8.48559 79.9522 9.3107 79.8954L10.7868 79.7554V89.3753L12.2591 88.6184C13.5687 87.941 14.0797 87.8615 16.3203 87.8615C18.3945 87.8615 19.1023 87.975 20.0106 88.4859C22.6601 89.9051 24.4125 92.7434 25.0067 96.5202C26.1157 103.642 22.9061 109.292 16.8881 110.852C14.5906 111.446 10.8322 111.363 8.23201 110.681V110.662ZM15.4687 105.016C16.9827 104.078 17.4558 102.745 17.4558 99.6234C17.4558 96.2174 16.8313 94.5977 15.1849 93.8295C14.5879 93.5534 13.9303 93.4346 13.2744 93.4842C12.6186 93.5339 11.9864 93.7505 11.4378 94.1133C10.7792 94.5145 10.7792 94.628 10.7792 99.8769C10.7792 102.798 10.8625 105.3 10.9761 105.383C11.0896 105.466 11.9147 105.584 12.8685 105.584C14.0608 105.584 14.8253 105.413 15.4801 105.016H15.4687Z" fill="#053F72"/>
<path d="M35.4835 110.859C33.7156 110.442 32.0953 109.55 30.7977 108.278C26.3694 103.964 26.4527 95.0331 30.9946 90.6243C31.8679 89.8231 32.8535 89.1538 33.9203 88.6375C35.4835 87.8995 35.9074 87.8428 38.8899 87.8428C42.6331 87.8428 43.9995 88.2969 45.786 90.0566C47.5725 91.8164 48.0872 93.3793 48.0569 96.6415C48.0569 98.2044 47.9169 99.8203 47.7428 100.274L47.4059 101.031H34.8589L35.0293 101.909C35.1767 102.51 35.4333 103.078 35.7863 103.586C37.2321 105.626 40.1578 105.826 45.5778 104.293C46.0888 104.153 46.2326 104.407 46.8836 106.708L47.6406 109.289L46.789 109.713C44.1774 111.079 38.3827 111.647 35.491 110.848L35.4835 110.859ZM41.1608 95.9603C41.1608 94.3141 40.0518 93.0955 38.606 93.0955C36.5887 93.0955 35.51 94 35.0558 96.1608L34.8589 97.0691H41.1608V95.9603Z" fill="#053F72"/>
<path d="M91.3753 110.606C90.8042 110.193 90.3534 109.635 90.0695 108.99C89.6721 107.854 89.8424 106.034 90.4669 105.069C91.5456 103.366 94.3578 102.772 96.1746 103.881C98.6158 105.395 98.3585 109.784 95.7469 110.859C94.3275 111.457 92.4843 111.374 91.3753 110.606Z" fill="#053F72"/>
<path d="M51.3801 99.4797V87.9865H57.2846L57.6252 88.978C57.7079 89.3318 57.8513 89.6686 58.0491 89.9733C58.5591 89.7217 59.0521 89.4373 59.5252 89.1218C61.2284 88.0395 62.4207 87.7027 64.6084 87.7027C66.796 87.7027 68.9799 88.3536 70.0586 89.3489L70.88 90.1398L71.8716 89.4889C73.749 88.3014 75.9294 87.6812 78.1508 87.7027C81.8108 87.7027 83.9984 88.9213 85.2777 91.6763C85.8455 92.8646 85.872 93.5193 85.959 101.977L86.0423 110.977H78.6617L78.5785 102.999L78.4914 95.0255L77.6701 94.314C76.932 93.6896 76.6482 93.6063 75.4824 93.7463C74.7149 93.8305 73.9666 94.0415 73.2682 94.3708L72.3901 94.8249V110.977H65.0323L64.949 102.999L64.862 95.0255L64.0406 94.314C63.0717 93.4928 61.7394 93.5193 59.8394 94.314L58.7607 94.7681V110.977H51.3801V99.4797Z" fill="#053F72"/>
<path d="M91.0195 99.8507C90.8757 98.6851 89.9976 83.1616 89.9976 81.8257C89.9976 81.1748 90.0506 81.1748 93.8279 81.1748H97.662V81.9695C97.662 82.3934 97.4614 86.8514 97.1775 91.9035L96.6968 101.043H91.1482L91.0195 99.8507Z" fill="#053F72"/>
<path d="M19.5567 83.4452C16.6347 82.9305 14.8142 81.4016 14.0496 78.8472C13.709 77.6816 13.6257 75.725 13.6257 68.9132V60.4551H20.976L21.0593 68.4288L21.1463 76.4025L21.8276 76.9436C22.6792 77.6513 24.4771 77.6248 26.0592 76.9171L27.2514 76.376V60.4551H34.6244V83.1878L31.5965 83.1046L28.5686 83.0175L28.2847 82.1661C27.9062 81.0307 27.944 81.0307 26.9789 81.7119C24.8312 83.2479 22.1626 83.8711 19.5567 83.4452V83.4452Z" fill="#053F72"/>
<path d="M39.4575 71.8087V60.4555H45.6458L45.8994 61.447L46.1265 62.4121L47.3755 61.5606C49.1837 60.3568 51.3403 59.7871 53.5071 59.9409C55.4374 60.1149 57.5115 60.9059 58.3896 61.833L58.9573 62.431L60.5773 61.4622C65.3728 58.5709 71.4475 59.7062 73.3513 63.8501C73.9191 65.0384 73.9456 65.7196 74.0326 74.1512L74.1159 83.1505H66.7353L66.6521 75.2033C66.565 67.5096 66.5385 67.2561 65.9405 66.6581C65.1835 65.9013 63.5863 65.8066 61.7771 66.5181L60.4448 67.0252V83.1505H53.1097L53.0264 75.2033C52.9394 67.4831 52.9129 67.2561 52.3148 66.6581C51.52 65.8634 49.62 65.8369 48.0871 66.5711L46.9781 67.1123L46.8911 75.1465L46.8381 83.1505H39.4575V71.8087Z" fill="#053F72"/>
<path d="M19.9238 55.0891C17.1722 54.1543 15.6128 51.967 15.6128 49.1022C15.6128 44.8977 18.6407 42.5741 24.1553 42.5741H26.6761V40.8712C26.6761 38.4832 26.1916 38.0329 23.6065 38.0329C21.9904 38.0329 20.4007 38.3432 18.16 39.0509C17.8194 39.1682 17.5923 38.6724 17.1078 36.697C16.5098 34.3696 16.5098 34.1728 16.9678 33.8284C18.8602 32.3828 25.8775 31.5578 28.6064 32.4698C30.6767 33.1775 32.1831 34.362 32.9477 35.959C33.5722 37.2344 33.629 37.7188 33.7728 43.5656L33.9128 49.8099L35.1353 49.8969C36.1573 49.9802 36.3276 50.0672 36.3276 50.6046C36.3276 50.9452 36.4109 52.0805 36.4979 53.1023L36.6947 54.9945L35.3889 55.3086C32.7395 55.986 30.0901 55.5924 28.9546 54.37L28.2998 53.6889L27.505 54.2565C25.4914 55.6757 22.5846 56.0162 19.9352 55.108L19.9238 55.0891ZM25.6314 50.2072L26.6836 49.9234V48.2507C26.6836 46.3585 26.3052 46.0633 24.5262 46.4039C22.1115 46.8581 21.6573 49.4996 23.845 50.3208C24.4657 50.5478 24.4392 50.5478 25.6314 50.2072Z" fill="#053F72"/>
<path d="M3.12255 54.4382V45.7795L3.14904 37.7491H0V35.3611C0 32.7121 0.0529887 32.6402 2.01357 32.6402H3.12255V30.6534C3.12255 26.7933 4.99608 23.9247 8.1754 22.8727C10.6167 22.0515 16.6044 22.3656 17.2024 23.3268C17.316 23.4706 17.1456 24.6627 16.8883 25.9759L16.3773 28.3335L14.2199 28.1935C12.2063 28.0535 11.9754 28.08 11.2677 28.7044C10.6734 29.2153 10.4463 29.7262 10.3025 30.8918L10.1322 32.3563H15.3213V37.7491H10.5031V55.0626H6.81283C3.17554 55.0626 3.12255 55.0626 3.12255 54.4382V54.4382Z" fill="#053F72"/>
<path d="M38.0308 52.9056V50.775L42.5726 44.4173C45.0707 40.9243 47.1145 37.9838 47.1145 37.9157C47.1145 37.8476 45.2221 37.7492 42.8565 37.7492H38.6061V32.3564H55.922V36.6404L54.0296 39.2516C53.0076 40.701 50.907 43.6225 49.3741 45.7796L46.5922 49.67H56.5011V55.0627H38.0308V52.9056Z" fill="#053F72"/>
<path d="M66.7621 52.6218C66.0846 52.1374 65.9407 51.6568 66.5085 51.6568C67.0762 51.6568 70.2934 50.037 72.0458 48.845L73.7187 47.7096L73.9193 45.439C74.4568 38.9677 77.8064 34.5097 86.4095 28.8067C90.5729 26.0554 97.0262 22.2786 97.223 22.4489C97.4239 23.4719 97.5667 24.5054 97.6507 25.5445C98.472 33.435 95.9172 40.8713 90.7243 45.6396C87.0908 48.932 83.3134 50.1808 77.549 49.9803L76.3038 49.9538L78.3477 47.7664C80.5883 45.3558 84.025 41.0681 84.025 40.701C84.025 40.5572 82.3748 42.2147 80.3612 44.3037C76.3871 48.4665 73.5219 50.8318 70.8233 52.1941C68.9308 53.1591 67.7007 53.303 66.7621 52.6218Z" fill="#053F72"/>
<path d="M67.5037 39.9896C66.2547 39.2819 66.6786 35.9024 68.836 29.4879C69.5173 27.4141 70.0282 25.6581 69.9714 25.5711C69.7746 25.3743 67.9276 29.5447 67.2198 31.7585C66.8792 32.8674 66.5083 33.7756 66.3947 33.7756C65.9973 33.7756 64.7748 31.9288 64.1238 30.3697C63.3024 28.3526 63.2154 24.4093 63.9837 22.2787C65.5431 17.9758 69.1198 14.4185 74.3998 11.9208L76.7843 10.812L76.9811 11.4932C77.0681 11.8906 77.3255 13.7903 77.4958 15.7771C78.3474 24.8331 76.2582 30.1994 70.7663 33.1512C68.8095 34.173 68.7792 34.2562 68.5824 38.2866C68.4953 40.1788 68.325 40.4702 67.5037 39.9896V39.9896Z" fill="#053F72"/>
<path d="M84.3086 17.2568C84.3351 17.0562 84.4487 16.3182 84.5622 15.6106C84.8196 14.3882 84.7893 14.3049 83.6273 13.0258C81.7803 10.952 81.3564 8.96519 82.1777 5.87335C82.6887 3.88656 84.3351 0 84.6455 0C84.7893 0 85.4441 0.567657 86.1254 1.21857C89.9292 5.00295 90.724 10.5016 87.9118 13.567C87.0337 14.5017 86.5796 14.3579 86.5796 13.1394C86.5796 11.5802 86.2389 9.08251 86.0383 9.08251C85.955 9.08251 85.868 10.6984 85.868 12.7155C85.868 16.4053 85.5841 17.5974 84.7325 17.5974C84.6324 17.6025 84.5339 17.5706 84.4557 17.5078C84.3775 17.445 84.3252 17.3556 84.3086 17.2568V17.2568Z" fill="#053F72"/>
</svg>
