<svg width="179" height="112" viewBox="0 0 179 112" fill="none" xmlns="http://www.w3.org/2000/svg">
<path d="M8.61262 111.366C7.44463 111.068 6.30483 110.669 5.20621 110.173L3.92691 109.549L3.83985 95.3008L3.78687 81.0791L5.97076 80.9088C7.19328 80.7953 8.86621 80.6553 9.69132 80.5985L11.1674 80.4585V90.0784L12.6398 89.3215C13.9493 88.6441 14.4603 88.5646 16.701 88.5646C18.7751 88.5646 19.4829 88.6782 20.3912 89.1891C23.0407 90.6082 24.7931 93.4465 25.3873 97.2233C26.4963 104.345 23.2867 109.996 17.2687 111.555C14.9713 112.149 11.2129 112.066 8.61262 111.384V111.366ZM15.8494 105.719C17.3633 104.781 17.8364 103.449 17.8364 100.326C17.8364 96.9205 17.2119 95.3008 15.5655 94.5326C14.9685 94.2565 14.3109 94.1377 13.6551 94.1874C12.9992 94.237 12.367 94.4536 11.8184 94.8164C11.1599 95.2176 11.1599 95.3311 11.1599 100.58C11.1599 103.502 11.2431 106.003 11.3567 106.086C11.4702 106.17 12.2953 106.287 13.2491 106.287C14.4414 106.287 15.2059 106.117 15.8607 105.719H15.8494Z" fill="#053F72"/>
<path d="M35.8641 111.563C34.0962 111.145 32.4759 110.253 31.1784 108.982C26.75 104.667 26.8333 95.7362 31.3752 91.3274C32.2485 90.5263 33.2341 89.8569 34.3009 89.3406C35.8641 88.6027 36.288 88.5459 39.2705 88.5459C43.0138 88.5459 44.3801 89 46.1666 90.7598C47.9531 92.5195 48.4678 94.0824 48.4375 97.3446C48.4375 98.9075 48.2975 100.523 48.1234 100.978L47.7865 101.734H35.2396L35.4099 102.612C35.5573 103.213 35.8139 103.781 36.1669 104.289C37.6127 106.329 40.5384 106.529 45.9584 104.997C46.4694 104.857 46.6132 105.11 47.2642 107.411L48.0212 109.992L47.1696 110.416C44.558 111.782 38.7633 112.35 35.8716 111.551L35.8641 111.563ZM41.5414 96.6634C41.5414 95.0172 40.4325 93.7986 38.9866 93.7986C36.9693 93.7986 35.8906 94.7031 35.4364 96.864L35.2396 97.7722H41.5414V96.6634Z" fill="#053F72"/>
<path d="M91.7559 111.309C91.1848 110.896 90.734 110.338 90.4501 109.693C90.0527 108.558 90.223 106.737 90.8475 105.772C91.9262 104.069 94.7384 103.475 96.5552 104.584C98.9964 106.098 98.7391 110.488 96.1275 111.562C94.7081 112.16 92.8649 112.077 91.7559 111.309Z" fill="#053F72"/>
<path d="M51.7607 100.183V88.6896H57.6652L58.0058 89.6811C58.0885 90.0349 58.2319 90.3717 58.4297 90.6764C58.9397 90.4248 59.4327 90.1404 59.9059 89.825C61.6091 88.7426 62.8013 88.4058 64.989 88.4058C67.1767 88.4058 69.3606 89.0567 70.4392 90.052L71.2606 90.843L72.2522 90.192C74.1296 89.0046 76.31 88.3843 78.5314 88.4058C82.1914 88.4058 84.3791 89.6244 85.6584 92.3794C86.2261 93.5677 86.2526 94.2224 86.3396 102.68L86.4229 111.68H79.0423L78.9591 103.702L78.872 95.7286L78.0507 95.0171C77.3126 94.3927 77.0288 94.3094 75.863 94.4495C75.0955 94.5336 74.3473 94.7446 73.6489 95.0739L72.7708 95.528V111.68H65.4129L65.3296 103.702L65.2426 95.7286L64.4213 95.0171C63.4523 94.1959 62.12 94.2224 60.22 95.0171L59.1413 95.4712V111.68H51.7607V100.183Z" fill="#053F72"/>
<path d="M91.4001 100.554C91.2563 99.3883 90.3782 83.8647 90.3782 82.5288C90.3782 81.8779 90.4312 81.8779 94.2085 81.8779H98.0426V82.6727C98.0426 83.0965 97.842 87.5545 97.5581 92.6066L97.0775 101.746H91.5288L91.4001 100.554Z" fill="#053F72"/>
<path d="M19.9373 84.1483C17.0154 83.6336 15.1948 82.1047 14.4303 79.5503C14.0896 78.3847 14.0063 76.4282 14.0063 69.6163V61.1582H21.3566L21.4399 69.1319L21.527 77.1056L22.2082 77.6467C23.0598 78.3544 24.8577 78.3279 26.4398 77.6203L27.632 77.0791V61.1582H35.005V83.891L31.9771 83.8077L28.9492 83.7207L28.6653 82.8692C28.2868 81.7339 28.3247 81.7339 27.3595 82.4151C25.2118 83.951 22.5432 84.5742 19.9373 84.1483V84.1483Z" fill="#053F72"/>
<path d="M39.8381 72.5118V61.1587H46.0265L46.28 62.1502L46.5071 63.1152L47.7562 62.2637C49.5643 61.0599 51.7209 60.4903 53.8877 60.644C55.818 60.8181 57.8921 61.609 58.7702 62.5362L59.338 63.1341L60.9579 62.1653C65.7534 59.274 71.8282 60.4094 73.732 64.5532C74.2997 65.7415 74.3262 66.4227 74.4132 74.8543L74.4965 83.8536H67.1159L67.0327 75.9064C66.9456 68.2127 66.9191 67.9592 66.3211 67.3613C65.5641 66.6044 63.9669 66.5098 62.1577 67.2212L60.8254 67.7283V83.8536H53.4903L53.407 75.9064C53.32 68.1863 53.2935 67.9592 52.6955 67.3613C51.9006 66.5665 50.0006 66.54 48.4677 67.2742L47.3587 67.8154L47.2717 75.8496L47.2187 83.8536H39.8381V72.5118Z" fill="#053F72"/>
<path d="M20.3044 55.7922C17.5528 54.8575 15.9934 52.6701 15.9934 49.8053C15.9934 45.6009 19.0213 43.2773 24.5359 43.2773H27.0567V41.5743C27.0567 39.1864 26.5722 38.736 23.9871 38.736C22.371 38.736 20.7813 39.0463 18.5407 39.754C18.2 39.8713 17.9729 39.3756 17.4884 37.4001C16.8904 35.0727 16.8904 34.8759 17.3484 34.5316C19.2409 33.0859 26.2581 32.2609 28.987 33.173C31.0573 33.8807 32.5637 35.0652 33.3283 36.6622C33.9528 37.9375 34.0096 38.4219 34.1534 44.2688L34.2934 50.513L35.516 50.6C36.5379 50.6833 36.7082 50.7703 36.7082 51.3077C36.7082 51.6483 36.7915 52.7836 36.8785 53.8054L37.0753 55.6976L35.7695 56.0117C33.1201 56.6891 30.4707 56.2955 29.3352 55.0732L28.6804 54.392L27.8856 54.9596C25.872 56.3788 22.9652 56.7194 20.3158 55.8111L20.3044 55.7922ZM26.0121 50.9104L27.0643 50.6265V48.9538C27.0643 47.0616 26.6858 46.7665 24.9069 47.1071C22.4921 47.5612 22.0379 50.2027 24.2256 51.0239C24.8463 51.2509 24.8198 51.2509 26.0121 50.9104Z" fill="#053F72"/>
<path d="M3.50316 55.1413V46.4827L3.52966 38.4522H0.380615V36.0643C0.380615 33.4152 0.433604 33.3433 2.39419 33.3433H3.50316V31.3565C3.50316 27.4964 5.37669 24.6279 8.55602 23.5758C10.9973 22.7546 16.985 23.0687 17.583 24.0299C17.6966 24.1737 17.5262 25.3658 17.2689 26.679L16.7579 29.0367L14.6005 28.8967C12.5869 28.7566 12.3561 28.7831 11.6483 29.4075C11.0541 29.9184 10.827 30.4293 10.6831 31.5949L10.5128 33.0595H15.7019V38.4522H10.8837V55.7657H7.19345C3.55615 55.7657 3.50316 55.7658 3.50316 55.1413V55.1413Z" fill="#053F72"/>
<path d="M38.4114 53.6087V51.4781L42.9533 45.1204C45.4513 41.6274 47.4951 38.6869 47.4951 38.6188C47.4951 38.5507 45.6027 38.4523 43.2371 38.4523H38.9867V33.0596H56.3026V37.3435L54.4102 39.9547C53.3882 41.4041 51.2876 44.3257 49.7547 46.4828L46.9728 50.3731H56.8817V55.7658H38.4114V53.6087Z" fill="#053F72"/>
<path d="M67.1427 53.3249C66.4652 52.8405 66.3213 52.3599 66.8891 52.3599C67.4568 52.3599 70.674 50.7402 72.4264 49.5481L74.0993 48.4128L74.2999 46.1421C74.8374 39.6709 78.187 35.2129 86.7901 29.5098C90.9535 26.7586 97.4068 22.9817 97.6036 23.152C97.8045 24.175 97.9473 25.2085 98.0313 26.2477C98.8526 34.1381 96.2978 41.5744 91.1049 46.3427C87.4714 49.6351 83.6941 50.884 77.9297 50.6834L76.6844 50.6569L78.7283 48.4695C80.9689 46.0589 84.4056 41.7712 84.4056 41.4041C84.4056 41.2603 82.7554 42.9179 80.7418 45.0068C76.7677 49.1696 73.9025 51.5349 71.2039 52.8973C69.3114 53.8623 68.0813 54.0061 67.1427 53.3249V53.3249Z" fill="#053F72"/>
<path d="M67.8843 40.6927C66.6353 39.985 67.0592 36.6056 69.2166 30.191C69.8979 28.1172 70.4088 26.3613 70.3521 26.2742C70.1552 26.0774 68.3082 30.2478 67.6004 32.4617C67.2598 33.5705 66.8889 34.4787 66.7753 34.4787C66.3779 34.4787 65.1554 32.632 64.5044 31.0728C63.6831 29.0557 63.596 25.1124 64.3643 22.9818C65.9237 18.679 69.5005 15.1217 74.7804 12.624L77.1649 11.5151L77.3617 12.1963C77.4488 12.5937 77.7061 14.4934 77.8765 16.4802C78.7281 25.5363 76.6388 30.9025 71.1469 33.8543C69.1901 34.8761 69.1598 34.9594 68.963 38.9897C68.8759 40.8819 68.7056 41.1733 67.8843 40.6927V40.6927Z" fill="#053F72"/>
<path d="M84.6892 17.9599C84.7157 17.7593 84.8293 17.0214 84.9428 16.3137C85.2002 15.0913 85.1699 15.0081 84.008 13.729C82.1609 11.6551 81.737 9.66832 82.5583 6.57648C83.0693 4.58968 84.7157 0.703125 85.0261 0.703125C85.1699 0.703125 85.8247 1.27078 86.506 1.92169C90.3098 5.70607 91.1046 11.2048 88.2925 14.2701C87.4144 15.2049 86.9602 15.0611 86.9602 13.8425C86.9602 12.2833 86.6195 9.78563 86.4189 9.78563C86.3357 9.78563 86.2486 11.4016 86.2486 13.4186C86.2486 17.1084 85.9647 18.3005 85.1131 18.3005C85.013 18.3056 84.9145 18.2737 84.8363 18.2109C84.7582 18.1481 84.7058 18.0588 84.6892 17.9599V17.9599Z" fill="#053F72"/>
<path d="M111.812 111.278C110.699 110.855 110.393 110.522 110.741 110.064C110.983 109.723 111.044 109.723 111.729 110.147C113.088 110.938 115.033 110.389 114.405 109.39C114.284 109.189 113.595 108.822 112.891 108.558C111.452 108.054 110.885 107.528 110.885 106.718C110.885 105.481 112.24 104.694 113.985 104.955C115.218 105.14 115.661 105.481 115.358 106.048C115.158 106.427 115.097 106.453 114.567 106.17C113.901 105.825 112.675 105.791 112.342 106.128C111.695 106.779 112.202 107.324 114.083 107.91C115.014 108.194 115.745 108.925 115.745 109.553C115.729 109.86 115.647 110.161 115.504 110.433C115.361 110.706 115.16 110.944 114.916 111.131C114.265 111.509 112.705 111.596 111.816 111.271L111.812 111.278Z" fill="#053F72"/>
<path d="M118.776 111.12C118.216 110.877 117.743 110.471 117.418 109.954C117.093 109.437 116.932 108.835 116.956 108.225C116.912 107.609 117.076 106.996 117.421 106.484C117.747 105.992 118.189 105.589 118.708 105.31C119.228 105.03 119.808 104.884 120.398 104.884C120.988 104.884 121.568 105.03 122.088 105.31C122.607 105.589 123.05 105.992 123.375 106.484C123.692 107.009 123.86 107.611 123.86 108.225C123.86 108.839 123.692 109.441 123.375 109.966C123.015 110.423 122.565 110.801 122.052 111.075C121.54 111.35 120.976 111.516 120.396 111.563C119.833 111.519 119.283 111.369 118.776 111.12V111.12ZM121.592 110.25C121.943 110.009 122.235 109.693 122.449 109.325C122.662 108.957 122.791 108.547 122.826 108.123C122.826 105.852 119.325 105.065 118.284 107.109C117.243 109.152 119.499 111.343 121.604 110.25H121.592Z" fill="#053F72"/>
<path d="M125.865 108.225V104.883H126.876V110.56H128.295C129.673 110.56 129.711 110.579 129.711 111.067C129.711 111.555 129.711 111.57 127.788 111.57H125.865V108.225Z" fill="#053F72"/>
<path d="M131.142 108.225V104.883H132.152V111.563H131.142V108.225Z" fill="#053F72"/>
<path d="M134.571 108.225V104.883H136.251C138.927 104.883 140.384 105.856 140.585 107.778C140.789 109.459 139.957 110.836 138.439 111.343C137.693 111.502 136.931 111.575 136.168 111.563H134.567L134.571 108.225ZM138.783 109.985C139.171 109.654 139.435 109.202 139.535 108.702C139.634 108.202 139.563 107.684 139.332 107.23C138.863 106.28 138.117 105.894 136.683 105.894H135.57V110.552H136.864C138 110.552 138.223 110.492 138.757 109.985H138.783Z" fill="#053F72"/>
<path d="M142.549 108.285C143.946 105.106 144.029 104.985 144.597 104.985C145.165 104.985 145.244 105.106 146.557 108.123C147.314 109.844 147.935 111.32 147.935 111.4C147.935 111.479 147.712 111.563 147.428 111.563C147.049 111.563 146.841 111.381 146.58 110.855L146.236 110.147H142.852L142.549 110.855C142.307 111.442 142.144 111.563 141.679 111.563H141.092L142.549 108.285ZM145.282 107.778C144.938 107.021 144.635 106.382 144.597 106.321C144.559 106.261 143.969 107.392 143.461 108.69C143.299 109.114 143.318 109.133 144.597 109.133H145.903L145.282 107.778Z" fill="#053F72"/>
<path d="M149.555 108.202V104.841L151.448 104.921C153.677 105.004 154.385 105.348 154.687 106.541C154.818 106.963 154.822 107.414 154.7 107.839C154.578 108.264 154.334 108.644 153.999 108.932L153.431 109.458L154.12 110.37C154.394 110.69 154.625 111.043 154.809 111.422C154.809 111.502 154.547 111.562 154.241 111.562C153.775 111.562 153.575 111.381 153.086 110.552C152.5 109.56 152.481 109.538 151.531 109.538H150.558V110.552C150.558 111.502 150.516 111.562 150.051 111.562H149.544L149.555 108.202ZM153.404 108.122C153.639 107.873 153.781 107.551 153.809 107.21C153.809 106.321 153.162 105.893 151.784 105.893H150.569V108.542H151.784C152.734 108.542 153.079 108.459 153.404 108.138V108.122Z" fill="#053F72"/>
<path d="M156.845 108.225V104.883H157.859V111.563H156.845V108.225Z" fill="#053F72"/>
<path d="M160.573 108.285C161.989 105.125 162.087 104.985 162.636 104.985C163.185 104.985 163.264 105.125 164.581 108.123C165.338 109.844 165.959 111.32 165.959 111.4C165.959 111.479 165.736 111.563 165.452 111.563C165.073 111.563 164.865 111.381 164.6 110.855L164.256 110.147H160.876L160.573 110.855C160.327 111.442 160.168 111.563 159.703 111.563H159.112L160.573 108.285ZM163.306 107.778C162.961 107.021 162.659 106.382 162.617 106.321C162.575 106.261 161.989 107.392 161.481 108.69C161.319 109.114 161.341 109.133 162.617 109.133H163.911L163.306 107.778Z" fill="#053F72"/>
<path d="M168.124 111.279C167.011 110.874 166.727 110.59 167.011 110.144C167.234 109.765 167.272 109.765 168.044 110.163C169.483 110.919 171.303 110.367 170.694 109.406C170.573 109.205 169.884 108.838 169.18 108.573C167.745 108.07 167.178 107.544 167.178 106.734C167.178 105.519 168.472 104.728 170.153 104.97C171.447 105.133 171.875 105.417 171.712 105.966C171.53 106.571 171.53 106.571 170.841 106.227C170.153 105.882 168.979 105.803 168.635 106.144C167.988 106.794 168.491 107.339 170.376 107.926C171.307 108.21 172.038 108.94 172.038 109.568C172.038 111.165 170.145 111.998 168.128 111.287L168.124 111.279Z" fill="#053F72"/>
<path d="M144.351 104.111C144.192 104.013 144.29 103.771 144.676 103.283C145.202 102.635 145.263 102.617 145.789 102.904L146.338 103.188L145.581 103.737C144.71 104.346 144.71 104.346 144.366 104.115L144.351 104.111Z" fill="#053F72"/>
<path d="M138.075 102.514C137.568 102.313 137.811 101.867 138.48 101.806C139.237 101.746 139.393 101.178 138.681 101.076C138.303 101.015 138.257 100.936 138.42 100.531C138.583 100.126 138.541 100.024 137.852 99.8196C135.464 99.1951 134.752 95.7097 136.698 94.1733C137.913 93.2196 139.858 93.1401 140.929 93.9689C141.357 94.3133 141.418 94.4571 141.255 94.7598C141.05 95.1383 141.031 95.1383 140.384 94.7598C139.169 94.003 137.508 94.3814 136.902 95.5697C135.827 97.6549 138.117 99.8006 140.263 98.688C140.748 98.4421 140.952 98.4231 141.172 98.6275C141.391 98.8318 141.418 98.9113 141.134 99.2519C140.797 99.5245 140.412 99.7312 139.998 99.8612C139.147 100.103 139.025 100.41 139.62 100.792C140.774 101.504 139.377 103.063 138.06 102.514H138.075Z" fill="#053F72"/>
<path d="M111.286 96.6826V93.341H112.887C113.65 93.3295 114.412 93.4044 115.158 93.5643C118.091 94.5558 118.091 98.8094 115.158 99.801C114.412 99.9608 113.65 100.036 112.887 100.024H111.286V96.6826ZM115.498 98.4424C115.884 98.111 116.148 97.6598 116.247 97.1609C116.345 96.6621 116.274 96.1445 116.044 95.6911C115.578 94.7412 114.829 94.3552 113.413 94.3552H112.278V99.01H113.576C114.711 99.01 114.931 98.9495 115.468 98.4424H115.498Z" fill="#053F72"/>
<path d="M119.181 96.6824V93.3408H123.84V93.8479C123.84 94.355 123.84 94.355 122.016 94.355H120.196V96.1753H121.815C123.416 96.1753 123.435 96.1753 123.435 96.6824C123.435 97.1895 123.416 97.1895 121.815 97.1895H120.196V99.0098H122.118C124.041 99.0098 124.041 99.0098 124.041 99.5169V100.043H119.181V96.6824Z" fill="#053F72"/>
<path d="M129.389 96.6824C130.744 93.5452 130.865 93.3635 131.391 93.3408C132.001 93.3408 132.042 93.3824 133.942 97.7572L134.938 100.028H134.347C133.863 100.028 133.681 99.8878 133.416 99.3201L133.072 98.6087H129.711L129.366 99.3201C129.105 99.8651 128.901 100.028 128.477 100.028H127.951L129.389 96.6824ZM132.122 96.2397C131.777 95.4828 131.475 94.8394 131.433 94.7789C131.391 94.7183 130.805 95.8536 130.298 97.1479C130.135 97.5755 130.154 97.5945 131.433 97.5945H132.727L132.122 96.2397Z" fill="#053F72"/>
<path d="M144.29 99.5773C143.056 98.9302 142.61 98.2414 142.508 96.845C142.447 95.8724 142.508 95.5507 142.913 94.9831C144.805 92.1486 149.347 93.3406 149.347 96.6822C149.391 97.2982 149.227 97.9111 148.881 98.4231C148.523 98.8838 148.074 99.2655 147.561 99.5443C147.049 99.823 146.484 99.9927 145.903 100.043C145.339 99.9976 144.79 99.846 144.283 99.5962L144.29 99.5773ZM147.269 98.6047C148.605 97.7949 148.605 95.5772 147.246 94.7409C146.054 94.0105 144.393 94.3965 143.787 95.5696C142.651 97.7154 145.161 99.9027 147.269 98.5971V98.6047Z" fill="#053F72"/>
<path d="M151.379 96.6824V93.3408H156.035V93.8479C156.035 94.355 156.035 94.355 154.214 94.355H152.39V96.1753H154.01C155.611 96.1753 155.63 96.1753 155.63 96.6824C155.63 97.1895 155.611 97.1895 154.01 97.1895H152.39V99.0098H154.313C156.239 99.0098 156.239 99.0098 156.239 99.5169V100.043H151.379V96.6824Z" fill="#053F72"/>
<path d="M158.586 99.7399C157.473 99.3161 157.17 98.983 157.515 98.5251C157.757 98.1808 157.817 98.1808 158.506 98.6046C159.861 99.3955 161.807 98.8468 161.178 97.8477C161.057 97.6434 160.368 97.2801 159.664 97.0152C158.226 96.5081 157.659 95.982 157.659 95.1722C157.659 93.9385 159.017 93.1476 160.758 93.4125C162.011 93.5941 162.439 93.9385 162.132 94.5061C161.913 94.93 161.871 94.93 161.303 94.6462C160.596 94.2677 159.46 94.2412 159.116 94.5856C158.468 95.2327 158.976 95.7815 160.861 96.368C161.792 96.6519 162.518 97.3785 162.518 98.0067C162.503 98.3147 162.421 98.6157 162.278 98.8888C162.135 99.162 161.934 99.4007 161.689 99.5885C161.042 99.967 159.483 100.05 158.59 99.7286L158.586 99.7399Z" fill="#053F72"/>
<path d="M144.192 92.2887C144.472 91.3805 144.778 91.2367 145.831 91.5319C146.557 91.7324 146.822 91.7551 146.883 91.5735C146.927 91.4906 146.995 91.4229 147.078 91.3791C147.161 91.3352 147.255 91.3173 147.348 91.3275C147.833 91.3275 147.874 91.9784 147.409 92.4212C147.004 92.8261 146.652 92.8261 145.872 92.4212C145.282 92.1184 145.221 92.1184 145.002 92.4212C144.93 92.5123 144.841 92.5881 144.74 92.644C144.638 92.6999 144.527 92.7348 144.411 92.7467C144.15 92.7467 144.09 92.6445 144.192 92.3001V92.2887Z" fill="#053F72"/>
<path d="M111.286 85.1438V81.8022H112.766C115.457 81.8022 116.327 82.3283 116.407 83.9896C116.486 85.651 115.722 86.2602 113.674 86.4192L112.296 86.5214V87.4902C112.296 88.4211 112.259 88.4817 111.793 88.4817H111.286V85.1438ZM114.969 85.1022C115.215 84.831 115.35 84.477 115.347 84.1107C115.347 83.2176 114.738 82.8127 113.383 82.8127H112.308V85.4617H113.462C114.219 85.4617 114.719 85.3596 114.976 85.1174L114.969 85.1022Z" fill="#053F72"/>
<path d="M118.171 85.1439V81.8022H119.181V87.4788H120.601C121.978 87.4788 122.016 87.4977 122.016 87.9859C122.016 88.4741 122.016 88.4893 120.093 88.4893H118.171V85.1439Z" fill="#053F72"/>
<path d="M123.719 85.2042C125.055 82.1767 125.233 81.9042 125.721 81.8437C126.331 81.7604 126.149 81.4387 128.254 86.2146L129.268 88.4853H128.681C128.193 88.4853 128.011 88.3452 127.746 87.7776L127.402 87.0699H124.022L123.719 87.7776C123.473 88.3641 123.314 88.4853 122.849 88.4853H122.258L123.719 85.2042ZM126.452 84.6971C126.108 83.9402 125.805 83.3007 125.763 83.2401C125.722 83.1796 125.135 84.3111 124.628 85.6091C124.465 86.033 124.484 86.0519 125.763 86.0519H127.061L126.452 84.6971Z" fill="#053F72"/>
<path d="M130.926 85.6623V82.8278H129.813C128.761 82.8278 128.7 82.8089 128.7 82.3245V81.8022H133.965V82.3094C133.965 82.7748 133.904 82.8127 132.951 82.8127H131.94V88.4893H130.926V85.6623Z" fill="#053F72"/>
<path d="M135.059 85.2045C136.372 82.2073 136.573 81.9045 137.061 81.844C137.67 81.7607 137.689 81.8023 139.612 86.2149L140.608 88.4856H140.017C139.533 88.4856 139.351 88.3455 139.086 87.7779L138.742 87.0702H135.362L135.059 87.7779C134.813 88.3645 134.654 88.4856 134.188 88.4856H133.598L135.059 85.2045ZM137.792 84.6974C137.447 83.9405 137.144 83.301 137.103 83.2404C137.061 83.1799 136.474 84.3114 135.967 85.6094C135.808 86.0333 135.827 86.0522 137.103 86.0522H138.397L137.792 84.6974Z" fill="#053F72"/>
<path d="M142.065 85.1439V81.8022H146.52V82.3094C146.52 82.8127 146.497 82.8127 144.797 82.8127H143.075V84.8373H144.589C146.065 84.8373 146.103 84.86 146.103 85.3444C146.103 85.8288 146.062 85.8515 144.589 85.8515H143.075V87.1761C143.075 88.4514 143.075 88.4893 142.572 88.4893H142.065V85.1439Z" fill="#053F72"/>
<path d="M149.354 88.0388C148.794 87.7965 148.32 87.3904 147.994 86.8737C147.668 86.357 147.507 85.754 147.53 85.1438C147.53 83.8079 148.117 82.8958 149.354 82.2487C150.132 81.8511 151.028 81.7509 151.874 81.9669C152.72 82.1829 153.458 82.7003 153.949 83.4219C154.267 83.9436 154.435 84.5425 154.435 85.1532C154.435 85.7639 154.267 86.3629 153.949 86.8846C153.59 87.3415 153.141 87.7193 152.629 87.9941C152.117 88.269 151.554 88.4349 150.974 88.4816C150.411 88.4383 149.861 88.288 149.354 88.0388V88.0388ZM152.167 87.1684C152.501 86.9387 152.784 86.6416 152.997 86.2962C153.21 85.9508 153.349 85.5647 153.404 85.1627C153.369 84.7573 153.243 84.3651 153.036 84.0147C152.829 83.6644 152.546 83.3648 152.208 83.1381C150.974 82.4909 149.434 82.9148 148.847 84.0274C147.772 86.0936 150.062 88.2621 152.167 87.1684V87.1684Z" fill="#053F72"/>
<path d="M156.44 85.1213V81.7607L158.332 81.844C159.892 81.8818 160.357 81.984 160.823 82.3284C161.073 82.535 161.277 82.7914 161.422 83.0814C161.567 83.3714 161.65 83.6885 161.665 84.0124C161.68 84.3363 161.628 84.6598 161.511 84.9622C161.394 85.2646 161.215 85.5392 160.985 85.7684C160.778 85.9437 160.606 86.1569 160.478 86.3966C160.657 86.7486 160.861 87.0875 161.088 87.4108C161.324 87.7187 161.527 88.0511 161.693 88.4023C161.693 88.4439 161.432 88.4818 161.126 88.4818C160.66 88.4818 160.459 88.3001 159.971 87.4714C159.384 86.4799 159.366 86.4572 158.416 86.4572H157.443V87.4714C157.443 88.4212 157.401 88.4818 156.936 88.4818H156.428L156.44 85.1213ZM160.289 85.0418C160.523 84.7923 160.666 84.4708 160.694 84.1298C160.694 83.2404 160.047 82.8128 158.669 82.8128H157.454V85.4619H158.669C159.619 85.4619 159.964 85.3786 160.289 85.0569V85.0418Z" fill="#053F72"/>
<path d="M163.729 85.1438V81.8022H164.316C164.865 81.8022 164.986 81.9423 166.019 84.0729L167.113 86.3435L168.249 84.0729C169.343 81.9233 169.445 81.8022 170.012 81.8022H170.618V88.4817H169.626L169.566 86.1164L169.505 83.7247L168.491 85.7115C167.802 87.0663 167.378 87.6718 167.136 87.6718C166.894 87.6718 166.447 87.0474 165.72 85.6093L164.645 83.5241L164.585 86.0142C164.543 88.3227 164.505 88.4817 164.138 88.4817C163.771 88.4817 163.733 88.3227 163.733 85.1438H163.729Z" fill="#053F72"/>
<path d="M172.174 87.8343C172.336 87.4559 172.984 85.9913 173.631 84.5343C174.725 82.0253 174.808 81.8853 175.372 81.8853C175.936 81.8853 176.023 82.0064 177.336 85.0225C178.093 86.7444 178.714 88.2203 178.714 88.3036C178.714 88.3868 178.491 88.4625 178.207 88.4625C177.828 88.4625 177.62 88.2809 177.359 87.7548L177.015 87.0471H173.654L173.309 87.7548C173.044 88.3036 172.844 88.4625 172.416 88.4625C171.89 88.4625 171.89 88.4625 172.174 87.8154V87.8343ZM176.042 84.6365C175.697 83.8456 175.334 83.2817 175.251 83.3612C174.991 83.8194 174.774 84.3008 174.604 84.7992L174.077 86.0405H176.67L176.042 84.6365Z" fill="#053F72"/>
</svg>
