<svg width="899" height="623" viewBox="0 0 899 623" fill="none" xmlns="http://www.w3.org/2000/svg">
<path d="M396.34 1.76206C374.76 -0.634448 349.42 -1.79555 335.06 13.3266C320.3 28.8667 325.56 53.0268 334.23 72.106C342.9 91.1852 354.43 111.24 349.48 131.424C339.47 172.276 271.41 182.169 261.79 223.104C253.24 259.461 297.95 292.761 290.27 329.285C286.27 348.317 268.39 362.622 248.98 369.849C229.56 377.075 208.35 378.645 187.69 381.729C156.43 386.383 124.95 395.058 100.13 413.264C75.3103 431.47 58.2003 460.702 62.3903 489.776C65.9503 514.475 83.6203 535.282 92.4603 558.82C101.3 582.348 96.3503 615.007 70.7703 622.68H957.57V0.340874L396.34 1.76206Z" fill="url(#paint0_linear)"/>
<path d="M197.74 284.828C184.26 288.349 164.07 299.263 162.57 315.686C160.74 335.796 187.72 355.302 211.66 357.838C240.59 360.903 265 339.567 264.95 320.553C264.89 298.882 230.78 276.208 197.74 284.828Z" fill="#8E434A"/>
<path d="M218.7 268.935C227.13 270.022 231.82 270.626 234.58 267.7C239.32 262.675 235.59 250.172 229.83 242.592C221.81 232.05 204.54 224.024 195.9 231.492C188.75 237.669 189.15 253.005 196.03 261.105C200.71 266.613 207.3 267.458 218.7 268.935Z" fill="#8E434A"/>
<path d="M32.9604 530.043C49.9004 529.606 61.3904 548.695 64.1304 553.256C67.5204 558.894 75.8004 572.66 71.1904 587.856C65.9104 605.236 45.3904 619.178 25.8904 613.335C7.45037 607.809 -0.0596436 587.606 0.000356462 572.985C0.0703565 552.503 15.0704 530.507 32.9604 530.043Z" fill="#8E434A"/>
<path d="M323.33 127.151C321.29 132.409 313.14 141.456 301.11 141.605C293.86 141.698 286.78 137.192 283.56 129.269C279.18 118.503 282.97 104.032 291.88 96.8885C301.56 89.1137 314.9 91.8818 320.56 102.35C324.75 110.106 327.28 116.989 323.33 127.151Z" fill="#8E434A"/>
<path d="M654.162 529.341C640.566 531.293 645.933 529.481 540.6 527.005C478.694 525.557 461.431 525.819 456.213 536.805C450.911 547.978 459.57 566.998 472.372 576.938C495.919 595.22 520.335 572.566 579.651 569.474C625.108 567.101 629.886 579.413 690.969 576.938C721.913 575.686 758.28 573.902 762.339 558.74C765.266 547.782 750.668 532.255 736.305 524.679C712.524 512.123 693.812 523.661 654.162 529.341Z" fill="#F1EABE"/>
<path d="M567.887 450.186C555.637 447.72 543.377 445.329 531.258 442.274C490.308 431.951 451.145 417.209 414.768 395.517C399.787 386.587 385.442 376.796 373.201 364.25C363.046 353.834 354.527 342.25 351.057 327.891C345.877 306.442 350.216 287.385 367.16 272.279C375.249 265.067 385.33 261.76 395.635 259.209C410.429 255.547 425.503 253.118 440.092 248.588C453.95 244.281 466.967 238.424 477.768 228.474C483.744 222.963 488.55 216.704 489.485 208.23C489.859 204.802 488.971 201.532 488.401 198.225C487.091 190.602 485.894 182.979 487.241 175.235C489.121 164.426 495.47 156.579 504.195 150.46C512.836 144.397 522.58 141.015 532.941 139.296C532.913 139.735 532.932 140.184 532.848 140.623C530.192 154.888 534.288 166.911 544.574 177.094C561.715 194.068 578.744 211.145 595.745 228.25C597.353 229.876 598.157 229.997 599.85 228.288C615.962 212.042 632.103 195.834 648.393 179.775C654.34 173.908 659.502 167.64 662.167 159.606C684.311 168.77 705.632 179.56 726.084 192.041C749.49 206.325 772.41 221.347 793.46 238.984C806.393 249.821 818.138 261.872 825.713 277.137C842.302 310.581 840.264 343.539 821.785 375.619C811.639 393.247 796.537 405.943 779.181 415.976C749.799 432.96 718.808 446.067 685.471 453.12C665.197 457.408 644.69 458.463 624.042 457.053C624.332 453.288 624.294 449.495 624.416 445.73C624.902 431.157 626.398 416.639 626.324 402.038C626.296 396.358 625.351 390.856 624.547 385.297C627.118 385.783 629.101 387.53 631.439 388.53C633.028 389.212 633.908 389.109 634.16 387.147C634.796 382.074 635.516 376.974 635.123 371.882C634.656 365.81 635.469 360.252 639.257 355.3C639.883 354.478 640.135 353.385 640.575 352.423C642.193 348.901 641.707 344.987 642.623 341.334C642.932 340.11 643.25 339.288 644.699 339.774C645.606 340.082 646.681 341.231 647.327 339.587C647.925 338.055 648.729 336.327 647.233 334.888C645.784 333.487 644.138 332.282 642.576 330.993C642.819 327.742 643.053 324.5 643.296 321.249C643.371 320.268 643.437 319.231 642.632 318.531C639.752 316.027 636.732 313.832 632.561 314.616C633.3 312.131 632.243 310.786 629.84 310.151C628.83 309.88 627.801 309.497 627.053 308.675C626.66 308.245 626.548 307.731 626.838 307.208C627.072 306.778 627.698 306.451 627.923 306.75C629.971 309.488 632.589 307.432 634.927 307.647C636.021 307.75 637.115 307.731 637.751 306.638C638.144 305.966 638.695 306.04 639.331 305.984C642.174 305.732 643.128 303.938 641.613 301.426C640.566 299.688 639.275 298.09 638.05 296.465C637.433 295.643 637.134 294.867 637.47 293.774C638.677 289.813 636.984 287.263 632.795 287.45C627.895 287.674 627.399 286.086 626.632 281.49C626.165 278.706 626.146 275.857 625.173 273.157C623.808 269.355 622.069 267.916 618.085 267.692C616.645 267.617 615.485 267.019 614.597 266.01C613.372 264.618 612.268 263.124 611.118 261.666C608.799 258.714 604.946 257.163 601.673 258.826C598.307 260.545 595.09 259.798 591.836 259.434C588.61 259.069 585.87 259.592 583.541 261.89C583.345 260.321 583.289 258.714 582.924 257.182C581.577 251.521 582.297 245.589 580.455 239.956C579.81 237.984 579.137 237.013 577.07 237.321C576.986 236.798 576.911 236.275 576.827 235.752C575.705 229.268 572.89 223.028 574.143 216.208C574.265 215.526 574.059 214.704 573.488 214.247C568.888 210.594 564.109 207.222 558.19 206.063C556.983 205.83 555.721 206.297 555.814 207.847C556.011 211.173 558.18 213.714 559.583 216.545C560.294 217.974 561.996 217.927 563.342 218.114C564.876 218.32 565.297 219.03 565.53 220.487C566.372 225.672 566.503 230.885 566.578 236.116C565.764 237.321 564.81 236.508 563.969 236.219C562.117 235.584 560.275 235.004 558.274 235.182C557.404 235.257 556.385 235.023 555.964 236.06C555.581 237.004 556.188 237.816 556.75 238.461C558.536 240.535 560.359 242.581 562.248 244.571C563.314 245.682 563.931 246.915 564.455 248.391C565.774 252.156 565.802 255.865 565.484 259.817C564.782 268.645 566.129 277.482 565.933 286.329C565.923 286.684 565.923 287.058 566.026 287.385C566.858 289.963 566.092 292.336 565.484 294.867C564.558 298.744 563.744 302.864 566.307 306.573C567.354 308.096 566.999 309.189 565.923 310.581C562.865 314.551 558.349 315.896 554.038 317.69C547.81 320.287 541.152 322.034 536.251 327.228C534.97 328.592 535.008 329.143 536.177 330.339C541.451 335.776 547.38 340.26 554.103 343.819C558.367 346.08 562.875 347.948 566.615 351.218C568.196 352.601 569.093 354.656 571.113 355.534C571.113 357.243 571.553 358.785 572.563 360.214C573.32 361.289 574.115 362.587 573.563 363.886C572.666 366.006 573.573 367.613 574.583 369.276C574.358 370.948 573.675 372.499 573.236 374.106C572.628 376.329 570.758 377.936 570.608 380.355C570.374 384.139 569.944 387.913 569.645 391.697C569.523 393.21 569.486 394.77 568.383 395.919C567.532 396.807 567.541 397.75 567.532 398.834C567.504 401.711 567.859 404.719 567.176 407.456C565.203 415.397 564.773 423.095 566.952 431.185C568.607 437.285 567.382 443.843 567.887 450.186ZM635.703 245.243C635.638 248.634 636.881 251.484 639.238 253.847C644.241 258.882 649.309 263.852 654.275 268.925C655.397 270.074 656.061 270.13 657.211 268.944C662.046 263.992 666.993 259.153 671.865 254.239C674.623 251.465 675.652 248.354 675.456 244.216C675.1 236.621 665.487 230.249 657.314 235.724C655.902 236.667 655.06 236.611 653.704 235.686C650.141 233.257 646.176 232.912 642.333 234.827C638.134 236.91 635.834 240.46 635.703 245.243ZM724.924 255.902C719.154 255.902 715.554 258.266 713.553 262.834C711.486 267.533 712.403 271.952 715.891 275.595C720.912 280.855 726.196 285.853 731.255 291.075C732.527 292.383 733.144 291.962 734.182 290.925C739.054 286.011 743.851 281.013 748.948 276.342C754.138 271.587 753.062 263.619 749.892 259.966C745.806 255.239 739.297 254.408 733.845 258.154C732.751 258.91 732.153 258.826 731.171 258.06C729.17 256.472 726.823 255.725 724.924 255.902ZM478.432 258.565C478.357 260.424 479.751 263.282 482.182 265.702C487.073 270.588 492.01 275.427 496.826 280.387C498.107 281.705 498.855 281.77 500.174 280.406C504.924 275.502 509.815 270.747 514.622 265.898C517.362 263.133 518.409 260.013 518.241 255.884C517.951 249.111 509.479 242.123 500.744 247.046C498.949 248.055 497.883 248.345 495.984 247.121C492.319 244.767 488.251 244.692 484.379 246.897C480.527 249.101 478.544 252.474 478.432 258.565ZM513.191 343.025C513.294 338.121 511.62 334.029 507.159 331.703C502.839 329.451 498.407 329.601 494.395 332.59C493.198 333.478 492.599 332.964 491.674 332.347C486.268 328.751 479.694 329.694 475.645 334.589C472.064 338.915 472.447 345.772 476.693 350.125C481.77 355.328 486.979 360.401 492.094 365.576C492.899 366.389 493.413 366.726 494.395 365.717C499.725 360.27 505.168 354.917 510.498 349.471C512.209 347.715 513.144 345.519 513.191 343.025ZM538.683 279.407C534.25 279.154 531.707 280.649 530.21 283.732C528.621 287.011 529.042 290.225 531.473 292.85C535.017 296.68 538.823 300.276 542.498 303.985C543.134 304.63 543.63 304.985 544.443 304.153C548.212 300.286 552.102 296.54 555.796 292.597C558.199 290.028 558.003 286.833 556.731 283.891C555.403 280.799 552.803 278.968 549.325 279.407C545.425 279.892 541.591 281.779 538.683 279.407ZM683.189 332.656C683.816 325.836 676.194 321.875 670.509 325.509C669.695 326.032 669.171 326.228 668.199 325.658C664.028 323.202 659.568 323.874 656.968 327.181C654.322 330.535 654.761 335.309 658.09 338.709C661.316 341.997 664.636 345.192 667.825 348.509C668.891 349.62 669.545 349.891 670.761 348.621C674.053 345.155 677.494 341.829 680.879 338.457C682.516 336.813 683.535 334.935 683.189 332.656Z" fill="#F1EABE"/>
<path d="M662.167 159.606C659.502 167.64 654.35 173.908 648.393 179.775C632.093 195.834 615.953 212.042 599.85 228.288C598.157 229.997 597.353 229.866 595.745 228.25C578.744 211.145 561.715 194.068 544.574 177.094C534.297 166.911 530.192 154.888 532.847 140.623C532.932 140.193 532.913 139.745 532.941 139.297C535.11 132.253 538.412 125.928 543.845 120.743C558.105 107.132 580.932 106.478 595.726 119.482C597.344 120.902 598.223 120.837 599.812 119.529C615.719 106.45 636.675 106.805 651.628 120.818C662.158 130.693 665.356 143.192 662.672 157.27C662.532 158.046 662.345 158.821 662.167 159.606Z" fill="#D94521"/>
<path d="M624.556 385.297C625.361 390.856 626.305 396.358 626.333 402.038C626.408 416.64 624.912 431.157 624.425 445.73C624.294 449.495 624.341 453.288 624.051 457.053C623.546 459.145 623.331 461.219 623.341 463.424C623.359 467.581 624.584 471.607 623.733 475.923C623.247 478.408 623.21 481.276 623.004 483.911C622.564 489.628 622.854 495.532 620.545 501.007C620.152 501.931 620.245 502.931 620.386 503.893C620.601 505.351 620.479 506.63 619.039 507.443C615.504 508.966 612.063 508.097 608.622 507.06C607.845 505.836 605.274 506.369 605.639 504.015C606.162 500.67 605.835 497.326 605.629 493.972C604.844 480.94 601.346 468.188 601.571 455.044C601.599 450.523 601.617 446.001 601.664 441.489C601.674 440.658 601.524 439.901 601.019 439.238C599.046 436.687 598.672 433.754 598.962 430.68C599.336 426.794 597.737 423.384 596.558 419.33C594.763 424.898 593.687 430.083 592.5 435.239C591.097 441.33 588.03 447.262 590.564 453.774C590.461 456.221 588.329 457.931 588.273 460.453C588.151 466.6 585.112 472.112 584.308 478.184C583.925 481.052 582.952 483.929 582.821 486.938C582.756 488.432 582.774 490.048 582.204 491.375C580.502 495.317 580.446 499.474 580.409 503.604C580.39 505.565 579.988 506.976 578.099 507.733C574.302 509.097 570.449 509.237 566.541 508.218C565.166 507.602 564.493 506.808 564.867 505.08C565.269 503.193 564.811 501.221 564.623 499.288C563.801 490.786 565.25 482.379 565.718 473.934C566.166 465.993 568.13 458.183 567.878 450.186C567.373 443.843 568.598 437.276 566.961 431.176C564.782 423.086 565.213 415.388 567.186 407.447C567.868 404.71 567.513 401.711 567.541 398.825C567.55 397.741 567.532 396.797 568.392 395.91C569.496 394.77 569.533 393.201 569.655 391.687C569.954 387.904 570.384 384.13 570.618 380.346C570.767 377.927 572.638 376.32 573.245 374.096C573.685 372.49 574.368 370.948 574.592 369.267C576.593 371.21 578.735 372.181 581.503 370.649C582.204 370.257 583.242 370.388 584.121 370.406C587.506 370.462 590.798 371.2 594.118 371.733C596.549 372.125 598.98 373.732 601.356 372.957C606.845 371.172 612.727 371.294 618.132 369.22C619.469 369.865 619.815 371.228 620.236 372.424C621.62 376.348 622.873 380.328 624.173 384.279C624.098 384.7 624.135 385.083 624.575 385.297H624.556ZM619.806 418.022C617.328 418.34 614.7 418.657 612.072 419.031C610.539 419.246 610.062 420.274 610.165 421.703C610.295 423.525 611.558 422.843 612.53 422.749C615.055 422.525 617.59 422.273 620.114 422.03C617.206 422.992 614.279 423.59 611.324 424.113C610.408 424.272 609.594 424.505 609.061 425.3C608.678 425.86 607.883 426.346 608.276 427.112C608.594 427.728 609.388 427.495 609.978 427.458C614.242 427.131 618.347 426.01 622.368 424.655C624.033 424.094 624.079 422.899 622.667 421.787C622.63 421.759 622.555 421.787 622.499 421.787C623.135 421.796 623.64 421.535 623.341 420.871C623.023 420.171 622.256 420.601 621.685 420.479C620.601 420.246 619.357 421.722 618.272 420.124C619.469 419.863 620.545 419.592 621.629 419.395C622.518 419.237 623.556 419.209 623.378 417.938C623.228 416.836 623.172 415.369 621.639 415.36C618.469 415.341 615.261 414.902 612.119 415.733C611.399 415.93 610.426 416.051 610.548 417.172C610.679 418.368 611.586 418.293 612.521 418.358C614.999 418.517 617.421 417.536 619.806 418.022ZM584.72 454.119C580.324 455.848 580.324 455.848 580.455 457.66C582.279 457.296 584.112 456.997 585.898 456.539C586.721 456.333 588.077 456.474 587.796 454.941C587.572 453.727 587.282 452.429 585.683 452.344C584.093 452.251 582.494 452.288 580.951 452.755C580.502 452.886 579.763 452.83 579.997 453.662C580.193 454.353 580.764 454.213 581.297 454.157C582.326 454.045 583.364 453.718 584.72 454.119ZM580.362 415.733C580.362 415.771 580.362 415.799 580.362 415.836C578.94 415.902 577.528 415.958 576.107 416.051C575.069 416.116 574.742 417.069 574.723 417.742C574.695 418.685 575.658 418.256 576.172 418.228C578.744 418.116 581.306 417.919 583.869 417.77C584.57 417.723 585.056 417.508 585.056 416.686C585.056 415.799 584.476 415.724 583.812 415.733C582.672 415.733 581.521 415.733 580.362 415.733ZM584.168 413.874C581.381 412.781 578.66 412.959 575.929 413.874C578.669 413.874 581.419 413.874 584.168 413.874ZM583.775 419.097C581.905 419.377 579.978 419.62 578.061 420.657C580.558 421.74 582.101 420.274 583.775 419.097Z" fill="#1F396B"/>
<path d="M435.322 164.865C445.225 171.993 449.723 181.644 447.797 193.685C445.88 205.615 438.689 213.556 427.112 216.965C413.524 220.973 399.226 214.424 393.101 201.887C386.836 189.07 390.511 174.189 402.059 165.585C402.415 165.323 402.78 165.062 403.135 164.8C408.138 169.135 412.627 174.011 417.265 178.72C418.817 180.298 419.631 180.308 421.155 178.757C425.784 174.039 430.581 169.49 435.322 164.865Z" fill="#F1EABE"/>
<path d="M435.322 164.865C430.581 169.48 425.784 174.039 421.146 178.757C419.621 180.308 418.798 180.298 417.256 178.719C412.617 174.011 408.129 169.135 403.126 164.8C400.9 162.203 399.095 159.475 399.114 155.822C399.142 151.123 401.143 147.564 405.22 145.406C409.354 143.211 413.59 143.407 417.573 145.985C418.546 146.621 419.088 147.247 420.444 146.294C425.821 142.482 432.302 143.314 436.482 148.097C440.381 152.562 440.241 159.045 436.145 163.838C435.846 164.165 435.594 164.52 435.322 164.865Z" fill="#D94521"/>
<path d="M528.406 546.548C529.042 547.996 529.771 549.416 530.295 550.902C531.015 552.985 530.229 554.312 528.078 554.386C519.101 554.676 510.189 554.153 501.427 551.985C500.146 551.668 499.351 550.678 498.229 550.182C498.098 549.949 497.939 549.734 497.836 549.491C494.947 543.157 495.386 542.429 502.119 541.765C504.13 541.569 506.159 541.261 507.964 540.187C509.937 539.467 511.91 538.757 513.883 538.038C514.005 537.86 514.135 537.692 514.257 537.515L514.22 537.543C520.317 536.142 524.207 538.823 526.694 544.213C527.087 545.072 527.826 545.773 528.406 546.548Z" fill="#F5BCBD"/>
<path d="M745.768 149.386C752.137 149.488 757.242 154.72 757.121 161.016C756.999 167.425 751.622 172.535 745.179 172.385C738.942 172.236 733.752 166.771 733.958 160.568C734.182 154.197 739.372 149.274 745.768 149.386Z" fill="#F1EABE"/>
<path d="M621.264 543.998C621.648 546.072 622.19 548.137 622.368 550.229C622.723 554.386 621.377 556.217 617.356 557.366C616.514 557.609 615.635 557.74 614.765 557.787C606.807 558.16 604.18 554.994 606.143 547.361C606.433 546.221 606.489 545.1 606.499 543.961C607.247 541.7 606.667 539.402 606.686 537.122C606.695 535.31 605.928 533.432 607.013 531.685C610.548 529.238 614.204 529.527 617.917 531.209C617.823 535.777 619.067 540.009 621.264 543.998Z" fill="#1F396B"/>
<path d="M574.704 544.39C573.535 546.044 573.928 547.959 573.834 549.781C573.647 553.517 572.385 554.975 568.71 555.657C566.344 556.105 564.015 556.143 561.64 555.675C557.675 554.891 556.188 552.21 557.797 548.435C558.311 547.23 558.947 546.072 559.536 544.895C562.688 540.962 563.894 536.001 566.512 531.788C569.561 529.882 572.497 530.097 575.303 532.302C575.808 532.704 576.312 532.993 576.986 532.816C577.425 533.311 577.36 533.937 577.463 534.535C578.071 538.253 576.481 541.345 574.704 544.39Z" fill="#1F396B"/>
<path d="M721.315 549.753C721.595 551.444 721.221 552.854 719.304 553.135C712.384 554.143 705.473 555.358 698.441 554.405C696.403 554.134 693.289 550.304 693.691 548.408C693.99 546.978 695.954 547.782 696.618 546.651C700.031 546.007 703.164 544.886 705.099 541.7C705.212 541.504 705.586 541.242 705.679 541.298C707.764 542.391 709.56 540.644 711.533 540.719C712.421 540.757 713.244 540.738 713.927 541.513C716.368 544.288 718.855 547.016 721.315 549.753Z" fill="#F5BCBD"/>
<path d="M805.748 189.154C805.701 194.236 801.661 198.151 796.537 198.076C791.562 198.001 787.644 194.049 787.634 189.089C787.625 184.082 791.768 179.934 796.733 179.952C801.727 179.98 805.795 184.119 805.748 189.154Z" fill="#F1EABE"/>
<path d="M513.864 538.038C511.891 538.757 509.918 539.467 507.945 540.186C504.981 535.684 501.923 531.312 495.938 530.499C494.367 530.284 493.703 529.116 494.002 527.594C494.217 526.491 494.694 525.436 495.059 524.361C495.966 523.969 496.097 523.128 496.246 522.297C497.687 520.69 498.603 518.644 500.37 517.308L500.333 517.271C499.762 521.624 501.446 525.183 504.073 528.5C506.374 531.405 508.441 534.479 510.217 538.701C512.424 530.602 521.056 526.388 519.784 517.308C521.523 518.607 522.393 520.503 523.739 521.988C524.226 522.764 524.029 523.95 525.133 524.38C525.488 525.37 525.928 526.342 526.171 527.36C526.563 529.014 525.871 530.293 524.198 530.471C519.513 530.985 516.735 534.049 514.201 537.524L514.238 537.496C513.967 537.58 513.771 537.711 513.864 538.038Z" fill="#D94521"/>
<path d="M617.907 531.2C614.195 529.518 610.539 529.228 607.004 531.676C606.592 523.408 609.482 515.356 608.622 507.06C612.063 508.097 615.504 508.975 619.039 507.443C618.637 513.627 618.281 519.821 617.795 525.996C617.655 527.752 617.477 529.471 617.907 531.2Z" fill="#F5BCBD"/>
<path d="M576.976 532.807C576.313 532.984 575.798 532.694 575.293 532.293C572.488 530.088 569.552 529.873 566.503 531.779C566.017 528.388 567.279 525.174 567.476 521.867C567.747 517.308 566.98 512.768 566.55 508.228C570.449 509.246 574.302 509.115 578.108 507.742C577.164 512.581 576.612 517.504 576.743 522.39C576.827 525.856 577.481 529.313 576.976 532.807Z" fill="#F5BCBD"/>
<path d="M706.914 516.477C704.005 516.533 701.106 516.925 698.179 516.355C695.888 515.907 694.757 514.524 694.458 512.46C694.186 510.545 695.093 508.975 696.805 508.069C698.722 507.06 700.648 507.228 702.107 508.919C703.884 510.993 705.483 513.207 707.166 515.365C707.736 515.879 707.68 516.253 706.914 516.477Z" fill="#D94521"/>
<path d="M705.548 538.206C705.52 538.524 705.595 539.065 705.165 539C702.313 538.514 699.432 538.085 696.627 537.384C694.588 536.879 693.307 535.506 693.251 533.208C693.195 530.957 694.252 529.462 696.272 528.743C698.348 528.005 700.143 528.696 701.368 530.49C702.49 532.152 703.444 533.927 704.463 535.656C704.828 536.506 705.193 537.356 705.548 538.206Z" fill="#D94521"/>
<path d="M710.991 498.821C708.344 498.111 705.679 497.494 703.163 496.382C701.069 495.458 700.003 493.954 700.19 491.59C700.367 489.413 701.686 488.19 703.594 487.676C705.744 487.097 707.353 488.171 708.559 489.918C708.905 490.422 709.289 490.908 709.653 491.384C710.027 492.515 710.411 493.664 710.794 494.813L710.897 494.981C710.579 496.28 712.234 497.522 710.991 498.821Z" fill="#D94521"/>
<path d="M705.66 530.144C706.736 528.117 707.755 526.052 708.915 524.081C710.065 522.129 712.001 521.68 714.011 522.222C715.975 522.755 717.144 524.268 717.209 526.333C717.275 528.509 716.171 530.013 714.067 530.733C711.28 531.685 708.382 531.956 705.483 532.293C704.435 531.48 705.473 530.845 705.66 530.144Z" fill="#D94521"/>
<path d="M710.832 490.899C711.094 489.329 711.299 487.76 711.627 486.209C712.113 483.874 713.544 482.397 715.966 482.267C718.023 482.155 719.631 483.238 720.286 485.153C721.043 487.358 720.501 489.385 718.406 490.702C716.087 492.15 713.721 493.514 711.374 494.916C711.243 495 711.084 495.028 710.907 495L710.804 494.832C710.813 493.524 710.822 492.207 710.832 490.899Z" fill="#D94521"/>
<path d="M707.905 485.396C706.708 483.042 705.511 480.697 704.305 478.343C703.126 476.054 703.108 473.887 705.268 472.187C706.97 470.851 708.84 470.795 710.654 472.075C712.674 473.513 713.067 475.503 711.748 478.464C710.776 480.632 709.607 482.706 708.531 484.826C708.316 485.013 708.111 485.209 707.905 485.396Z" fill="#D94521"/>
<path d="M708.69 512.619C708.84 512.208 708.98 511.796 709.13 511.385C710.364 511.348 710.112 509.956 710.86 509.48C712.001 508.153 713.104 506.78 714.301 505.509C715.788 503.931 717.583 503.473 719.566 504.538C721.464 505.565 722.427 507.219 722.006 509.358C721.567 511.582 720.024 512.908 717.752 513.03C714.937 513.179 712.113 513.104 709.289 513.132C709.008 513.039 708.69 513.02 708.69 512.619Z" fill="#D94521"/>
<path d="M797.229 148.75C796.986 150.619 795.948 151.796 793.956 151.749C791.973 151.703 790.832 150.507 790.87 148.545C790.907 146.574 792.198 145.406 794.096 145.453C795.994 145.499 797.117 146.695 797.229 148.75Z" fill="#F1EABE"/>
<path d="M708.69 512.619C708.69 513.02 709.008 513.039 709.279 513.123C707.016 518.569 705.23 524.128 705.66 530.153C705.473 530.854 704.435 531.489 705.492 532.293C705.511 534.264 705.529 536.244 705.548 538.216C705.183 537.365 704.828 536.515 704.463 535.665C704.37 529.154 704.473 522.671 706.913 516.486C707.671 516.262 707.727 515.879 707.156 515.365C707.671 514.45 708.176 513.534 708.69 512.619Z" fill="#413E57"/>
<path d="M710.86 509.48C710.112 509.956 710.364 511.348 709.13 511.385C710.439 507.303 711.178 503.127 711 498.83C712.244 497.522 710.579 496.289 710.916 495C711.093 495.028 711.252 495 711.383 494.916C712.655 499.82 711.776 504.65 710.86 509.48Z" fill="#413E57"/>
<path d="M707.905 485.396C708.111 485.209 708.316 485.013 708.522 484.826C709.298 486.854 710.065 488.871 710.841 490.899C710.832 492.207 710.822 493.514 710.813 494.822C710.43 493.673 710.046 492.524 709.672 491.394C709.083 489.404 708.494 487.405 707.905 485.396Z" fill="#413E57"/>
<path d="M496.246 522.306C496.097 523.138 495.966 523.978 495.059 524.371C494.161 523.904 493.001 523.82 492.347 522.297C494.329 523.24 495.395 522.727 495.33 520.671C496.368 521.017 496.022 521.792 496.246 522.306Z" fill="#F5BCBD"/>
<path d="M525.142 524.389C524.048 523.96 524.244 522.783 523.749 521.998C523.917 521.503 524.085 521.017 524.815 520.69C524.665 522.549 525.226 523.586 527.555 522.372C526.9 523.81 525.881 523.913 525.142 524.389Z" fill="#F5BCBD"/>
<path d="M500.37 517.318C500.427 517.253 500.474 517.187 500.53 517.121C500.464 517.178 500.398 517.234 500.333 517.281C500.333 517.281 500.37 517.318 500.37 517.318Z" fill="#D94521"/>
<path d="M618.122 369.229C612.717 371.303 606.835 371.182 601.346 372.966C598.962 373.741 596.539 372.135 594.108 371.742C590.788 371.21 587.497 370.472 584.112 370.416C583.233 370.406 582.204 370.275 581.493 370.659C578.725 372.181 576.584 371.219 574.583 369.276C573.573 367.613 572.666 366.006 573.563 363.886C574.115 362.587 573.32 361.289 572.563 360.214C571.562 358.785 571.113 357.244 571.113 355.534C571.151 355.179 571.244 354.833 571.225 354.478C570.524 341.904 570.907 329.302 570.421 316.718C570.328 314.383 570.982 313.841 573.189 314C577.612 314.317 582.036 314.682 586.487 314.457C588.694 314.345 590.311 313.71 591.78 311.702C593.323 309.59 592.715 307.498 593.005 305.386C593.865 305.433 594.435 306.003 595.034 306.526C599.158 310.16 603.74 313.047 608.865 315.074C609.65 317.363 610.847 319.455 612.399 321.268C613.596 322.66 613.97 324.098 613.858 325.873C613.746 327.704 613.746 329.526 614.859 331.236C617.169 334.804 619.235 338.522 621.517 342.091C622.34 343.371 622.34 344.445 621.779 345.79C621.031 347.565 619.871 349.116 619.6 351.153C618.964 355.917 618.871 360.7 619.254 365.455C619.394 367.034 619.095 368.155 618.122 369.229Z" fill="white"/>
<path d="M593.014 305.405C592.724 307.517 593.332 309.609 591.789 311.72C590.321 313.729 588.694 314.364 586.496 314.476C582.054 314.7 577.622 314.336 573.198 314.019C570.992 313.86 570.346 314.402 570.43 316.737C570.917 329.311 570.533 341.913 571.235 354.497C571.253 354.843 571.16 355.198 571.122 355.553C569.103 354.675 568.205 352.61 566.624 351.237C562.884 347.967 558.377 346.108 554.112 343.838C547.398 340.279 541.469 335.785 536.186 330.358C535.017 329.152 534.98 328.611 536.261 327.247C541.17 322.053 547.819 320.306 554.047 317.709C558.358 315.915 562.875 314.56 565.932 310.599C567.008 309.198 567.363 308.114 566.316 306.592C563.763 302.883 564.567 298.763 565.493 294.886C566.101 292.345 566.868 289.982 566.035 287.403C565.932 287.076 565.932 286.703 565.942 286.348C566.138 277.501 564.801 268.663 565.493 259.835C565.802 255.884 565.783 252.175 564.464 248.41C563.95 246.934 563.323 245.71 562.257 244.589C560.368 242.609 558.545 240.563 556.759 238.48C556.198 237.826 555.59 237.013 555.973 236.079C556.394 235.051 557.413 235.285 558.283 235.201C560.284 235.023 562.126 235.602 563.978 236.238C564.81 236.527 565.774 237.34 566.587 236.135C566.69 236.723 566.942 237.331 566.877 237.91C566.662 240.068 567.298 240.376 569.299 239.526C571.768 238.48 574.311 237.443 577.079 237.34C579.155 237.022 579.819 238.003 580.464 239.974C582.307 245.598 581.587 251.54 582.933 257.201C583.298 258.733 583.354 260.34 583.55 261.909C583.345 266.758 586.889 271.485 584.037 276.427C585.308 280.247 584.523 284.75 587.824 287.908L587.768 287.889C587.936 288.095 588.105 288.291 588.273 288.496C589.189 289.786 589.947 291.234 591.069 292.317C592.481 293.681 592.846 295.101 592.687 297.026C592.481 299.791 592.518 302.612 593.014 305.405Z" fill="#8E434A"/>
<path d="M587.843 287.889C584.542 284.732 585.327 280.229 584.056 276.408C586.898 271.466 583.364 266.748 583.569 261.891C585.898 259.593 588.638 259.069 591.864 259.434C595.118 259.798 598.326 260.545 601.702 258.827C604.965 257.164 608.827 258.714 611.146 261.666C612.297 263.124 613.391 264.628 614.625 266.01C615.523 267.019 616.682 267.617 618.113 267.692C622.087 267.907 623.827 269.346 625.201 273.157C626.174 275.866 626.193 278.715 626.66 281.49C627.427 286.086 627.923 287.674 632.823 287.45C637.012 287.254 638.705 289.804 637.499 293.775C637.171 294.868 637.461 295.634 638.078 296.465C639.303 298.091 640.594 299.688 641.641 301.426C643.147 303.939 642.202 305.732 639.359 305.985C638.724 306.041 638.172 305.957 637.779 306.638C637.143 307.731 636.04 307.741 634.955 307.647C632.617 307.433 630.008 309.488 627.951 306.751C627.726 306.452 627.1 306.788 626.866 307.208C626.576 307.731 626.688 308.236 627.081 308.675C627.829 309.497 628.858 309.88 629.868 310.151C632.262 310.786 633.328 312.122 632.589 314.616L632.598 314.551C632.411 314.738 632.234 314.925 632.047 315.112L632.075 315.084C629.559 316.27 627.483 315.457 625.594 313.701C623.817 312.047 622.134 312.085 620.236 313.692C617.056 316.363 614.56 316.008 611.969 312.683C610.669 311.011 609.379 309.348 607.649 308.086C607.939 305.275 608.35 302.463 608.463 299.641C608.547 297.736 609.239 296.708 610.987 295.811C615.513 293.485 618.141 289.58 619.189 284.638C619.404 283.629 619.694 282.377 617.786 282.761C613.344 283.676 609.8 282.125 606.892 278.772C606.078 277.837 605.031 277.118 604.17 276.231C602.281 274.278 600.131 274.045 597.905 275.399C594.688 277.361 591.471 277.819 588.142 275.81C586.15 279.893 587.095 283.891 587.843 287.889Z" fill="#1F396B"/>
<path d="M618.122 369.229C619.086 368.146 619.394 367.034 619.263 365.465C618.88 360.7 618.973 355.927 619.609 351.162C619.88 349.126 621.04 347.575 621.788 345.8C622.349 344.464 622.349 343.38 621.526 342.1C619.235 338.523 617.169 334.804 614.868 331.245C613.755 329.526 613.755 327.714 613.867 325.883C613.98 324.108 613.606 322.669 612.409 321.277C610.847 319.465 609.659 317.372 608.874 315.084C608.808 314.701 608.743 314.327 608.677 313.944C609.828 313.169 610.772 313.813 611.492 314.551C614.999 318.138 618.599 321.604 622.648 324.584C625.145 326.425 626.501 329.106 627.726 331.927C628.269 330.722 628.624 329.666 628.774 328.573C629.054 326.527 629.896 325.846 632 326.612C633.197 327.041 634.506 327.508 635.871 327.256C638.321 328.125 640.509 329.451 642.595 330.974C644.156 332.263 645.793 333.469 647.252 334.87C648.748 336.318 647.944 338.037 647.345 339.569C646.7 341.213 645.625 340.055 644.718 339.756C643.259 339.27 642.941 340.092 642.642 341.316C641.725 344.978 642.211 348.883 640.594 352.405C640.154 353.367 639.902 354.469 639.275 355.282C635.488 360.233 634.684 365.792 635.142 371.864C635.535 376.955 634.814 382.056 634.179 387.129C633.935 389.1 633.056 389.193 631.457 388.511C629.12 387.512 627.137 385.765 624.565 385.279L624.575 385.298C624.444 384.961 624.313 384.616 624.173 384.279C622.873 380.328 621.62 376.348 620.236 372.424C619.815 371.238 619.469 369.874 618.122 369.229Z" fill="#8E434A"/>
<path d="M635.703 245.243C635.843 240.46 638.134 236.92 642.333 234.827C646.176 232.912 650.141 233.258 653.704 235.686C655.06 236.611 655.902 236.667 657.314 235.724C665.487 230.249 675.1 236.621 675.455 244.216C675.652 248.354 674.623 251.474 671.865 254.24C666.983 259.144 662.036 263.993 657.211 268.944C656.061 270.121 655.397 270.065 654.275 268.925C649.309 263.852 644.241 258.882 639.238 253.847C636.881 251.484 635.637 248.634 635.703 245.243Z" fill="#D94521"/>
<path d="M724.924 255.902C726.822 255.725 729.17 256.472 731.18 258.06C732.153 258.826 732.751 258.91 733.855 258.154C739.306 254.398 745.806 255.239 749.902 259.966C753.072 263.628 754.147 271.587 748.957 276.342C743.861 281.013 739.063 286.011 734.191 290.925C733.153 291.972 732.536 292.392 731.264 291.075C726.205 285.853 720.912 280.845 715.9 275.595C712.412 271.942 711.496 267.533 713.562 262.834C715.554 258.275 719.154 255.902 724.924 255.902Z" fill="#D94521"/>
<path d="M478.432 258.565C478.544 252.474 480.527 249.092 484.37 246.906C488.242 244.702 492.309 244.776 495.975 247.13C497.874 248.354 498.94 248.065 500.735 247.056C509.46 242.132 517.942 249.12 518.231 255.893C518.409 260.013 517.362 263.142 514.612 265.908C509.806 270.756 504.915 275.511 500.165 280.416C498.846 281.77 498.107 281.714 496.817 280.397C492.001 275.436 487.063 270.597 482.173 265.711C479.751 263.283 478.357 260.433 478.432 258.565Z" fill="#D94521"/>
<path d="M513.191 343.025C513.144 345.52 512.209 347.706 510.488 349.462C505.158 354.908 499.716 360.261 494.385 365.707C493.404 366.716 492.889 366.38 492.085 365.567C486.97 360.401 481.761 355.329 476.683 350.116C472.447 345.772 472.054 338.905 475.636 334.58C479.685 329.694 486.268 328.751 491.664 332.338C492.59 332.955 493.188 333.468 494.385 332.581C498.397 329.592 502.839 329.451 507.15 331.694C511.629 334.029 513.294 338.121 513.191 343.025Z" fill="#D94521"/>
<path d="M538.683 279.407C541.582 281.789 545.425 279.902 549.315 279.407C552.794 278.968 555.394 280.808 556.722 283.891C557.993 286.834 558.19 290.038 555.786 292.597C552.102 296.54 548.203 300.286 544.434 304.153C543.62 304.985 543.134 304.639 542.489 303.985C538.814 300.267 535.008 296.68 531.464 292.85C529.032 290.225 528.602 287.011 530.201 283.732C531.716 280.64 534.25 279.145 538.683 279.407Z" fill="#D94521"/>
<path d="M683.189 332.656C683.535 334.935 682.516 336.813 680.87 338.457C677.485 341.83 674.044 345.155 670.752 348.621C669.536 349.901 668.882 349.621 667.816 348.509C664.627 345.193 661.307 341.998 658.081 338.709C654.752 335.309 654.312 330.535 656.959 327.181C659.568 323.874 664.019 323.202 668.19 325.659C669.171 326.238 669.686 326.032 670.499 325.509C676.194 321.866 683.816 325.836 683.189 332.656Z" fill="#D94521"/>
<path d="M577.107 237.331C574.339 237.424 571.796 238.47 569.327 239.517C567.326 240.367 566.681 240.059 566.905 237.901C566.961 237.321 566.718 236.723 566.615 236.126C566.55 230.894 566.419 225.681 565.568 220.497C565.334 219.039 564.913 218.329 563.38 218.124C562.033 217.937 560.322 217.984 559.62 216.554C558.218 213.724 556.048 211.183 555.852 207.857C555.758 206.306 557.021 205.839 558.227 206.073C564.146 207.231 568.925 210.603 573.526 214.256C574.096 214.714 574.302 215.527 574.18 216.218C572.927 223.038 575.742 229.278 576.864 235.761C576.948 236.284 577.023 236.808 577.107 237.331Z" fill="#F5BCBD"/>
<path d="M642.595 330.983C640.509 329.461 638.321 328.134 635.871 327.265C632.58 325.304 631.672 322.295 631.878 318.661C631.944 317.466 632.57 316.289 632.065 315.074L632.037 315.102C632.654 315.336 632.72 315.027 632.589 314.542L632.58 314.607C636.75 313.822 639.771 316.018 642.651 318.521C643.455 319.222 643.39 320.259 643.315 321.24C643.081 324.491 642.838 327.732 642.595 330.983Z" fill="#F5BCBD"/>
<path d="M601.58 455.054C597.905 454.633 594.239 454.213 590.564 453.793C588.03 447.281 591.106 441.349 592.5 435.258C593.687 430.101 594.763 424.917 596.558 419.349C597.736 423.403 599.335 426.813 598.961 430.699C598.662 433.773 599.046 436.706 601.019 439.257C601.533 439.92 601.673 440.676 601.664 441.508C601.627 446.011 601.608 450.532 601.58 455.054Z" fill="#F1EABE"/>
<path d="M619.806 418.022C617.43 417.527 615.008 418.508 612.521 418.349C611.586 418.284 610.679 418.368 610.548 417.163C610.426 416.051 611.399 415.92 612.119 415.724C615.252 414.883 618.459 415.332 621.638 415.35C623.172 415.36 623.228 416.826 623.378 417.929C623.556 419.199 622.518 419.227 621.629 419.386C620.544 419.582 619.469 419.853 618.272 420.115C619.357 421.712 620.6 420.236 621.685 420.47C622.246 420.591 623.022 420.152 623.34 420.862C623.64 421.535 623.135 421.787 622.499 421.778C622.555 421.778 622.63 421.75 622.667 421.778C624.079 422.889 624.032 424.085 622.368 424.646C618.347 426 614.242 427.121 609.977 427.448C609.388 427.495 608.603 427.728 608.275 427.103C607.883 426.337 608.678 425.851 609.061 425.29C609.603 424.496 610.407 424.263 611.324 424.104C614.27 423.581 617.206 422.983 620.114 422.021C617.589 422.263 615.064 422.506 612.53 422.74C611.558 422.824 610.305 423.515 610.164 421.694C610.062 420.274 610.529 419.237 612.072 419.022C614.69 418.667 617.318 418.349 619.806 418.022Z" fill="#F5BCBD"/>
<path d="M584.719 454.119C583.363 453.727 582.325 454.045 581.287 454.157C580.745 454.213 580.175 454.344 579.988 453.662C579.754 452.84 580.492 452.896 580.941 452.756C582.484 452.288 584.083 452.26 585.673 452.345C587.272 452.438 587.562 453.727 587.787 454.942C588.076 456.474 586.711 456.334 585.888 456.539C584.093 456.997 582.269 457.296 580.446 457.66C580.315 455.838 580.315 455.838 584.719 454.119Z" fill="#F5BCBD"/>
<path d="M580.362 415.733C581.512 415.733 582.662 415.733 583.822 415.733C584.486 415.733 585.066 415.799 585.066 416.686C585.066 417.508 584.579 417.723 583.878 417.77C581.316 417.919 578.744 418.116 576.182 418.228C575.667 418.246 574.704 418.685 574.732 417.742C574.751 417.069 575.078 416.116 576.116 416.051C577.528 415.958 578.95 415.911 580.371 415.836C580.362 415.799 580.362 415.761 580.362 415.733Z" fill="#F5BCBD"/>
<path d="M584.168 413.874C581.418 413.874 578.679 413.874 575.929 413.874C578.65 412.95 581.372 412.772 584.168 413.874Z" fill="#F5BCBD"/>
<path d="M583.775 419.096C582.101 420.274 580.558 421.74 578.061 420.657C579.978 419.62 581.905 419.377 583.775 419.096Z" fill="#F5BCBD"/>
<path d="M624.163 384.298C624.294 384.634 624.425 384.98 624.565 385.316C624.126 385.092 624.089 384.718 624.163 384.298Z" fill="#F1EABE"/>
<path d="M513.864 538.038C513.771 537.701 513.958 537.58 514.238 537.515C514.117 537.692 513.995 537.87 513.864 538.038Z" fill="white"/>
<path d="M608.677 313.944C608.743 314.327 608.808 314.7 608.874 315.083C603.759 313.056 599.167 310.17 595.043 306.536C594.454 306.012 593.884 305.443 593.014 305.396C592.518 302.612 592.481 299.781 592.715 296.988C592.874 295.073 592.509 293.653 591.097 292.28C589.975 291.196 589.227 289.748 588.301 288.459C588.254 288.151 588.282 287.796 587.796 287.852L587.852 287.87C587.104 283.872 586.159 279.874 588.133 275.773C591.452 277.781 594.678 277.323 597.895 275.362C600.13 273.998 602.272 274.241 604.161 276.193C605.021 277.081 606.068 277.809 606.882 278.734C609.79 282.088 613.334 283.639 617.776 282.723C619.675 282.331 619.394 283.592 619.179 284.601C618.132 289.543 615.504 293.457 610.978 295.774C609.229 296.671 608.537 297.707 608.453 299.604C608.331 302.425 607.92 305.237 607.639 308.049C607.415 310.123 607.116 312.197 608.677 313.944Z" fill="#F5BCBD"/>
<path d="M587.787 287.87C588.273 287.805 588.254 288.169 588.292 288.478C588.123 288.272 587.955 288.067 587.787 287.87Z" fill="#413E57"/>
<path d="M608.678 313.944C607.116 312.197 607.415 310.123 607.64 308.068C609.37 309.329 610.651 310.992 611.96 312.664C614.55 315.99 617.056 316.345 620.226 313.673C622.134 312.066 623.817 312.029 625.585 313.682C627.474 315.448 629.55 316.251 632.065 315.065C632.57 316.289 631.944 317.466 631.878 318.652C631.673 322.286 632.589 325.294 635.871 327.256C634.506 327.508 633.197 327.041 632 326.611C629.896 325.855 629.054 326.527 628.774 328.573C628.624 329.666 628.259 330.731 627.726 331.927C626.501 329.106 625.145 326.415 622.648 324.584C618.599 321.604 614.999 318.138 611.492 314.551C610.763 313.813 609.818 313.168 608.678 313.944Z" fill="#F1EABE"/>
<path d="M632.589 314.532C632.72 315.027 632.655 315.336 632.037 315.093C632.215 314.915 632.402 314.719 632.589 314.532Z" fill="#F1EABE"/>
<defs>
<linearGradient id="paint0_linear" x1="61.7536" y1="311.506" x2="957.57" y2="311.506" gradientUnits="userSpaceOnUse">
<stop offset="0.00558659" stop-color="#8E434A"/>
<stop offset="1" stop-color="#754058"/>
</linearGradient>
</defs>
</svg>
