<svg width="958" height="623" viewBox="0 0 958 623" fill="none" xmlns="http://www.w3.org/2000/svg">
<path d="M396.34 1.42118C373 1.42118 345.5 1.99417 335.06 12.9857C320.3 28.5258 325.56 52.686 334.23 71.7651C342.9 90.8443 354.43 110.899 349.48 131.083C339.47 171.935 271.41 181.828 261.79 222.764C253.24 259.12 297.95 292.42 290.27 328.944C286.27 347.976 268.39 362.281 248.98 369.508C229.56 376.734 208.35 378.304 187.69 381.388C156.43 386.042 124.95 394.717 100.13 412.923C75.3103 431.129 58.2003 460.361 62.3903 489.435C65.9503 514.134 83.6203 534.941 92.4603 558.479C101.3 582.007 96.3503 614.667 70.7703 622.339H957.57V0L396.34 1.42118Z" fill="url(#paint0_linear)"/>
<path d="M197.74 284.488C184.26 288.008 164.07 298.922 162.57 315.345C160.74 335.455 187.72 354.961 211.66 357.497C240.59 360.563 265 339.226 264.95 320.212C264.89 298.541 230.78 275.868 197.74 284.488Z" fill="#8E434A"/>
<path d="M218.7 268.594C227.13 269.681 231.82 270.285 234.58 267.359C239.32 262.334 235.59 249.831 229.83 242.251C221.81 231.709 204.54 223.683 195.9 231.151C188.75 237.328 189.15 252.664 196.03 260.764C200.71 266.272 207.3 267.117 218.7 268.594Z" fill="#8E434A"/>
<path d="M32.9604 529.702C49.9004 529.266 61.3904 548.354 64.1304 552.915C67.5204 558.553 75.8004 572.319 71.1904 587.516C65.9104 604.895 45.3904 618.837 25.8904 612.995C7.45037 607.468 -0.0596436 587.265 0.000356462 572.644C0.0703565 552.162 15.0704 530.167 32.9604 529.702Z" fill="#8E434A"/>
<path d="M323.33 126.81C321.29 132.068 313.14 141.115 301.11 141.264C293.86 141.357 286.78 136.852 283.56 128.928C279.18 118.163 282.97 103.691 291.88 96.5476C301.56 88.7729 314.9 91.541 320.56 102.009C324.75 109.766 327.28 116.649 323.33 126.81Z" fill="#8E434A"/>
<g clip-path="url(#clip0)">
<path d="M654.162 529C640.566 530.952 645.933 529.14 540.6 526.664C478.694 525.216 461.431 525.478 456.213 536.464C450.911 547.637 459.57 566.657 472.372 576.597C495.919 594.879 520.335 572.225 579.651 569.133C625.108 566.76 629.886 579.073 690.969 576.597C721.913 575.345 758.28 573.561 762.339 558.399C765.266 547.441 750.668 531.914 736.305 524.338C712.524 511.783 693.812 523.32 654.162 529Z" fill="#F1EABE"/>
<path d="M567.887 449.845C555.637 447.379 543.377 444.988 531.258 441.933C490.308 431.61 451.145 416.869 414.768 395.177C399.787 386.246 385.442 376.455 373.201 363.909C363.046 353.493 354.527 341.909 351.057 327.55C345.877 306.101 350.216 287.044 367.16 271.938C375.249 264.726 385.33 261.419 395.635 258.869C410.429 255.206 425.503 252.778 440.092 248.247C453.95 243.94 466.967 238.083 477.768 228.134C483.744 222.622 488.55 216.363 489.485 207.89C489.859 204.461 488.971 201.191 488.401 197.884C487.091 190.261 485.894 182.638 487.241 174.894C489.121 164.085 495.47 156.238 504.195 150.119C512.836 144.056 522.58 140.674 532.941 138.956C532.913 139.395 532.932 139.843 532.848 140.282C530.192 154.547 534.288 166.57 544.574 176.753C561.715 193.727 578.744 210.804 595.745 227.909C597.353 229.535 598.157 229.656 599.85 227.947C615.962 211.701 632.103 195.493 648.393 179.434C654.34 173.567 659.502 167.299 662.167 159.265C684.311 168.429 705.632 179.219 726.084 191.7C749.49 205.984 772.41 221.006 793.46 238.643C806.393 249.48 818.138 261.531 825.713 276.796C842.302 310.24 840.264 343.198 821.785 375.278C811.639 392.906 796.537 405.602 779.181 415.635C749.799 432.619 718.808 445.726 685.471 452.779C665.197 457.067 644.69 458.122 624.042 456.712C624.332 452.947 624.294 449.154 624.416 445.389C624.902 430.816 626.398 416.299 626.324 401.697C626.296 396.017 625.351 390.515 624.547 384.956C627.118 385.442 629.101 387.189 631.439 388.189C633.028 388.871 633.908 388.768 634.16 386.806C634.796 381.734 635.516 376.633 635.123 371.541C634.656 365.469 635.469 359.911 639.257 354.96C639.883 354.137 640.135 353.044 640.575 352.082C642.193 348.56 641.707 344.646 642.623 340.993C642.932 339.77 643.25 338.948 644.699 339.433C645.606 339.742 646.681 340.891 647.327 339.246C647.925 337.714 648.729 335.986 647.233 334.547C645.784 333.146 644.138 331.941 642.576 330.652C642.819 327.401 643.053 324.159 643.296 320.908C643.371 319.927 643.437 318.89 642.632 318.19C639.752 315.686 636.732 313.491 632.561 314.275C633.3 311.791 632.243 310.445 629.84 309.81C628.83 309.539 627.801 309.156 627.053 308.334C626.66 307.904 626.548 307.39 626.838 306.867C627.072 306.438 627.698 306.111 627.923 306.41C629.971 309.147 632.589 307.092 634.927 307.306C636.021 307.409 637.115 307.39 637.751 306.297C638.144 305.625 638.695 305.7 639.331 305.644C642.174 305.391 643.128 303.598 641.613 301.085C640.566 299.347 639.275 297.75 638.05 296.124C637.433 295.302 637.134 294.527 637.47 293.434C638.677 289.473 636.984 286.922 632.795 287.109C627.895 287.333 627.399 285.745 626.632 281.149C626.165 278.365 626.146 275.516 625.173 272.816C623.808 269.014 622.069 267.575 618.085 267.351C616.645 267.276 615.485 266.678 614.597 265.669C613.372 264.277 612.268 262.783 611.118 261.325C608.799 258.373 604.946 256.823 601.673 258.485C598.307 260.204 595.09 259.457 591.836 259.093C588.61 258.728 585.87 259.252 583.541 261.55C583.345 259.98 583.289 258.373 582.924 256.841C581.577 251.18 582.297 245.248 580.455 239.615C579.81 237.644 579.137 236.672 577.07 236.98C576.986 236.457 576.911 235.934 576.827 235.411C575.705 228.928 572.89 222.687 574.143 215.868C574.265 215.186 574.059 214.364 573.488 213.906C568.888 210.253 564.109 206.881 558.19 205.722C556.983 205.489 555.721 205.956 555.814 207.507C556.011 210.832 558.18 213.373 559.583 216.204C560.294 217.633 561.996 217.587 563.342 217.773C564.876 217.979 565.297 218.689 565.53 220.146C566.372 225.331 566.503 230.544 566.578 235.775C565.764 236.98 564.81 236.168 563.969 235.878C562.117 235.243 560.275 234.664 558.274 234.841C557.404 234.916 556.385 234.682 555.964 235.719C555.581 236.663 556.188 237.476 556.75 238.12C558.536 240.194 560.359 242.24 562.248 244.23C563.314 245.341 563.931 246.575 564.455 248.051C565.774 251.815 565.802 255.524 565.484 259.476C564.782 268.304 566.129 277.141 565.933 285.988C565.923 286.343 565.923 286.717 566.026 287.044C566.858 289.622 566.092 291.995 565.484 294.527C564.558 298.404 563.744 302.523 566.307 306.232C567.354 307.755 566.999 308.848 565.923 310.24C562.865 314.21 558.349 315.555 554.038 317.349C547.81 319.946 541.152 321.693 536.251 326.887C534.97 328.251 535.008 328.802 536.177 329.998C541.451 335.435 547.38 339.919 554.103 343.478C558.367 345.739 562.875 347.607 566.615 350.877C568.196 352.26 569.093 354.315 571.113 355.193C571.113 356.903 571.553 358.444 572.563 359.873C573.32 360.948 574.115 362.246 573.563 363.545C572.666 365.665 573.573 367.272 574.583 368.935C574.358 370.607 573.675 372.158 573.236 373.765C572.628 375.988 570.758 377.595 570.608 380.015C570.374 383.798 569.944 387.572 569.645 391.356C569.523 392.869 569.486 394.429 568.383 395.578C567.532 396.466 567.541 397.409 567.532 398.493C567.504 401.37 567.859 404.378 567.176 407.116C565.203 415.056 564.773 422.754 566.952 430.844C568.607 436.944 567.382 443.502 567.887 449.845ZM635.703 244.902C635.638 248.293 636.881 251.143 639.238 253.506C644.241 258.542 649.309 263.511 654.275 268.584C655.397 269.733 656.061 269.789 657.211 268.603C662.046 263.652 666.993 258.812 671.865 253.899C674.623 251.124 675.652 248.013 675.456 243.875C675.1 236.28 665.487 229.909 657.314 235.383C655.902 236.326 655.06 236.27 653.704 235.346C650.141 232.917 646.176 232.571 642.333 234.486C638.134 236.569 635.834 240.119 635.703 244.902ZM724.924 255.561C719.154 255.561 715.554 257.925 713.553 262.493C711.486 267.192 712.403 271.611 715.891 275.254C720.912 280.514 726.196 285.512 731.255 290.734C732.527 292.042 733.144 291.621 734.182 290.584C739.054 285.671 743.851 280.673 748.948 276.002C754.138 271.247 753.062 263.278 749.892 259.625C745.806 254.898 739.297 254.067 733.845 257.813C732.751 258.57 732.153 258.486 731.171 257.719C729.17 256.131 726.823 255.384 724.924 255.561ZM478.432 258.224C478.357 260.083 479.751 262.942 482.182 265.361C487.073 270.247 492.01 275.086 496.826 280.047C498.107 281.364 498.855 281.429 500.174 280.065C504.924 275.161 509.815 270.406 514.622 265.557C517.362 262.792 518.409 259.672 518.241 255.543C517.951 248.77 509.479 241.782 500.744 246.705C498.949 247.714 497.883 248.004 495.984 246.78C492.319 244.426 488.251 244.351 484.379 246.556C480.527 248.761 478.544 252.133 478.432 258.224ZM513.191 342.684C513.294 337.78 511.62 333.688 507.159 331.362C502.839 329.11 498.407 329.26 494.395 332.249C493.198 333.137 492.599 332.623 491.674 332.006C486.268 328.41 479.694 329.353 475.645 334.249C472.064 338.574 472.447 345.431 476.693 349.784C481.77 354.988 486.979 360.06 492.094 365.236C492.899 366.048 493.413 366.385 494.395 365.376C499.725 359.929 505.168 354.577 510.498 349.13C512.209 347.374 513.144 345.179 513.191 342.684ZM538.683 279.066C534.25 278.814 531.707 280.308 530.21 283.391C528.621 286.67 529.042 289.884 531.473 292.509C535.017 296.339 538.823 299.936 542.498 303.644C543.134 304.289 543.63 304.644 544.443 303.813C548.212 299.945 552.102 296.199 555.796 292.257C558.199 289.688 558.003 286.493 556.731 283.55C555.403 280.458 552.803 278.627 549.325 279.066C545.425 279.552 541.591 281.439 538.683 279.066ZM683.189 332.315C683.816 325.495 676.194 321.534 670.509 325.168C669.695 325.691 669.171 325.887 668.199 325.318C664.028 322.861 659.568 323.533 656.968 326.84C654.322 330.194 654.761 334.968 658.09 338.368C661.316 341.657 664.636 344.852 667.825 348.168C668.891 349.28 669.545 349.551 670.761 348.28C674.053 344.814 677.494 341.489 680.879 338.116C682.516 336.472 683.535 334.594 683.189 332.315Z" fill="#F1EABE"/>
<path d="M662.167 159.265C659.502 167.299 654.35 173.568 648.393 179.434C632.093 195.493 615.953 211.701 599.85 227.947C598.157 229.656 597.353 229.526 595.745 227.91C578.744 210.804 561.715 193.727 544.574 176.753C534.297 166.57 530.192 154.547 532.847 140.282C532.932 139.853 532.913 139.404 532.941 138.956C535.11 131.912 538.412 125.587 543.845 120.403C558.105 106.791 580.932 106.137 595.726 119.141C597.344 120.561 598.223 120.496 599.812 119.188C615.719 106.109 636.675 106.464 651.628 120.477C662.158 130.352 665.356 142.851 662.672 156.93C662.532 157.705 662.345 158.48 662.167 159.265Z" fill="#D93636"/>
<path d="M624.556 384.957C625.361 390.515 626.305 396.017 626.333 401.697C626.408 416.299 624.912 430.816 624.425 445.39C624.294 449.154 624.341 452.947 624.051 456.712C623.546 458.805 623.331 460.878 623.341 463.083C623.359 467.24 624.584 471.267 623.733 475.583C623.247 478.068 623.21 480.936 623.004 483.57C622.564 489.287 622.854 495.191 620.545 500.666C620.152 501.591 620.245 502.59 620.386 503.552C620.601 505.01 620.479 506.29 619.039 507.102C615.504 508.625 612.063 507.756 608.622 506.719C607.845 505.495 605.274 506.028 605.639 503.674C606.162 500.329 605.835 496.985 605.629 493.631C604.844 480.599 601.346 467.848 601.571 454.703C601.599 450.182 601.617 445.66 601.664 441.148C601.674 440.317 601.524 439.56 601.019 438.897C599.046 436.347 598.672 433.413 598.962 430.34C599.336 426.453 597.737 423.044 596.558 418.989C594.763 424.557 593.687 429.742 592.5 434.899C591.097 440.989 588.03 446.922 590.564 453.433C590.461 455.881 588.329 457.59 588.273 460.112C588.151 466.259 585.112 471.771 584.308 477.843C583.925 480.711 582.952 483.589 582.821 486.597C582.756 488.091 582.774 489.708 582.204 491.034C580.502 494.976 580.446 499.134 580.409 503.263C580.39 505.225 579.988 506.635 578.099 507.392C574.302 508.756 570.449 508.896 566.541 507.878C565.166 507.261 564.493 506.467 564.867 504.739C565.269 502.852 564.811 500.881 564.623 498.947C563.801 490.446 565.25 482.038 565.718 473.593C566.166 465.652 568.13 457.842 567.878 449.846C567.373 443.502 568.598 436.935 566.961 430.835C564.782 422.745 565.213 415.047 567.186 407.106C567.868 404.369 567.513 401.37 567.541 398.484C567.55 397.4 567.532 396.456 568.392 395.569C569.496 394.429 569.533 392.86 569.655 391.346C569.954 387.563 570.384 383.789 570.618 380.005C570.767 377.586 572.638 375.979 573.245 373.756C573.685 372.149 574.368 370.607 574.592 368.926C576.593 370.869 578.735 371.841 581.503 370.308C582.204 369.916 583.242 370.047 584.121 370.066C587.506 370.122 590.798 370.86 594.118 371.392C596.549 371.784 598.98 373.391 601.356 372.616C606.845 370.832 612.727 370.953 618.132 368.879C619.469 369.524 619.815 370.888 620.236 372.083C621.62 376.007 622.873 379.987 624.173 383.938C624.098 384.359 624.135 384.742 624.575 384.957H624.556ZM619.806 417.681C617.328 417.999 614.7 418.317 612.072 418.69C610.539 418.905 610.062 419.933 610.165 421.362C610.295 423.184 611.558 422.502 612.53 422.408C615.055 422.184 617.59 421.932 620.114 421.689C617.206 422.651 614.279 423.249 611.324 423.772C610.408 423.931 609.594 424.165 609.061 424.959C608.678 425.519 607.883 426.005 608.276 426.771C608.594 427.388 609.388 427.154 609.978 427.117C614.242 426.79 618.347 425.669 622.368 424.314C624.033 423.754 624.079 422.558 622.667 421.446C622.63 421.418 622.555 421.446 622.499 421.446C623.135 421.456 623.64 421.194 623.341 420.531C623.023 419.83 622.256 420.26 621.685 420.138C620.601 419.905 619.357 421.381 618.272 419.783C619.469 419.522 620.545 419.251 621.629 419.055C622.518 418.896 623.556 418.868 623.378 417.597C623.228 416.495 623.172 415.028 621.639 415.019C618.469 415 615.261 414.561 612.119 415.393C611.399 415.589 610.426 415.71 610.548 416.831C610.679 418.027 611.586 417.952 612.521 418.018C614.999 418.176 617.421 417.196 619.806 417.681ZM584.72 453.779C580.324 455.507 580.324 455.507 580.455 457.319C582.279 456.955 584.112 456.656 585.898 456.198C586.721 455.993 588.077 456.133 587.796 454.601C587.572 453.386 587.282 452.088 585.683 452.004C584.093 451.91 582.494 451.948 580.951 452.415C580.502 452.545 579.763 452.489 579.997 453.321C580.193 454.012 580.764 453.872 581.297 453.816C582.326 453.704 583.364 453.377 584.72 453.779ZM580.362 415.393C580.362 415.43 580.362 415.458 580.362 415.495C578.94 415.561 577.528 415.617 576.107 415.71C575.069 415.776 574.742 416.729 574.723 417.401C574.695 418.345 575.658 417.915 576.172 417.887C578.744 417.775 581.306 417.579 583.869 417.429C584.57 417.382 585.056 417.168 585.056 416.345C585.056 415.458 584.476 415.383 583.812 415.393C582.672 415.393 581.521 415.393 580.362 415.393ZM584.168 413.534C581.381 412.441 578.66 412.618 575.929 413.534C578.669 413.534 581.419 413.534 584.168 413.534ZM583.775 418.756C581.905 419.036 579.978 419.279 578.061 420.316C580.558 421.399 582.101 419.933 583.775 418.756Z" fill="#1F396B"/>
<path d="M435.322 164.525C445.225 171.653 449.723 181.303 447.797 193.344C445.88 205.274 438.689 213.215 427.112 216.625C413.524 220.632 399.226 214.084 393.101 201.547C386.836 188.73 390.511 173.848 402.059 165.244C402.415 164.982 402.78 164.721 403.135 164.459C408.138 168.794 412.627 173.67 417.265 178.379C418.817 179.957 419.631 179.967 421.155 178.416C425.784 173.698 430.581 169.149 435.322 164.525Z" fill="#F1EABE"/>
<path d="M435.322 164.525C430.581 169.139 425.784 173.698 421.146 178.416C419.621 179.967 418.798 179.957 417.256 178.379C412.617 173.67 408.129 168.794 403.126 164.459C400.9 161.862 399.095 159.134 399.114 155.482C399.142 150.783 401.143 147.223 405.22 145.065C409.354 142.87 413.59 143.066 417.573 145.645C418.546 146.28 419.088 146.906 420.444 145.953C425.821 142.141 432.302 142.973 436.482 147.756C440.381 152.221 440.241 158.705 436.145 163.497C435.846 163.824 435.594 164.179 435.322 164.525Z" fill="#D93636"/>
<path d="M528.406 546.208C529.042 547.656 529.771 549.076 530.295 550.561C531.015 552.644 530.229 553.971 528.078 554.045C519.101 554.335 510.189 553.812 501.427 551.645C500.146 551.327 499.351 550.337 498.229 549.842C498.098 549.608 497.939 549.393 497.836 549.15C494.947 542.816 495.386 542.088 502.119 541.425C504.13 541.228 506.159 540.92 507.964 539.846C509.937 539.126 511.91 538.416 513.883 537.697C514.005 537.52 514.135 537.351 514.257 537.174L514.22 537.202C520.317 535.801 524.207 538.482 526.694 543.872C527.087 544.732 527.826 545.432 528.406 546.208Z" fill="#F5BCBD"/>
<path d="M745.768 149.045C752.137 149.148 757.242 154.379 757.121 160.676C756.999 167.084 751.622 172.194 745.179 172.045C738.942 171.895 733.752 166.43 733.958 160.227C734.182 153.856 739.372 148.933 745.768 149.045Z" fill="#F1EABE"/>
<path d="M621.264 543.657C621.648 545.731 622.19 547.796 622.368 549.888C622.723 554.045 621.377 555.876 617.356 557.026C616.514 557.268 615.635 557.399 614.765 557.446C606.807 557.82 604.18 554.653 606.143 547.02C606.433 545.881 606.489 544.76 606.499 543.62C607.247 541.359 606.667 539.061 606.686 536.782C606.695 534.969 605.928 533.092 607.013 531.345C610.548 528.897 614.204 529.187 617.917 530.868C617.823 535.436 619.067 539.668 621.264 543.657Z" fill="#1F396B"/>
<path d="M574.704 544.05C573.535 545.703 573.928 547.618 573.834 549.44C573.647 553.177 572.385 554.634 568.71 555.316C566.344 555.764 564.015 555.802 561.64 555.335C557.675 554.55 556.188 551.869 557.797 548.095C558.311 546.889 558.947 545.731 559.536 544.554C562.688 540.621 563.894 535.66 566.512 531.447C569.561 529.541 572.497 529.756 575.303 531.961C575.808 532.363 576.312 532.652 576.986 532.475C577.425 532.97 577.36 533.596 577.463 534.194C578.071 537.912 576.481 541.004 574.704 544.05Z" fill="#1F396B"/>
<path d="M721.315 549.412C721.595 551.103 721.221 552.513 719.304 552.794C712.384 553.803 705.473 555.017 698.441 554.064C696.403 553.793 693.289 549.963 693.691 548.067C693.99 546.637 695.954 547.441 696.618 546.31C700.031 545.666 703.164 544.545 705.099 541.359C705.212 541.163 705.586 540.901 705.679 540.958C707.764 542.051 709.56 540.304 711.533 540.378C712.421 540.416 713.244 540.397 713.927 541.172C716.368 543.947 718.855 546.675 721.315 549.412Z" fill="#F5BCBD"/>
<path d="M805.748 188.813C805.701 193.895 801.661 197.81 796.537 197.735C791.562 197.66 787.644 193.709 787.634 188.748C787.625 183.741 791.768 179.593 796.733 179.612C801.727 179.64 805.795 183.778 805.748 188.813Z" fill="#F1EABE"/>
<path d="M513.864 537.697C511.891 538.416 509.918 539.126 507.945 539.846C504.981 535.343 501.923 530.971 495.938 530.158C494.367 529.943 493.703 528.776 494.002 527.253C494.217 526.15 494.694 525.095 495.059 524.02C495.966 523.628 496.097 522.787 496.246 521.956C497.687 520.349 498.603 518.303 500.37 516.967L500.333 516.93C499.762 521.283 501.446 524.843 504.073 528.159C506.374 531.064 508.441 534.138 510.217 538.36C512.424 530.261 521.056 526.048 519.784 516.967C521.523 518.266 522.393 520.162 523.739 521.648C524.226 522.423 524.029 523.609 525.133 524.039C525.488 525.029 525.928 526.001 526.171 527.019C526.563 528.673 525.871 529.953 524.198 530.13C519.513 530.644 516.735 533.708 514.201 537.183L514.238 537.155C513.967 537.239 513.771 537.37 513.864 537.697Z" fill="#D93636"/>
<path d="M617.907 530.859C614.195 529.177 610.539 528.888 607.004 531.335C606.592 523.068 609.482 515.015 608.622 506.719C612.063 507.756 615.504 508.634 619.039 507.102C618.637 513.287 618.281 519.48 617.795 525.655C617.655 527.412 617.477 529.131 617.907 530.859Z" fill="#F5BCBD"/>
<path d="M576.976 532.466C576.313 532.643 575.798 532.354 575.293 531.952C572.488 529.747 569.552 529.532 566.503 531.438C566.017 528.047 567.279 524.833 567.476 521.526C567.747 516.967 566.98 512.427 566.55 507.887C570.449 508.905 574.302 508.775 578.108 507.401C577.164 512.24 576.612 517.164 576.743 522.05C576.827 525.515 577.481 528.972 576.976 532.466Z" fill="#F5BCBD"/>
<path d="M706.914 516.136C704.005 516.192 701.106 516.584 698.179 516.014C695.888 515.566 694.757 514.183 694.458 512.119C694.186 510.204 695.093 508.634 696.805 507.728C698.722 506.719 700.648 506.887 702.107 508.578C703.884 510.652 705.483 512.866 707.166 515.024C707.736 515.538 707.68 515.912 706.914 516.136Z" fill="#D93636"/>
<path d="M705.548 537.865C705.52 538.183 705.595 538.725 705.165 538.659C702.313 538.174 699.432 537.744 696.627 537.043C694.588 536.539 693.307 535.165 693.251 532.867C693.195 530.616 694.252 529.121 696.272 528.402C698.348 527.664 700.143 528.355 701.368 530.149C702.49 531.812 703.444 533.587 704.463 535.315C704.828 536.165 705.193 537.015 705.548 537.865Z" fill="#D93636"/>
<path d="M710.991 498.48C708.344 497.77 705.679 497.153 703.163 496.042C701.069 495.117 700.003 493.613 700.19 491.249C700.367 489.072 701.686 487.849 703.594 487.335C705.744 486.756 707.353 487.83 708.559 489.577C708.905 490.081 709.289 490.567 709.653 491.044C710.027 492.174 710.411 493.323 710.794 494.472L710.897 494.64C710.579 495.939 712.234 497.181 710.991 498.48Z" fill="#D93636"/>
<path d="M705.66 529.803C706.736 527.776 707.755 525.711 708.915 523.74C710.065 521.788 712.001 521.339 714.011 521.881C715.975 522.414 717.144 523.927 717.209 525.992C717.275 528.168 716.171 529.672 714.067 530.392C711.28 531.345 708.382 531.616 705.483 531.952C704.435 531.139 705.473 530.504 705.66 529.803Z" fill="#D93636"/>
<path d="M710.832 490.558C711.094 488.988 711.299 487.419 711.627 485.868C712.113 483.533 713.544 482.057 715.966 481.926C718.023 481.814 719.631 482.897 720.286 484.813C721.043 487.017 720.501 489.044 718.406 490.362C716.087 491.81 713.721 493.174 711.374 494.575C711.243 494.659 711.084 494.687 710.907 494.659L710.804 494.491C710.813 493.183 710.822 491.866 710.832 490.558Z" fill="#D93636"/>
<path d="M707.905 485.055C706.708 482.701 705.511 480.356 704.305 478.002C703.126 475.713 703.108 473.546 705.268 471.846C706.97 470.51 708.84 470.454 710.654 471.734C712.674 473.172 713.067 475.162 711.748 478.124C710.776 480.291 709.607 482.365 708.531 484.485C708.316 484.672 708.111 484.868 707.905 485.055Z" fill="#D93636"/>
<path d="M708.69 512.278C708.84 511.867 708.98 511.456 709.13 511.045C710.364 511.007 710.112 509.615 710.86 509.139C712.001 507.812 713.104 506.439 714.301 505.169C715.788 503.59 717.583 503.132 719.566 504.197C721.464 505.225 722.427 506.878 722.006 509.017C721.567 511.241 720.024 512.567 717.752 512.689C714.937 512.838 712.113 512.764 709.289 512.792C709.008 512.698 708.69 512.679 708.69 512.278Z" fill="#D93636"/>
<path d="M797.229 148.41C796.986 150.278 795.948 151.455 793.956 151.408C791.973 151.362 790.832 150.166 790.87 148.204C790.907 146.233 792.198 145.065 794.096 145.112C795.994 145.159 797.117 146.354 797.229 148.41Z" fill="#F1EABE"/>
<path d="M708.69 512.278C708.69 512.68 709.008 512.698 709.279 512.782C707.016 518.229 705.23 523.787 705.66 529.813C705.473 530.513 704.435 531.149 705.492 531.952C705.511 533.923 705.529 535.904 705.548 537.875C705.183 537.025 704.828 536.174 704.463 535.324C704.37 528.813 704.473 522.33 706.913 516.145C707.671 515.921 707.727 515.538 707.156 515.024C707.671 514.109 708.176 513.193 708.69 512.278Z" fill="#413E57"/>
<path d="M710.86 509.139C710.112 509.615 710.364 511.007 709.13 511.045C710.439 506.962 711.178 502.786 711 498.489C712.244 497.181 710.579 495.948 710.916 494.659C711.093 494.687 711.252 494.659 711.383 494.575C712.655 499.479 711.776 504.309 710.86 509.139Z" fill="#413E57"/>
<path d="M707.905 485.055C708.111 484.869 708.316 484.672 708.522 484.486C709.298 486.513 710.065 488.531 710.841 490.558C710.832 491.866 710.822 493.174 710.813 494.481C710.43 493.332 710.046 492.183 709.672 491.053C709.083 489.063 708.494 487.064 707.905 485.055Z" fill="#413E57"/>
<path d="M496.246 521.965C496.097 522.797 495.966 523.638 495.059 524.03C494.161 523.563 493.001 523.479 492.347 521.956C494.329 522.9 495.395 522.386 495.33 520.331C496.368 520.676 496.022 521.452 496.246 521.965Z" fill="#F5BCBD"/>
<path d="M525.142 524.049C524.048 523.619 524.244 522.442 523.749 521.657C523.917 521.162 524.085 520.676 524.815 520.349C524.665 522.208 525.226 523.245 527.555 522.031C526.9 523.469 525.881 523.572 525.142 524.049Z" fill="#F5BCBD"/>
<path d="M500.37 516.978C500.427 516.912 500.474 516.846 500.53 516.781C500.464 516.837 500.398 516.893 500.333 516.94C500.333 516.94 500.37 516.978 500.37 516.978Z" fill="#D94521"/>
<path d="M618.122 368.888C612.717 370.962 606.835 370.841 601.346 372.625C598.962 373.401 596.539 371.794 594.108 371.401C590.788 370.869 587.497 370.131 584.112 370.075C583.233 370.065 582.204 369.935 581.493 370.318C578.725 371.84 576.584 370.878 574.583 368.935C573.573 367.272 572.666 365.665 573.563 363.545C574.115 362.246 573.32 360.948 572.563 359.873C571.562 358.444 571.113 356.903 571.113 355.193C571.151 354.838 571.244 354.492 571.225 354.138C570.524 341.563 570.907 328.961 570.421 316.377C570.328 314.042 570.982 313.5 573.189 313.659C577.612 313.977 582.036 314.341 586.487 314.117C588.694 314.005 590.311 313.369 591.78 311.361C593.323 309.25 592.715 307.157 593.005 305.046C593.865 305.092 594.435 305.662 595.034 306.185C599.158 309.819 603.74 312.706 608.865 314.733C609.65 317.022 610.847 319.115 612.399 320.927C613.596 322.319 613.97 323.758 613.858 325.533C613.746 327.364 613.746 329.185 614.859 330.895C617.169 334.463 619.235 338.181 621.517 341.75C622.34 343.03 622.34 344.104 621.779 345.449C621.031 347.224 619.871 348.775 619.6 350.812C618.964 355.576 618.871 360.359 619.254 365.114C619.394 366.693 619.095 367.814 618.122 368.888Z" fill="white"/>
<path d="M593.014 305.064C592.724 307.176 593.332 309.268 591.789 311.38C590.321 313.388 588.694 314.023 586.496 314.135C582.054 314.36 577.622 313.995 573.198 313.678C570.992 313.519 570.346 314.061 570.43 316.396C570.917 328.97 570.533 341.573 571.235 354.156C571.253 354.502 571.16 354.857 571.122 355.212C569.103 354.334 568.205 352.269 566.624 350.896C562.884 347.626 558.377 345.767 554.112 343.497C547.398 339.938 541.469 335.444 536.186 330.017C535.017 328.812 534.98 328.27 536.261 326.906C541.17 321.712 547.819 319.965 554.047 317.368C558.358 315.574 562.875 314.22 565.932 310.259C567.008 308.857 567.363 307.774 566.316 306.251C563.763 302.542 564.567 298.422 565.493 294.545C566.101 292.004 566.868 289.641 566.035 287.063C565.932 286.736 565.932 286.362 565.942 286.007C566.138 277.16 564.801 268.323 565.493 259.495C565.802 255.543 565.783 251.834 564.464 248.069C563.95 246.593 563.323 245.37 562.257 244.248C560.368 242.268 558.545 240.222 556.759 238.139C556.198 237.485 555.59 236.672 555.973 235.738C556.394 234.71 557.413 234.944 558.283 234.86C560.284 234.682 562.126 235.262 563.978 235.897C564.81 236.186 565.774 236.999 566.587 235.794C566.69 236.383 566.942 236.99 566.877 237.569C566.662 239.727 567.298 240.035 569.299 239.185C571.768 238.139 574.311 237.102 577.079 236.999C579.155 236.682 579.819 237.662 580.464 239.634C582.307 245.257 581.587 251.199 582.933 256.86C583.298 258.392 583.354 259.999 583.55 261.568C583.345 266.417 586.889 271.144 584.037 276.086C585.308 279.907 584.523 284.409 587.824 287.567L587.768 287.548C587.936 287.754 588.105 287.95 588.273 288.156C589.189 289.445 589.947 290.893 591.069 291.976C592.481 293.34 592.846 294.76 592.687 296.685C592.481 299.45 592.518 302.271 593.014 305.064Z" fill="#8E434A"/>
<path d="M587.843 287.548C584.542 284.391 585.327 279.888 584.056 276.067C586.898 271.125 583.364 266.408 583.569 261.55C585.898 259.252 588.638 258.729 591.864 259.093C595.118 259.457 598.326 260.205 601.702 258.486C604.965 256.823 608.827 258.374 611.146 261.326C612.297 262.783 613.391 264.287 614.625 265.67C615.523 266.679 616.682 267.276 618.113 267.351C622.087 267.566 623.827 269.005 625.201 272.816C626.174 275.525 626.193 278.375 626.66 281.149C627.427 285.745 627.923 287.334 632.823 287.109C637.012 286.913 638.705 289.464 637.499 293.434C637.171 294.527 637.461 295.293 638.078 296.124C639.303 297.75 640.594 299.347 641.641 301.085C643.147 303.598 642.202 305.391 639.359 305.644C638.724 305.7 638.172 305.616 637.779 306.298C637.143 307.391 636.04 307.4 634.955 307.307C632.617 307.092 630.008 309.147 627.951 306.41C627.726 306.111 627.1 306.447 626.866 306.868C626.576 307.391 626.688 307.895 627.081 308.334C627.829 309.156 628.858 309.539 629.868 309.81C632.262 310.445 633.328 311.781 632.589 314.276L632.598 314.21C632.411 314.397 632.234 314.584 632.047 314.771L632.075 314.743C629.559 315.929 627.483 315.116 625.594 313.36C623.817 311.707 622.134 311.744 620.236 313.351C617.056 316.023 614.56 315.668 611.969 312.342C610.669 310.67 609.379 309.007 607.649 307.746C607.939 304.934 608.35 302.122 608.463 299.301C608.547 297.395 609.239 296.367 610.987 295.47C615.513 293.144 618.141 289.239 619.189 284.297C619.404 283.288 619.694 282.037 617.786 282.42C613.344 283.335 609.8 281.784 606.892 278.431C606.078 277.497 605.031 276.777 604.17 275.89C602.281 273.937 600.131 273.704 597.905 275.058C594.688 277.02 591.471 277.478 588.142 275.469C586.15 279.552 587.095 283.55 587.843 287.548Z" fill="#1F396B"/>
<path d="M618.122 368.889C619.086 367.805 619.394 366.693 619.263 365.124C618.88 360.359 618.973 355.586 619.609 350.821C619.88 348.785 621.04 347.234 621.788 345.459C622.349 344.123 622.349 343.039 621.526 341.76C619.235 338.182 617.169 334.464 614.868 330.904C613.755 329.185 613.755 327.373 613.867 325.542C613.98 323.767 613.606 322.328 612.409 320.937C610.847 319.124 609.659 317.032 608.874 314.743C608.808 314.36 608.743 313.986 608.677 313.603C609.828 312.828 610.772 313.472 611.492 314.21C614.999 317.798 618.599 321.263 622.648 324.244C625.145 326.084 626.501 328.765 627.726 331.586C628.269 330.381 628.624 329.326 628.774 328.233C629.054 326.187 629.896 325.505 632 326.271C633.197 326.7 634.506 327.168 635.871 326.915C638.321 327.784 640.509 329.111 642.595 330.633C644.156 331.923 645.793 333.128 647.252 334.529C648.748 335.977 647.944 337.696 647.345 339.228C646.7 340.872 645.625 339.714 644.718 339.415C643.259 338.929 642.941 339.751 642.642 340.975C641.725 344.637 642.211 348.542 640.594 352.064C640.154 353.026 639.902 354.128 639.275 354.941C635.488 359.892 634.684 365.451 635.142 371.523C635.535 376.614 634.814 381.715 634.179 386.788C633.935 388.759 633.056 388.852 631.457 388.17C629.12 387.171 627.137 385.424 624.565 384.938L624.575 384.957C624.444 384.62 624.313 384.275 624.173 383.938C622.873 379.987 621.62 376.007 620.236 372.084C619.815 370.897 619.469 369.533 618.122 368.889Z" fill="#8E434A"/>
<path d="M635.703 244.902C635.843 240.119 638.134 236.579 642.333 234.486C646.176 232.571 650.141 232.917 653.704 235.346C655.06 236.27 655.902 236.327 657.314 235.383C665.487 229.909 675.1 236.28 675.455 243.875C675.652 248.013 674.623 251.133 671.865 253.899C666.983 258.803 662.036 263.652 657.211 268.603C656.061 269.78 655.397 269.724 654.275 268.584C649.309 263.512 644.241 258.542 639.238 253.506C636.881 251.143 635.637 248.294 635.703 244.902Z" fill="#D93636"/>
<path d="M724.924 255.562C726.822 255.384 729.17 256.131 731.18 257.72C732.153 258.486 732.751 258.57 733.855 257.813C739.306 254.057 745.806 254.898 749.902 259.625C753.072 263.287 754.147 271.247 748.957 276.002C743.861 280.673 739.063 285.671 734.191 290.584C733.153 291.631 732.536 292.051 731.264 290.734C726.205 285.512 720.912 280.504 715.9 275.254C712.412 271.602 711.496 267.192 713.562 262.493C715.554 257.934 719.154 255.562 724.924 255.562Z" fill="#D93636"/>
<path d="M478.432 258.224C478.544 252.133 480.527 248.751 484.37 246.565C488.242 244.361 492.309 244.435 495.975 246.79C497.874 248.013 498.94 247.724 500.735 246.715C509.46 241.792 517.942 248.779 518.231 255.552C518.409 259.672 517.362 262.802 514.612 265.567C509.806 270.415 504.915 275.17 500.165 280.075C498.846 281.429 498.107 281.373 496.817 280.056C492.001 275.096 487.063 270.256 482.173 265.371C479.751 262.942 478.357 260.092 478.432 258.224Z" fill="#D93636"/>
<path d="M513.191 342.684C513.144 345.179 512.209 347.365 510.488 349.121C505.158 354.567 499.716 359.92 494.385 365.367C493.404 366.376 492.889 366.039 492.085 365.227C486.97 360.06 481.761 354.988 476.683 349.775C472.447 345.431 472.054 338.565 475.636 334.239C479.685 329.354 486.268 328.41 491.664 331.997C492.59 332.614 493.188 333.128 494.385 332.24C498.397 329.251 502.839 329.111 507.15 331.353C511.629 333.688 513.294 337.78 513.191 342.684Z" fill="#D93636"/>
<path d="M538.683 279.066C541.582 281.448 545.425 279.561 549.315 279.066C552.794 278.627 555.394 280.467 556.722 283.55C557.993 286.493 558.19 289.697 555.786 292.257C552.102 296.199 548.203 299.945 544.434 303.813C543.62 304.644 543.134 304.298 542.489 303.644C538.814 299.926 535.008 296.339 531.464 292.509C529.032 289.884 528.602 286.67 530.201 283.391C531.716 280.299 534.25 278.804 538.683 279.066Z" fill="#D93636"/>
<path d="M683.189 332.315C683.535 334.594 682.516 336.472 680.87 338.116C677.485 341.489 674.044 344.814 670.752 348.28C669.536 349.56 668.882 349.28 667.816 348.168C664.627 344.852 661.307 341.657 658.081 338.369C654.752 334.968 654.312 330.194 656.959 326.841C659.568 323.534 664.019 322.861 668.19 325.318C669.171 325.897 669.686 325.692 670.499 325.168C676.194 321.525 683.816 325.495 683.189 332.315Z" fill="#D93636"/>
<path d="M577.107 236.99C574.339 237.083 571.796 238.13 569.327 239.176C567.326 240.026 566.681 239.718 566.905 237.56C566.961 236.981 566.718 236.383 566.615 235.785C566.55 230.553 566.419 225.34 565.568 220.156C565.334 218.698 564.913 217.988 563.38 217.783C562.033 217.596 560.322 217.643 559.62 216.213C558.218 213.383 556.048 210.842 555.852 207.516C555.758 205.965 557.021 205.498 558.227 205.732C564.146 206.89 568.925 210.263 573.526 213.915C574.096 214.373 574.302 215.186 574.18 215.877C572.927 222.697 575.742 228.937 576.864 235.42C576.948 235.944 577.023 236.467 577.107 236.99Z" fill="#F5BCBD"/>
<path d="M642.595 330.643C640.509 329.12 638.321 327.793 635.871 326.924C632.58 324.963 631.672 321.955 631.878 318.321C631.944 317.125 632.57 315.948 632.065 314.733L632.037 314.761C632.654 314.995 632.72 314.687 632.589 314.201L632.58 314.266C636.75 313.481 639.771 315.677 642.651 318.18C643.455 318.881 643.39 319.918 643.315 320.899C643.081 324.15 642.838 327.392 642.595 330.643Z" fill="#F5BCBD"/>
<path d="M601.58 454.713C597.905 454.292 594.239 453.872 590.564 453.452C588.03 446.94 591.106 441.008 592.5 434.917C593.687 429.761 594.763 424.576 596.558 419.008C597.736 423.062 599.335 426.472 598.961 430.358C598.662 433.432 599.046 436.365 601.019 438.916C601.533 439.579 601.673 440.336 601.664 441.167C601.627 445.67 601.608 450.191 601.58 454.713Z" fill="#F1EABE"/>
<path d="M619.806 417.681C617.43 417.186 615.008 418.167 612.521 418.008C611.586 417.943 610.679 418.027 610.548 416.822C610.426 415.71 611.399 415.579 612.119 415.383C615.252 414.542 618.459 414.991 621.638 415.01C623.172 415.019 623.228 416.486 623.378 417.588C623.556 418.858 622.518 418.886 621.629 419.045C620.544 419.241 619.469 419.512 618.272 419.774C619.357 421.371 620.6 419.895 621.685 420.129C622.246 420.25 623.022 419.811 623.34 420.521C623.64 421.194 623.135 421.446 622.499 421.437C622.555 421.437 622.63 421.409 622.667 421.437C624.079 422.549 624.032 423.744 622.368 424.305C618.347 425.659 614.242 426.78 609.977 427.107C609.388 427.154 608.603 427.388 608.275 426.762C607.883 425.996 608.678 425.51 609.061 424.949C609.603 424.155 610.407 423.922 611.324 423.763C614.27 423.24 617.206 422.642 620.114 421.68C617.589 421.923 615.064 422.165 612.53 422.399C611.558 422.483 610.305 423.174 610.164 421.353C610.062 419.933 610.529 418.896 612.072 418.681C614.69 418.326 617.318 418.008 619.806 417.681Z" fill="#F5BCBD"/>
<path d="M584.719 453.779C583.363 453.386 582.325 453.704 581.287 453.816C580.745 453.872 580.175 454.003 579.988 453.321C579.754 452.499 580.492 452.555 580.941 452.415C582.484 451.948 584.083 451.92 585.673 452.004C587.272 452.097 587.562 453.386 587.787 454.601C588.076 456.133 586.711 455.993 585.888 456.198C584.093 456.656 582.269 456.955 580.446 457.319C580.315 455.498 580.315 455.498 584.719 453.779Z" fill="#F5BCBD"/>
<path d="M580.362 415.393C581.512 415.393 582.662 415.393 583.822 415.393C584.486 415.393 585.066 415.458 585.066 416.345C585.066 417.168 584.579 417.382 583.878 417.429C581.316 417.579 578.744 417.775 576.182 417.887C575.667 417.906 574.704 418.345 574.732 417.401C574.751 416.728 575.078 415.776 576.116 415.71C577.528 415.617 578.95 415.57 580.371 415.495C580.362 415.458 580.362 415.421 580.362 415.393Z" fill="#F5BCBD"/>
<path d="M584.168 413.534C581.418 413.534 578.679 413.534 575.929 413.534C578.65 412.609 581.372 412.431 584.168 413.534Z" fill="#F5BCBD"/>
<path d="M583.775 418.756C582.101 419.933 580.558 421.399 578.061 420.316C579.978 419.279 581.905 419.036 583.775 418.756Z" fill="#F5BCBD"/>
<path d="M624.163 383.957C624.294 384.293 624.425 384.639 624.565 384.975C624.126 384.751 624.089 384.377 624.163 383.957Z" fill="#F1EABE"/>
<path d="M513.864 537.697C513.771 537.361 513.958 537.239 514.238 537.174C514.117 537.351 513.995 537.529 513.864 537.697Z" fill="white"/>
<path d="M608.677 313.603C608.743 313.986 608.808 314.36 608.874 314.743C603.759 312.715 599.167 309.829 595.043 306.195C594.454 305.672 593.884 305.102 593.014 305.055C592.518 302.271 592.481 299.441 592.715 296.647C592.874 294.732 592.509 293.312 591.097 291.939C589.975 290.855 589.227 289.407 588.301 288.118C588.254 287.81 588.282 287.455 587.796 287.511L587.852 287.53C587.104 283.531 586.159 279.533 588.133 275.432C591.452 277.44 594.678 276.983 597.895 275.021C600.13 273.657 602.272 273.9 604.161 275.852C605.021 276.74 606.068 277.468 606.882 278.393C609.79 281.747 613.334 283.298 617.776 282.382C619.675 281.99 619.394 283.251 619.179 284.26C618.132 289.202 615.504 293.116 610.978 295.433C609.229 296.33 608.537 297.367 608.453 299.263C608.331 302.084 607.92 304.896 607.639 307.708C607.415 309.782 607.116 311.856 608.677 313.603Z" fill="#F5BCBD"/>
<path d="M587.787 287.53C588.273 287.464 588.254 287.829 588.292 288.137C588.123 287.931 587.955 287.726 587.787 287.53Z" fill="#413E57"/>
<path d="M608.678 313.603C607.116 311.856 607.415 309.782 607.64 307.727C609.37 308.988 610.651 310.651 611.96 312.323C614.55 315.649 617.056 316.004 620.226 313.332C622.134 311.725 623.817 311.688 625.585 313.341C627.474 315.107 629.55 315.91 632.065 314.724C632.57 315.948 631.944 317.125 631.878 318.311C631.673 321.945 632.589 324.953 635.871 326.915C634.506 327.167 633.197 326.7 632 326.271C629.896 325.514 629.054 326.186 628.774 328.232C628.624 329.325 628.259 330.39 627.726 331.586C626.501 328.765 625.145 326.074 622.648 324.243C618.599 321.263 614.999 317.797 611.492 314.21C610.763 313.472 609.818 312.827 608.678 313.603Z" fill="#F1EABE"/>
<path d="M632.589 314.191C632.72 314.687 632.655 314.995 632.037 314.752C632.215 314.574 632.402 314.378 632.589 314.191Z" fill="#F1EABE"/>
</g>
<defs>
<linearGradient id="paint0_linear" x1="61.7536" y1="311.165" x2="957.57" y2="311.165" gradientUnits="userSpaceOnUse">
<stop offset="0.00558659" stop-color="#8E434A"/>
<stop offset="1" stop-color="#754058"/>
</linearGradient>
<clipPath id="clip0">
<rect width="488" height="474" fill="white" transform="translate(349 109.659)"/>
</clipPath>
</defs>
</svg>
