<svg width="264" height="142" viewBox="0 0 264 142" fill="none" xmlns="http://www.w3.org/2000/svg">
<g clip-path="url(#clip0)">
<path d="M116.603 39.7912C116.865 37.8853 117.002 37.7658 118.849 37.8196C119.969 37.8495 120.881 37.4551 121.369 36.4096C121.84 35.3998 121.721 34.408 121.059 33.4999C119.844 31.827 119.844 31.833 121.881 31.361C122.793 31.1518 123.716 30.9786 124.604 30.6978C125.95 30.2736 126.999 29.461 127.35 28.0211C127.511 27.3639 127.809 27.0353 128.482 26.9218C129.602 26.7306 130.395 26.0136 130.567 24.9203C130.758 23.6775 131.556 23.7014 132.134 24.2392C133.88 25.8702 135.649 25.4042 137.77 25.1593C139.628 24.9442 140.856 23.8747 142.416 23.3489C143.018 23.1458 142.679 22.4886 142.589 22.0823C142.434 21.3952 142.607 21.204 143.292 21.2697C144.245 21.3653 145.145 21.1502 146.098 20.5229C144.972 19.8239 143.769 19.5789 142.631 19.2085C141.672 18.8978 141.356 18.5154 141.94 17.5893C142.172 17.2249 142.333 16.7708 142.387 16.3406C142.536 15.086 141.642 14.3331 140.474 14.835C139.253 15.3548 138.103 16.0658 136.93 16.6991C136.221 17.0815 136.697 17.4161 136.995 17.7268C138.657 19.4415 138.663 19.8298 136.87 21.2399C136.543 21.4968 136.715 21.6282 136.733 21.8672C136.769 22.3571 137.293 23.1757 136.286 23.1697C135.464 23.1637 134.303 24.0719 133.85 22.4647C133.498 21.216 132.533 20.8157 130.943 21.0905C130.275 21.204 129.513 21.6939 129.042 20.8037C128.607 19.9852 128.941 19.2025 129.465 18.5692C129.948 17.9896 130.538 17.4997 131.103 16.9979C132.295 15.9463 133.296 14.7394 133.826 13.2398C134.124 12.3914 134.714 12.0389 135.417 11.6087C139.837 8.89022 144.65 9.30248 149.464 9.76253C150.709 9.88202 151.758 10.4914 152.353 11.6744C152.901 12.7797 152.669 13.2278 151.49 13.419C150.959 13.5027 150.429 13.5803 149.905 13.67C149.821 13.6819 149.75 13.7476 149.673 13.7895C151.174 16.245 152.985 15.8388 155.439 12.4691C156.059 13.67 156.97 13.8253 158.084 13.2219C161.391 11.4354 164.911 10.3958 168.682 10.2823C169.058 10.2704 169.272 10.1867 169.493 9.78642C170.1 8.67513 170.976 8.62734 171.786 9.61316C172.15 10.0553 172.388 10.599 172.656 11.1128C172.888 11.549 173.109 12.003 173.526 12.2838C174.092 12.6602 174.741 12.7977 175.23 12.242C175.706 11.6983 175.402 11.1546 174.932 10.7244C174.503 10.3301 174.008 10.0015 173.645 9.55939C173.067 8.85438 173.019 8.33458 174.157 8.10157C177.13 7.49215 180.091 6.84091 183.135 6.69752C183.886 6.66167 184.666 6.66765 185.292 6.12395C185.536 5.91484 185.774 5.64 185.673 5.32334C185.542 4.92304 185.143 5.13813 184.863 5.11423C183.766 5.01864 182.795 4.67808 182.081 3.79383C182.152 3.68031 182.188 3.56082 182.235 3.55484C186.298 3.09479 190.337 2.93348 194.257 4.41519C195.842 5.01266 195.878 5.25165 194.758 6.49438C194.436 6.85286 193.936 7.18147 194.15 7.73711C194.4 8.37043 195.044 8.21509 195.556 8.23898C198.505 8.37043 201.46 8.34055 204.367 7.80881C206.226 7.46825 207.888 7.77296 209.55 8.56759C210.551 9.04557 211.563 9.56536 212.731 9.46977C213.803 9.38612 214.572 8.91412 214.351 7.70724C214.226 7.03807 214.661 6.92456 215.019 6.73934C216.18 6.1359 217.414 6.14187 218.671 6.38086C219.594 6.5601 220.499 6.79909 221.345 7.21732C224.211 8.63331 227.19 9.36222 230.401 8.92607C230.835 8.86632 231.348 8.83645 231.729 9.00374C235.631 10.7364 239.819 10.0852 243.876 10.5213C247.671 10.9276 251.329 11.8477 254.861 13.2756C255.267 13.4369 255.648 13.7058 255.987 13.9866C256.416 14.3451 256.75 14.8589 256.535 15.4026C256.285 16.018 255.672 15.6356 255.249 15.5998C254.188 15.4982 253.14 15.301 252.032 15.1338C252.252 15.9105 252.902 15.9344 253.408 16.1554C253.938 16.3884 254.51 16.5318 255.004 16.8126C255.427 17.0576 255.767 17.4579 255.773 18.0016C255.779 18.7365 255.136 18.4497 254.778 18.5991C253.932 18.9516 253.521 19.6984 253.074 20.4213C251.954 22.2556 251.71 22.3751 249.613 21.9987C249.25 21.9329 248.862 21.7955 248.612 22.1002C248.285 22.4946 248.761 22.7216 248.928 22.9845C249.81 24.3347 250.668 25.685 251.061 27.2803C251.192 27.812 251.245 28.3318 251.085 28.8636C250.924 29.3893 250.739 29.927 250.155 30.0884C249.571 30.2497 249.262 29.7538 248.97 29.3833C248.32 28.5529 247.391 28.278 246.462 27.9435C244.555 27.2564 244.228 26.5095 244.966 24.5976C245.377 23.5222 245.508 22.4229 245.312 21.2996C245.014 19.5849 243.811 19.0531 242.345 19.9673C242.113 20.1107 241.821 20.3616 241.63 20.1883C240.629 19.2742 240.379 20.0031 239.837 20.7619C239.319 21.4908 238.282 21.5506 237.377 21.5864C235.536 21.6521 233.731 21.8792 232.122 22.9008C231.675 23.1876 231.104 23.4087 231.163 24.0659C231.229 24.7948 231.801 25.1234 232.42 25.2907C233.665 25.6313 234.958 25.8344 236.173 26.2586C239.057 27.2564 241.32 28.9293 241.964 32.1616C242.077 32.7292 242.166 33.2968 241.809 34.0496C240.409 32.7292 239.075 31.4625 237.669 30.1302C237.669 31.7075 237.633 33.1892 237.675 34.665C237.734 36.5948 237.597 36.8218 235.732 37.4312C234.392 37.8674 233.999 38.7815 234.708 40.0183C235.059 40.6337 235.56 41.1654 236.012 41.7091C236.531 42.3305 237.073 42.9518 237.24 43.7584C237.43 44.6785 237.162 45.497 236.245 45.8734C235.351 46.2379 234.642 45.6404 234.44 44.9294C233.737 42.4798 231.92 41.6493 229.68 41.267C229.215 41.1833 228.786 40.8906 228.333 40.7053C228.077 40.5978 227.899 40.0959 227.571 40.4066C227.082 40.8667 227.059 41.5119 227.07 42.1572C227.076 42.6053 227.309 42.6232 227.672 42.6113C228.083 42.5933 228.536 42.7547 228.727 43.1012C229.608 44.6725 231.002 45.9989 231.104 47.9407C231.127 48.3589 231.229 48.7174 231.449 49.0699C232.932 51.4418 232.927 52.9415 231.229 55.17C229.412 57.5599 227.374 59.7526 225.045 61.6585C224.491 62.1126 224.02 62.6025 223.74 63.3135C223.556 63.7855 224.425 64.8072 223.246 64.7056C222.299 64.622 222.894 63.6361 222.733 63.0805C222.602 62.6264 222.716 62.1066 222.698 61.6107C222.686 61.2343 222.876 60.7504 222.358 60.5652C221.953 60.4158 221.572 60.595 221.22 60.8161C220.178 61.4853 219.808 62.7937 220.285 64.1559C220.66 65.2254 221.375 66.0977 221.953 67.0537C222.513 67.9857 222.948 68.9536 222.87 70.0768C222.805 71.0507 222.364 71.7975 221.476 72.1978C220.577 72.6041 219.844 72.2158 219.177 71.6063C218.486 70.979 217.962 70.1665 217.122 69.6945C216.151 69.1508 215.728 69.3658 215.62 70.4712C215.406 72.6937 215.894 74.7132 217.271 76.5235C218.015 77.5033 218.79 78.525 218.492 80.0306C216.895 79.2539 215.984 77.9813 215.287 76.5056C214.298 74.4085 214.119 72.1142 213.702 69.8797C213.571 69.1747 213.422 68.4816 213.279 67.7766C213.094 66.8625 212.981 66.0738 211.587 66.3486C210.634 66.5339 209.919 65.6377 209.425 64.8012C208.811 63.7676 208.305 62.6563 207.608 61.6824C206.309 59.8661 204.724 59.663 202.854 60.8878C200.393 62.501 198.91 64.604 199.25 67.7049C199.303 68.1888 199.226 68.6907 199.208 69.1806C196.164 67.7407 193.179 66.1754 190.236 64.5323C189.855 62.9849 189.474 61.4434 189.063 59.7884C187.877 61.545 187.651 61.545 186.471 59.9259C185.917 59.1611 185.25 58.5099 184.493 57.9482C182.486 56.4486 180.15 55.7376 177.767 55.1402C174.878 54.4112 171.959 53.7959 169.32 52.3141C168.897 52.0751 168.45 51.4299 167.956 51.8182C167.461 52.2006 167.443 52.9415 167.497 53.5688C167.533 54.005 167.705 54.4292 167.819 54.8593C166.305 54.3336 164.804 53.76 163.273 53.294C162.207 52.9713 162.01 52.6726 162.868 51.7704C166.008 48.4605 169.165 45.1684 172.507 42.0616C176.868 38.0108 181.33 34.0914 186.554 31.1518C187.365 30.6978 187.901 30.4887 188.663 31.3849C189.682 32.5858 191.434 32.6097 192.691 31.7194C193.9 30.8591 194.376 29.2758 193.834 27.9076C193.292 26.5334 191.827 25.6731 190.403 25.8822C188.878 26.1092 187.692 27.3161 187.704 28.9054C187.71 29.7956 187.317 30.0107 186.614 30.2556C179.024 32.8845 171.494 35.6687 164.006 38.5664C159.389 40.3528 154.79 42.193 150.185 44.0034C148.886 43.7943 147.629 43.5015 146.974 42.1572C146.301 40.777 146.908 39.8151 148.427 39.9167C149.541 39.9884 150.644 40.1796 151.752 40.2513C153.211 40.3409 154.671 40.7113 156.142 40.3827C157.203 40.1437 157.9 39.5403 158.031 38.4111C158.156 37.3356 157.459 36.8935 156.589 36.6246C155.636 36.3319 155.296 35.7344 155.642 34.7904C155.803 34.3543 155.958 33.9121 155.493 33.5835C154.981 33.2131 154.486 33.4999 154.188 33.8584C153.175 35.0772 152.008 34.9159 150.679 34.5156C148.553 33.8823 147.844 34.5216 148.171 36.7322C148.338 37.8614 147.897 38.423 146.867 38.662C146.694 38.7038 146.515 38.7277 146.342 38.7576C144.299 39.1161 143.971 39.6717 144.579 41.7031C144.68 42.0437 144.776 42.3902 144.865 42.7308C145.145 43.7704 144.627 44.1229 143.685 44.1049C142.017 44.081 140.844 42.5874 141.189 40.8726C141.35 40.072 141.672 39.1878 140.838 38.668C139.057 37.5507 137.198 36.553 135.321 35.4775C134.982 36.6485 135.464 37.3297 136.102 37.9331C136.59 38.3872 137.144 38.7755 137.633 39.2356C138.514 40.0661 138.693 41.0638 138.199 42.1632C137.954 42.7069 137.585 43.2565 136.971 43.2804C136.364 43.2984 136.37 42.5993 136.173 42.1871C135.369 40.4664 134.416 38.8651 132.813 37.7658C130.067 35.8898 126.933 36.6127 125.349 39.5104C124.955 40.2274 124.449 40.8368 123.937 41.4522C121.453 41.0698 119.028 40.4245 116.603 39.7912Z" fill="#1F396B"/>
<path d="M86.3339 87.1107C87.305 87.732 88.9135 87.4692 89.253 88.915C89.676 90.7313 89.5688 92.5895 88.7169 94.2803C88.1748 95.3498 87.4241 96.3117 86.7331 97.2975C85.7263 98.7374 85.5774 100.207 86.2803 101.85C87.2692 104.144 87.0309 104.736 84.9101 105.961C83.5221 106.761 82.14 107.58 80.7281 108.351C79.906 108.799 79.5843 109.39 79.7868 110.322C80.2276 112.324 79.8345 114.062 78.0532 115.281C77.4456 115.699 77.9996 115.855 78.1962 116.052C78.7324 116.596 79.5366 117.265 79.3162 117.904C79.0958 118.555 78.0473 118.227 77.3622 118.275C76.2064 118.352 75.0388 118.4 73.8831 118.34C72.918 118.287 72.5188 118.49 72.9359 119.511C73.1205 119.959 73.2337 120.449 73.3171 120.933C73.6031 122.69 73.0073 123.455 71.2261 123.556C70.684 123.586 70.3325 123.55 70.3206 124.297C70.3027 125.343 69.0874 125.564 68.718 126.251C68.4261 126.794 69.6116 127.619 69.0695 128.527C68.8193 128.945 68.587 129.376 68.3427 129.806C67.8006 130.768 67.61 131.64 68.8312 132.279C69.4329 132.596 69.4985 133.116 69.3376 133.773C68.5155 137.119 69.564 138.953 72.8822 140.058C73.4303 140.243 73.9903 140.393 74.5503 140.548C74.8005 140.614 75.1282 140.584 75.152 140.942C75.1699 141.229 74.9733 141.432 74.7648 141.606C74.2763 142.024 73.6924 142.078 73.1205 141.952C70.9938 141.48 68.8432 141.032 66.8713 140.07C65.5547 139.425 64.4943 138.553 64.393 136.868C64.3394 135.978 63.7556 135.207 63.2552 134.466C62.3794 133.175 61.9028 131.753 61.7956 130.206C61.7062 128.874 61.2356 127.703 60.5326 126.579C58.3225 123.078 57.8935 119.362 59.651 115.598C60.9377 112.838 60.9377 110.298 59.3173 107.723C58.5488 106.498 58.1437 105.13 58.0186 103.678C57.9174 102.519 57.3157 101.683 56.291 101.145C54.9804 100.458 53.7294 99.6874 52.7226 98.5821C51.6622 97.417 50.9771 96.0787 51.0724 94.4655C51.1796 92.6492 50.4826 91.3169 49.0409 90.2115C47.0631 88.7 47.3312 88.2817 47.7243 85.7783C48.0758 83.5319 49.1541 82.0382 50.6732 80.6102C51.3881 79.9351 51.6204 79.027 51.4596 78.0232C51.3524 77.36 51.2749 76.6909 51.2451 76.0217C51.1796 74.5938 50.7507 73.9843 49.3328 74.074C46.3184 74.2592 44.5669 72.5922 43.3576 70.1785C42.5474 68.5713 41.487 67.6392 39.6164 67.7348C38.9492 67.7707 38.2522 67.5616 37.8173 66.9999C37.1381 66.1217 36.2564 66.0022 35.2973 66.2591C34.2607 66.5399 33.3731 66.4443 32.5986 65.6317C32.3961 65.4167 32.0803 65.1896 31.8003 65.1717C29.9655 65.0403 29.1553 63.7378 28.3808 62.3278C26.8379 59.5077 25.2592 56.7116 23.6805 53.9094C23.1503 52.9714 22.6081 52.0513 22.5069 50.946C22.4711 50.5337 22.3222 50.1633 21.929 49.9423C21.6073 49.763 21.2201 49.6196 20.9222 49.8108C20.5886 50.0259 20.8686 50.3784 20.9639 50.6473C21.7265 52.7922 22.5009 54.9311 23.2694 57.07C23.3826 57.3867 23.6388 57.6735 23.4958 58.1395C22.6796 57.8886 22.2805 57.2373 21.9231 56.5921C20.1537 53.4374 18.5691 50.1872 17.2525 46.8175C16.4959 44.8757 16.6746 42.8563 16.8176 40.8548C16.8712 40.1259 17.4133 39.5643 17.9852 39.1162C18.6167 38.6203 19.2839 38.1722 19.9333 37.7002C22.1911 36.0452 22.5784 33.6852 20.9639 31.3849C20.5409 30.7815 20.7673 29.485 21.369 29.1922C21.929 28.9234 21.9528 29.5627 22.2388 29.7658C22.6439 30.0645 22.7094 30.7755 23.3766 30.7217C23.4898 30.7158 23.6507 30.4648 23.6745 30.3095C23.7758 29.6224 23.3111 29.24 22.8226 28.9174C21.9409 28.3378 21.1903 27.7523 21.935 26.5514C22.1435 26.2168 22.0124 25.8225 21.7682 25.5477C20.5886 24.2392 19.9571 22.7097 19.7724 20.9651C19.7069 20.3079 19.1171 20.3019 18.6346 20.3198C15.6857 20.4513 12.7726 20.8516 9.91899 21.6163C9.54368 21.7179 9.26368 21.8016 9.21602 22.3751C9.1207 23.4924 8.30455 23.809 7.27393 23.6716C7.0535 23.6418 6.82712 23.588 6.63649 23.4804C4.52759 22.3273 2.794 22.877 1.32253 24.6455L1.32849 24.6694C1.00084 23.815 1.14381 22.7515 0 22.2258C0.762541 21.7239 1.40593 21.2399 2.10295 20.8635C2.81783 20.4752 3.02038 20.1227 2.3472 19.4953C1.48934 18.6947 1.62636 18.169 2.78208 17.7866C4.25951 17.2967 5.72501 16.7589 7.25605 16.4542C8.75135 16.1555 8.82879 15.9882 8.03051 14.6439C7.94115 14.4945 7.83392 14.3511 7.70286 14.16C8.84667 14.2257 9.92495 14.3033 11.0032 14.3452C11.2594 14.3511 11.7062 14.4826 11.6109 13.9269C11.2892 12.1047 12.5521 11.543 13.8806 10.9874C17.6635 9.41606 21.4941 9.42203 25.42 10.3959C28.4404 11.1427 31.4667 12.015 34.642 11.6625C35.3033 11.5908 36.0062 11.555 36.6079 11.3041C39.1934 10.2406 41.6657 10.6767 44.138 11.6924C45.7405 12.3556 47.355 13.0487 49.1481 12.9531C49.6545 12.9232 50.3932 13.0367 50.4766 12.4034C50.566 11.7044 49.8213 11.4773 49.2673 11.4056C48.0163 11.2443 47.0214 10.9993 47.5516 9.33839C47.7124 8.82457 47.2597 8.66923 46.8129 8.64533C46.2886 8.61545 45.7703 8.57961 45.2103 8.54376C46.2648 6.63784 48.8205 5.97465 51.0724 6.99632C52.6392 7.7073 54.0093 8.81262 55.8561 8.94406C56.7378 9.00978 56.4816 9.87014 56.1897 10.4437C55.6595 11.4893 54.6289 11.9911 53.4494 12.7619C55.2127 13.0845 56.7199 13.5505 58.2867 13.4191C59.1684 13.3474 59.8058 12.7858 59.6093 11.7701C59.4246 10.8082 59.8654 10.4557 60.7233 10.3899C60.8543 10.378 60.9854 10.3362 61.1165 10.3182C63.6781 9.92391 63.6781 9.92391 64.5241 12.4631C64.7683 13.1921 64.9053 13.2518 66.8415 13.4251C66.3411 12.1465 65.8943 10.8739 67.8066 10.4079C68.1581 10.3242 68.2355 9.9956 68.1342 9.6431C67.7827 8.46011 68.6525 8.40634 69.3436 8.52583C72.8584 9.1233 76.3613 9.79844 79.8643 10.4437C80.3349 10.5273 80.8115 10.6887 80.7579 11.2503C80.6566 12.3138 81.1272 13.1443 81.6455 13.9927C82.0029 14.5722 82.0804 15.2414 81.5681 15.7313C80.9723 16.2989 80.5434 15.6954 80.0966 15.3489C79.2447 14.6857 78.3511 15.0143 78.1247 16.0838C78.0353 16.508 78.0711 16.9561 78.0413 17.4699C76.3196 16.7589 74.7469 15.8329 72.918 15.4923C72.0363 15.325 72.4295 14.5184 72.7571 13.9688C73.0848 13.4131 73.9367 12.9172 73.5375 12.266C73.1146 11.5729 72.2329 12.0389 71.5597 12.1166C69.4448 12.3616 67.6636 13.3056 66.1206 14.7574C65.7036 15.1517 65.3462 15.5341 65.8943 16.0898C66.1445 16.3407 66.4304 16.6036 66.1206 17.0039C65.8168 17.4042 65.3879 17.3265 65.0185 17.219C64.1249 16.9441 63.2492 16.6215 62.3675 16.2989C61.6824 16.0479 61.0986 15.9942 60.6339 16.747C60.2169 17.4281 59.4603 17.4639 58.7395 17.5476C56.857 17.7746 55.5344 18.7604 54.7778 20.523C54.4144 21.3654 54.611 21.9927 55.32 22.5125C56.1182 23.0921 57.0238 23.4745 57.9114 23.8867C59.4961 24.6216 59.9846 25.4401 59.7224 27.1728C59.6033 27.9794 59.9667 28.0391 60.5267 27.9136C61.2416 27.7583 61.6824 27.2266 61.9326 26.5813C62.4271 25.3386 63.3207 24.532 64.5181 24.0122C66.0075 23.3669 66.6926 22.2437 66.5913 20.6186C66.5555 20.0868 66.5794 19.5431 66.6568 19.0114C66.7223 18.5872 66.9487 18.2287 67.4908 18.4737C68.2355 18.8082 68.861 18.4916 69.5104 18.157C71.0891 17.3385 71.6252 17.3922 72.7452 18.7843C73.9069 20.2242 75.2235 21.222 77.2371 21.0428C76.7783 22.7097 77.2192 24.0122 78.4881 25.0279C79.3043 25.6791 79.2745 26.414 78.8158 27.2863C77.7137 29.3834 77.7196 29.4133 79.5426 30.7516C80.4362 31.4088 80.7519 32.1497 80.1264 33.1534C78.5119 33.1714 76.9392 32.8547 75.3665 32.544C75.3367 31.6179 75.7596 30.9249 76.4745 30.3692C76.8737 30.0586 77.2549 29.6702 77.0405 29.1265C76.7962 28.5111 76.2064 28.762 75.7537 28.774C74.0499 28.8278 72.3937 29.1504 70.7495 29.5866C70.3504 29.6941 69.9691 29.8136 69.6831 30.1063C69.3436 30.4529 68.9861 30.8412 69.8738 30.9428C70.4814 31.0145 70.8329 31.373 70.8925 31.9943C70.1419 31.9286 69.3853 31.8928 68.6346 31.7852C63.6007 31.0683 58.5012 30.9249 53.503 29.9271C50.3039 29.2878 47.0631 28.9532 43.7984 28.9771C42.8334 28.9831 42.1959 28.8517 41.6895 27.8599C40.9091 26.3244 39.0028 25.8823 37.5134 26.6829C36.0062 27.4894 35.3867 29.2639 36.0718 30.8173C36.7747 32.4126 38.6513 33.3028 40.1823 32.4663C41.3559 31.8271 41.7074 32.4006 42.2078 33.1833C44.8708 37.3835 46.9022 41.9123 48.8622 46.465C49.3924 47.6898 50.0656 48.8608 50.28 50.2051C50.1549 51.3463 50.8996 52.35 50.8162 53.4912C50.7686 54.1126 50.6017 54.6324 50 54.9192C49.3805 55.2179 48.8741 54.949 48.3975 54.5846C47.635 54.011 47.3907 53.1268 47.069 52.3023C46.6163 51.1252 45.8359 50.3426 44.5908 50.0976C43.4767 49.8765 42.1661 50.5337 42.2078 51.4658C42.2674 52.7981 41.6359 52.7922 40.6708 52.6846C40.0155 52.6129 39.3304 52.6667 38.6692 52.7504C36.602 53.0192 35.0828 54.3994 34.7552 56.4188C34.4037 58.5816 34.7254 60.7086 35.5177 62.734C36.1135 64.2576 37.5313 64.4547 38.5322 63.1642C39.0445 62.507 39.3543 61.6885 39.7296 60.9357C40.1525 60.0813 40.647 59.2926 41.5406 58.8565C42.5474 58.3665 43.4887 58.5099 44.1857 59.3882C44.9184 60.3143 44.3406 61.0551 43.6674 61.7183C43.3516 62.035 43.0002 62.3158 42.7083 62.6504C42.3806 63.0208 42.0529 63.4629 42.2257 63.9768C42.4223 64.5742 42.9942 64.2396 43.3874 64.2874C46.0742 64.5922 47.1941 66.3547 46.2648 68.8939C45.6393 70.6027 46.3363 71.941 48.1056 72.3114C48.9933 72.4966 49.9286 72.6639 50.4826 73.4048C51.2451 74.4265 51.9958 74.056 52.7821 73.5781C53.4553 73.1658 53.8425 72.5325 54.0987 71.7797C54.611 70.28 55.1412 69.9813 56.6961 70.2322C57.1787 70.3099 57.6612 70.3936 58.1437 70.4772C58.2391 70.6803 58.3582 70.8715 58.4297 71.0806C61.0986 78.8477 63.7556 86.6267 66.4543 94.3819C66.7045 95.1048 66.4245 95.3916 65.936 95.8098C64.536 96.9988 64.3573 98.8509 65.4415 100.243C66.4662 101.557 68.3844 101.862 69.7665 100.93C71.1963 99.9622 71.6431 98.0682 70.6482 96.5626C70.2074 95.8934 70.2253 95.529 70.815 95.0271C75.4082 91.1914 80.7281 88.8732 86.3339 87.1107Z" fill="#1F396B"/>
<path d="M167.378 76.404C166.103 78.1845 164.834 79.959 163.559 81.7394C161.623 84.44 160.324 87.3616 160.277 90.7731C160.259 92.2847 160.026 93.8023 159.836 95.3079C159.526 97.8113 158.734 100.07 156.654 101.725C155.427 102.705 154.915 104.061 155.028 105.65C155.07 106.271 155.046 106.905 155.058 107.526C155.076 108.918 154.379 109.743 153.098 110.227C150.846 111.075 150.739 111.284 150.918 113.662C151.007 114.893 150.542 115.879 149.547 116.542C146.545 118.531 143.203 119.29 139.634 119.105C138.55 119.051 138.062 118.263 137.942 117.325C137.692 115.359 136.858 113.656 135.84 112.019C134.815 110.37 134.41 108.584 134.571 106.642C134.696 105.172 134.773 103.678 134.088 102.298C133.826 101.778 134.118 101.444 134.326 101.073C135.917 98.2355 135.959 95.3975 134.457 92.5058C133.254 90.1816 132.748 87.7679 133.403 85.133C133.784 83.5916 133.242 82.1278 132.271 80.8671C131.824 80.2876 131.229 79.726 130.478 79.8933C129.143 80.186 128.375 79.5587 127.696 78.5669C127.475 78.2442 127.136 77.9993 126.85 77.7185C130.77 76.8701 134.761 76.4817 138.729 75.9201C139.348 75.8305 139.456 76.2547 139.676 76.6311C140.462 77.9634 141.69 78.6027 142.988 78.3876C144.406 78.1486 145.365 77.2106 145.687 75.6333C145.8 75.0777 145.949 74.7789 146.575 74.7192C153.61 74.0022 160.521 74.8327 167.378 76.404Z" fill="#1F396B"/>
<path d="M234.446 102.866C237.686 104.258 240.701 106.074 243.81 107.723C244.305 107.986 244.15 108.339 244.085 108.745C243.846 110.298 244.573 111.661 245.907 112.27C247.188 112.856 248.594 112.569 249.571 111.517C250.56 110.454 250.721 108.942 249.97 107.681C249.214 106.403 247.844 105.871 246.265 106.277C245.83 106.391 245.455 106.612 245.067 106.152C242.97 103.667 240.85 101.193 238.741 98.7195C238.812 98.6657 238.872 98.5821 238.955 98.5582C242.125 97.6142 244.746 95.2004 248.243 95.1347C250.191 95.0988 250.649 95.7501 249.851 97.5544C249.255 98.9047 249.512 99.9981 250.53 100.44C251.621 100.912 252.55 100.309 253.062 98.7852C253.485 97.5186 253.718 96.1862 254.343 94.9913C254.575 94.5492 254.838 94.0473 255.409 94.125C256.041 94.2086 256.255 94.7882 256.243 95.3378C256.226 96.3475 256.714 97.0167 257.477 97.5783C258.34 98.2176 258.74 99.1556 258.62 100.159C258.329 102.663 259.311 104.652 260.777 106.564C262.636 108.99 262.648 111.589 261.117 114.2C260.414 115.395 259.359 116.177 258.114 116.763C256.398 117.564 256.267 117.862 256.708 119.661C256.94 120.617 256.643 121.208 255.672 121.232C254.182 121.268 253.211 121.985 252.395 123.18C251.269 124.829 250.554 124.948 248.791 124.01C247.951 123.562 247.129 123.162 246.134 123.347C245.3 123.502 244.924 123.042 244.746 122.278C244.341 120.545 243.763 118.962 241.517 119.051C241.177 119.063 241.136 118.747 241.028 118.502C240.456 117.199 239.36 116.697 238.032 116.638C235.744 116.536 233.57 117.098 231.652 118.281C229.882 119.368 228.131 119.894 226.081 119.374C225.229 119.159 224.33 119.129 223.359 119.003C224.753 115.287 225.611 111.505 226.349 107.687C226.683 105.967 227.904 105.172 229.525 104.867C231.306 104.533 232.938 103.858 234.446 102.866Z" fill="#1F396B"/>
<path d="M110.622 0.0837607C111.915 0.0837607 113.208 0.059862 114.5 0.09571C115.263 0.113634 116.055 0.227153 116.603 0.806696C117.247 1.48781 117.396 2.31231 116.448 2.82016C115.203 3.48932 115.06 4.48112 115.388 5.65215C115.567 6.29144 115.436 6.49458 114.768 6.59018C113.494 6.76942 112.231 7.06815 110.962 7.31311C109.824 7.53417 109.669 7.86278 110.283 8.78886C111.557 10.7127 111.218 11.3998 108.853 11.5014C107.477 11.5611 106.208 11.8778 105.028 12.5529C102.729 13.8673 100.286 14.7815 97.7304 15.4506C95.5023 16.0361 95.2223 16.4424 95.0019 18.7666C94.9006 19.8719 94.3585 20.5231 93.2326 20.547C91.642 20.5829 89.8309 20.9115 88.9969 19.0832C87.7756 16.4066 87.5135 14.2676 89.116 12.7082C89.9858 11.8598 90.665 10.9099 89.6641 9.67311C89.4675 9.42815 89.5509 9.08161 89.5867 8.76496C89.8011 6.90086 88.9075 5.8075 87.0131 5.70593C85.905 5.64618 84.7851 5.74775 83.671 5.7358C83.2957 5.72983 82.7715 5.86724 82.5868 5.41914C82.3842 4.91727 82.837 4.53489 83.0098 4.09276C83.7366 2.26452 85.3748 2.56922 86.8046 2.36608C87.0667 2.33024 87.3527 2.33024 87.591 2.22269C92.6666 -0.0417074 98.1355 1.03373 103.402 0.382494C105.785 0.0897353 108.209 0.113634 110.616 -0.00585938C110.616 0.0299886 110.616 0.0538873 110.622 0.0837607Z" fill="#1F396B"/>
<path d="M263.78 94.2623C262.415 94.5969 261.534 94.0293 260.831 93.2824C259.413 91.7768 257.763 91.251 255.755 91.6454C255.195 91.7529 254.599 91.7111 254.022 91.6872C252.937 91.6514 252.127 91.1614 251.776 90.1099C251.198 88.4131 250.042 87.3675 248.362 86.8178C247.564 86.555 246.759 86.2502 246.331 85.2943C250.435 84.9179 254.516 84.2607 257.947 87.3735C258.901 88.2398 260.003 88.3474 261.188 88.0665C261.575 87.9769 261.969 87.8813 262.356 87.7917C262.981 87.6543 263.708 87.499 263.946 88.2757C264.209 89.1241 263.482 89.4168 262.832 89.6439C262.624 89.7156 262.404 89.7514 262.183 89.7753C260.658 89.9545 260.533 90.1816 261.111 91.6155C261.587 92.8045 262.481 93.5692 263.78 94.2623Z" fill="#1F396B"/>
<path d="M233.063 77.9576C233.034 78.6686 232.938 79.3796 232.98 80.0905C233.034 81.0106 232.801 81.7515 232.027 82.3012C231.246 82.8568 231.115 83.5379 231.628 84.3803C231.997 84.9838 232.241 85.7067 231.336 86.0353C230.502 86.34 229.626 87.5409 228.721 86.107C228.274 85.402 227.553 85.0316 226.844 84.6492C225.766 84.0697 224.86 83.281 224.193 82.2593C223.639 81.4109 223.883 80.9569 224.908 80.9091C225.42 80.8852 225.927 80.9449 225.974 80.2399C226.004 79.8038 226.302 79.738 226.624 79.7619C228.208 79.8754 229.173 78.9315 230.031 77.7843C230.269 77.4617 230.532 77.157 230.812 76.8702C231.276 76.3922 231.836 76.1114 232.486 76.4579C233.069 76.7806 233.189 77.3422 233.063 77.9576Z" fill="#1F396B"/>
<path d="M169.362 97.9487C168.909 100.351 168.659 102.896 167.795 105.304C167.336 106.582 166.562 107.687 165.305 108.339C164.459 108.775 163.577 108.847 162.785 108.231C161.986 107.61 161.921 106.624 162.326 105.907C164.089 102.77 165.042 99.2094 167.342 96.3595C167.658 95.9651 167.997 95.5589 168.557 95.7262C169.105 95.8934 169.207 96.4132 169.26 96.9091C169.302 97.2258 169.326 97.5365 169.362 97.9487Z" fill="#1F396B"/>
<path d="M69.3196 2.50943C70.7017 1.75662 72.0302 1.42204 73.3825 1.18903C73.9842 1.08148 74.6097 1.195 74.8837 1.80442C75.4974 3.1547 76.4565 2.93363 77.4275 2.38994C79.5126 1.2189 81.699 0.406347 84.0998 0.197233C85.3985 0.0837147 86.6555 0.209183 87.9959 0.454144C87.6921 1.51764 86.8163 1.51764 86.0657 1.6431C84.7491 1.86417 83.4206 2.03743 82.0921 2.1868C80.9424 2.31227 79.9535 2.49748 79.5305 3.85971C79.2743 4.67226 78.3569 4.54679 77.648 4.46315C76.4922 4.31976 75.6522 4.48107 75.0506 5.72978C74.4191 7.03823 73.0668 6.62001 71.9289 6.46466C70.934 6.32725 70.8566 5.64016 70.8566 4.79773C70.8625 3.82386 70.243 3.14872 69.3196 2.50943Z" fill="#1F396B"/>
<path d="M244.168 38.5067C245.091 40.323 245.687 42.0856 246.027 43.9377C246.366 45.8197 245.997 46.3395 244.067 46.5725C243.715 46.6144 243.358 46.6442 243 46.6502C242.25 46.6681 241.934 46.9549 241.463 47.6779C240.802 48.6876 240.26 49.6435 240.034 50.8205C239.974 51.1252 239.76 51.424 239.378 51.3642C238.991 51.3045 238.931 50.9639 238.943 50.6473C238.973 49.6734 239.116 48.7055 238.395 47.8392C238.097 47.4867 238.491 47.0983 238.753 46.7936C239.664 45.7361 240.725 44.8698 241.916 44.1349C243.852 42.9459 244.257 40.7174 242.899 38.8473C242.559 38.3813 242.077 37.9272 242.196 37.3118C242.363 36.4574 242.994 36.0631 243.846 36.0332C244.817 36.0034 245.687 36.5231 246.718 36.4514C247.421 36.4037 247.224 37.2222 246.908 37.6942C246.283 38.6203 245.27 38.4231 244.168 38.5067Z" fill="#1F396B"/>
<path d="M138.324 1.40991C138.687 1.42784 139.003 1.40991 139.313 1.46368C140.016 1.58915 140.826 1.67877 140.999 2.53315C141.177 3.42338 140.451 3.81173 139.795 4.06864C139.14 4.33153 138.771 4.69001 138.687 5.40697C138.592 6.21355 137.913 6.19562 137.353 6.14783C136.864 6.106 136.185 6.15978 136.215 5.34722C136.251 4.30165 135.619 4.06267 134.755 4.05669C134.487 4.05669 134.219 4.05072 133.951 4.02682C133.475 3.985 132.879 4.08656 132.807 3.39948C132.748 2.80799 133.224 2.53912 133.683 2.34794C135.178 1.72657 136.763 1.52343 138.324 1.40991Z" fill="#1F396B"/>
<path d="M165.245 4.38525C166.025 4.40318 166.639 4.63619 166.788 5.43082C166.955 6.3091 166.305 6.60783 165.632 6.76915C164.989 6.92449 164.322 6.97229 163.666 7.09178C162.23 7.34869 161.945 7.95811 162.683 9.18889C162.927 9.60114 163.398 10.0672 163.011 10.4794C162.677 10.8319 162.225 10.2763 161.813 10.1867C161.688 10.1568 161.569 10.0791 161.45 10.0253C158.698 8.86626 158.608 8.1732 161.003 6.30312C162.266 5.31133 163.613 4.4689 165.245 4.38525Z" fill="#1F396B"/>
<path d="M234.219 63.5525C234.261 63.9468 234.315 64.1141 234.291 64.2694C234.064 65.799 234.773 66.6354 236.221 66.9401C236.471 66.9939 236.805 66.9461 236.781 67.3404C236.715 68.4159 237.162 69.097 238.187 69.4973C238.64 69.6765 238.383 70.2202 238.336 70.5966C238.175 71.8931 238.163 73.0821 239.551 73.8349C240.177 74.1755 240.224 74.8805 239.897 75.5018C239.646 75.9798 239.182 76.1829 238.646 76.0455C237.984 75.8723 237.633 75.3704 237.758 74.7371C238.074 73.106 237.585 71.8633 236.251 70.8954C235.887 70.6325 235.715 70.1903 235.631 69.7363C235.399 68.5593 234.821 67.6153 233.963 66.7549C232.944 65.7392 233.022 64.8669 234.219 63.5525Z" fill="#1F396B"/>
<path d="M124.008 27.1787C123.967 29.0308 123.347 29.7358 122.06 29.4311C121.351 29.2638 120.946 28.8576 121.369 28.2063C121.965 27.2922 121.274 26.6051 121.173 25.8105C121.065 24.9561 121.077 24.1794 120.053 23.797C119.564 23.6178 119.35 22.9964 119.534 22.4109C119.737 21.7716 120.303 21.8911 120.773 21.909C121.935 21.9568 122.739 22.4647 122.817 23.7373C122.864 24.4781 123.091 25.1294 123.621 25.6611C124.044 26.0973 123.996 26.6469 124.008 27.1787Z" fill="#1F396B"/>
<path d="M108.823 15.7852C108.811 15.2176 108.972 14.8232 109.651 14.871C110.759 14.9487 111.736 14.5305 112.707 14.0764C113.142 13.8733 113.613 13.6701 114.113 13.9091C114.631 14.1541 115.31 14.3154 115.352 14.9846C115.388 15.6358 114.721 15.7672 114.238 15.9584C113.207 16.3647 112.159 16.6933 111.194 17.2788C110.056 17.954 108.841 17.1414 108.823 15.7852Z" fill="#1F396B"/>
<path d="M117.11 29.0848C115.596 29.1147 115.203 28.6666 115.59 27.3223C115.954 26.0736 116.442 24.8368 117.932 24.55C118.468 24.4485 118.861 24.4126 118.998 25.3626C119.147 26.3604 118.76 27.2088 118.796 28.1468C118.855 29.3596 117.693 28.9175 117.11 29.0848Z" fill="#1F396B"/>
<path d="M153.622 2.7124C156.1 1.98349 158.275 1.83412 160.407 1.48759C160.848 1.4159 161.444 1.37407 161.599 1.82815C161.802 2.42562 161.206 2.61681 160.747 2.79007C160.366 2.93346 160.038 3.14258 159.782 3.46521C159.55 3.75797 159.222 4.03878 158.888 3.96111C157.232 3.6086 155.6 3.19037 153.622 2.7124Z" fill="#1F396B"/>
<path d="M246.187 129.674C245.991 128.623 246.199 127.804 246.384 126.98C246.736 125.402 246.747 125.384 248.106 126.299C248.684 126.687 249.059 126.173 249.53 126.113C249.929 126.06 250.423 125.612 250.721 126.173C250.971 126.645 250.614 127.063 250.238 127.296C248.922 128.103 247.581 128.862 246.187 129.674Z" fill="#1F396B"/>
<path d="M57.7327 5.29954C57.697 6.30329 57.2323 6.82308 56.3566 6.47655C55.2843 6.04638 54.2715 5.80739 53.1277 6.18379C52.5856 6.36303 52.1865 5.9926 52.4903 5.43696C52.9967 4.51089 53.8903 4.10461 54.9149 3.96122C55.9694 3.81782 56.7736 4.40334 57.6017 4.89924C57.7089 4.96496 57.7089 5.22187 57.7327 5.29954Z" fill="#1F396B"/>
<path d="M230.829 91.1375C230.389 90.8627 229.948 90.5879 229.507 90.319L229.519 90.331C229.519 90.2354 229.513 90.1398 229.513 90.0442C232.944 90.5401 236.34 91.2033 239.7 92.0756C239.658 92.201 239.646 92.2369 239.634 92.2727C239.599 92.2488 239.563 92.207 239.533 92.213C237.001 92.4998 234.6 91.6753 232.146 91.3108C231.711 91.2451 231.27 91.1973 230.829 91.1375Z" fill="#1F396B"/>
<path d="M61.5215 3.59074C61.1105 4.4511 60.4373 4.39135 59.776 4.3555C59.4365 4.33758 59.1267 4.20613 59.2041 3.80583C59.2875 3.39358 59.5556 2.99328 60.0203 3.16057C60.4969 3.33981 60.9794 3.50112 61.5215 3.59074Z" fill="#1F396B"/>
<path d="M1.29869 24.6395C1.2272 24.6216 1.15572 24.5977 1.08423 24.5798C1.22125 24.4065 1.25699 24.5499 1.30465 24.6575C1.31061 24.6575 1.29869 24.6395 1.29869 24.6395Z" fill="#1F396B"/>
<path d="M149.154 49.1774C150.703 49.4582 152.204 49.8764 153.604 50.6173C153.872 51.2207 154.152 51.8182 154.397 52.4336C154.504 52.7084 154.647 53.0848 154.117 53.0968C152.878 53.1147 153.652 53.7002 153.878 54.0348C154.736 55.3194 155.624 56.586 156.506 57.8526C155.594 59.2925 154.331 60.4456 153.253 61.7481C150.518 65.0521 147.766 68.3382 145.05 71.6541C144.603 72.1978 144.263 72.4428 143.495 72.162C142.5 71.7975 141.451 71.9349 140.593 72.6579C140.165 73.0223 139.837 72.9685 139.414 72.6758C132.676 67.9976 125.807 63.5166 118.551 59.0177C125.361 55.636 131.979 52.4515 138.765 49.6076C139.021 49.8466 139.301 50.0736 139.533 50.3365C139.879 50.7189 140.248 51.0415 140.796 50.8025C141.302 50.5815 141.576 50.0915 141.499 49.6195C141.326 48.5023 141.964 48.6158 142.661 48.7174C144.817 49.0221 146.968 49.3148 149.154 49.1774Z" fill="#1F396B"/>
<path d="M125.265 77.163C122.972 76.5595 120.601 76.6193 118.265 76.3743C116.675 76.207 115.078 76.1055 113.482 76.0039C112.528 75.9442 112.034 75.5678 112.082 74.5102C112.135 73.1839 111.843 71.8216 110.831 70.9613C108.805 69.2466 108.12 67.0897 108.197 64.5624C111.164 62.6445 114.399 61.2405 117.485 59.5377C117.968 59.2748 118.331 59.4839 118.718 59.7229C125.575 63.9948 132.36 68.3743 138.979 73.0106C139.289 73.2257 139.801 73.4348 139.521 73.9247C139.241 74.4146 139.509 75.281 138.64 75.3825C134.172 75.9023 129.757 76.8045 125.265 77.163Z" fill="#1F396B"/>
<path d="M70.2194 35.2685C65.8407 36.9773 61.891 39.4687 58.0008 42.0617C57.5481 42.3604 57.0477 42.6592 57.006 43.2447C56.8749 45.0192 55.6536 45.8496 54.2656 46.5666C52.9728 47.2358 51.5371 47.7078 50.6852 49.0282C49.5354 47.0565 48.8325 44.8758 47.8614 42.8205C46.1278 39.1401 44.4419 35.4298 42.0768 32.1019C41.5943 31.4268 41.9339 30.9548 42.1245 30.3872C42.339 29.7479 42.8334 29.9929 43.2445 30.0168C47.8733 30.3155 52.532 30.3752 57.1013 31.2236C61.3548 32.0123 65.4594 33.4403 69.5343 34.8981C69.7726 34.9877 69.993 35.143 70.2194 35.2685Z" fill="#1F396B"/>
<path d="M59.0254 70.7522C60.6637 71.1585 62.3079 71.5648 63.9462 71.977C65.2508 72.3056 66.3112 72.9987 66.9963 74.1936C67.604 75.2631 68.5393 75.7052 69.7307 75.8307C72.6856 76.1294 74.4192 77.7665 74.9494 80.6761C75.2592 82.361 75.5153 82.582 77.2489 82.5342C77.9757 82.5163 78.6787 82.5283 79.2625 83.0361C77.5885 84.7568 75.8906 86.4596 74.2405 88.2102C72.489 90.0683 70.9282 92.0818 69.6712 94.3103C69.272 95.0153 68.8312 95.1109 68.0686 95.093C67.2823 95.0691 67.1036 94.6808 66.901 94.1012C64.3453 86.6269 61.7777 79.1526 59.222 71.6723C59.1207 71.3736 59.085 71.0569 59.0254 70.7522Z" fill="#1F396B"/>
<path d="M111.045 54.3696C112.344 53.4375 113.243 52.1888 113.929 50.7549C114.369 49.8348 114.816 48.9087 115.334 48.0304C116.151 46.6443 117.354 45.8616 118.998 45.6824C122.233 45.3299 125.402 44.6548 128.435 43.4359C130.001 43.3762 131.413 43.9916 132.867 44.4337C132.927 44.8699 133.022 45.306 133.046 45.7481C133.147 47.6062 133.671 48.2515 135.482 48.6877C136.257 48.8729 137.031 49.0521 137.806 49.2314C135.536 50.6354 132.998 51.4778 130.615 52.6489C126.784 54.5309 122.906 56.3113 119.082 58.2053C118.295 58.5937 117.735 58.5877 117.02 58.1037C115.084 56.7774 112.934 55.7856 111.045 54.3696Z" fill="#1F396B"/>
<path d="M156.899 58.5278C158.716 61.2344 160.062 64.2097 161.677 67.0298C161.992 67.5795 162.088 68.1948 161.945 68.8461C161.653 70.1964 162.201 70.7819 163.672 70.6445C165.18 70.5011 166.681 70.292 168.182 70.0948C169.814 69.8797 170.237 70.3756 169.731 71.9589C169.29 73.3271 168.545 74.5459 167.86 75.7946C164.876 75.3286 161.897 74.8148 158.9 74.4145C154.915 73.8827 150.912 73.7095 146.908 74.2054C146.033 74.3129 145.556 74.0859 145.091 73.3211C144.621 72.5384 145.228 72.2516 145.538 71.8573C148.928 67.5974 152.437 63.439 156.029 59.3523C156.297 59.0476 156.607 58.7967 156.899 58.5278Z" fill="#1F396B"/>
<path d="M152.377 44.0571C152.55 43.5492 153.044 43.5014 153.438 43.3341C163.041 39.3789 172.751 35.7105 182.539 32.2332C182.891 32.1077 183.242 31.8269 183.719 32.1316C181.824 33.5835 179.924 34.9756 178.101 36.4573C172.447 41.0697 167.336 46.2558 162.386 51.6031C161.641 52.4037 161.063 52.5053 160.092 52.1587C158.418 51.5672 156.804 50.7726 155.01 50.5635L155.022 50.5754C155.058 50.4918 155.07 50.4081 155.058 50.3185C155.386 49.2013 155.249 48.0422 155.267 46.907C155.308 44.792 154.486 44.0272 152.377 44.0571Z" fill="#1F396B"/>
<path d="M175.831 58.8564C176.653 59.902 176.248 60.8101 175.283 61.312C172.978 62.5189 171.256 64.389 169.373 66.0977C167.985 67.3584 166.395 68.2247 164.417 68.0455C163.791 67.9917 163.327 67.8901 163.333 67.0537C163.339 65.8707 162.576 64.9804 161.933 64.0723C161.039 62.8176 160.336 61.5211 160.33 59.902C160.324 58.5457 159.389 57.6376 158.483 56.7593C158.495 56.7175 158.501 56.6637 158.525 56.6338C161.218 53.0251 161.23 52.9953 165.37 54.5965C168.873 55.9467 172.436 57.1955 175.831 58.8564Z" fill="#1F396B"/>
<path d="M79.9356 83.478C80.8113 84.2727 81.7883 84.7865 83.0275 84.7028C84.35 84.6132 84.9636 85.5512 85.5057 86.549C83.6947 87.5826 81.6811 88.1203 79.7926 88.9867C76.5995 90.4505 73.5553 92.1532 70.7613 94.3041C70.6779 94.1966 70.5885 94.0831 70.5051 93.9755C73.0191 89.9068 76.2182 86.4534 79.9356 83.478Z" fill="#1F396B"/>
<path d="M108.191 63.7259C108.156 62.3039 108.263 60.864 108.06 59.4719C107.751 57.327 108.602 55.8871 110.366 54.8416C112.802 55.923 114.941 57.5182 117.527 58.9581C114.232 60.643 111.212 62.1844 108.191 63.7259Z" fill="#1F396B"/>
<path d="M199.089 70.1007C198.868 71.212 198.463 72.2337 197.611 73.0163C195.812 74.6713 193.429 74.1874 192.577 71.8931C191.803 69.8199 191.225 67.681 190.564 65.5659C193.554 66.7967 196.461 68.1888 199.089 70.1007Z" fill="#1F396B"/>
<path d="M235.262 102.4C236.233 101.372 237.21 100.345 238.181 99.3169C240.373 101.103 242.053 103.368 243.858 105.513C244.263 105.997 245.3 106.504 244.752 107.186C244.18 107.897 243.495 106.947 242.959 106.642C240.409 105.202 237.686 104.073 235.262 102.4Z" fill="#1F396B"/>
<path d="M218.909 82.4983C218.575 83.1853 218.921 83.7051 219.356 84.1771C220.047 84.9359 220.767 85.6648 221.453 86.4296C221.816 86.8418 222.126 87.3258 221.679 87.8575C221.274 88.3415 220.708 88.3056 220.207 88.0666C219.82 87.8755 219.445 87.5887 219.165 87.2541C218.563 86.5431 217.938 85.8261 217.479 85.0196C216.133 82.6536 214.405 80.6581 212.189 79.0807C211.557 78.6326 210.98 78.1188 211.271 77.1987C212.534 77.8022 213.648 78.6386 214.703 79.5468C214.822 79.6483 214.935 79.7559 215.054 79.8575L215.031 79.8395C215.126 79.9351 215.221 80.0307 215.317 80.1323L215.299 80.1144C215.638 80.5744 216.019 80.9687 216.657 80.9389L216.633 80.9209C216.657 81.2316 216.889 81.1062 217.056 81.1241C217.747 81.4826 218.426 81.853 218.909 82.4983Z" fill="#1F396B"/>
<path d="M123.109 41.996C121.59 43.0953 119.868 43.5434 118.021 43.5792C116.526 43.6091 116.204 43.2447 116.347 41.7928C116.389 41.3507 116.431 40.9145 116.478 40.4724C118.73 40.795 120.94 41.3029 123.109 41.996Z" fill="#1F396B"/>
<path d="M157.971 56.2275C156.637 54.7697 155.773 53.0729 155.392 51.1311C157.244 51.5792 158.996 52.3021 161.009 53.0191C159.919 54.1483 159.109 55.3313 157.971 56.2275Z" fill="#1F396B"/>
<path d="M70.8031 32.6217C70.7257 33.1953 71.101 33.4642 71.5061 33.751C71.9648 34.0736 72.3341 34.4739 71.6371 34.9578C70.0048 34.677 68.5214 33.9421 66.9547 33.4582C65.0483 32.8727 63.1539 32.2633 61.2654 31.5762C64.4645 31.8152 67.6457 32.096 70.8031 32.6217Z" fill="#1F396B"/>
<path d="M229.453 90.8627C227.279 90.8567 225.105 90.8627 222.936 90.8328C222.537 90.8268 221.774 91.1674 221.876 90.325C221.959 89.6319 222.614 89.4347 223.228 89.62C224.89 90.1218 226.564 89.9964 228.244 89.8291C228.691 89.9545 228.947 90.5639 229.531 90.3309L229.519 90.319C229.269 90.4743 229.459 90.6775 229.453 90.8627Z" fill="#1F396B"/>
<path d="M171.006 56.144C171.232 56.0125 171.458 55.8811 171.691 55.7556C172.322 55.4151 173.001 55.0984 173.686 55.4748C174.443 55.893 174.032 56.6578 174.074 57.2792C172.936 57.2134 171.965 56.6936 171.006 56.144Z" fill="#1F396B"/>
<path d="M79.4056 33.7988C78.1724 34.3127 77.0525 33.9243 75.9563 33.3687C77.1299 33.297 78.2737 33.5061 79.4056 33.7988Z" fill="#1F396B"/>
<path d="M129.876 42.9279C130.8 42.6471 131.598 42.8503 132.271 43.5553C131.419 43.5433 130.639 43.2625 129.876 42.9279Z" fill="#1F396B"/>
<path d="M70.535 94.5132C70.4159 94.6148 70.3027 94.7164 70.1835 94.8179C69.9869 94.5849 70.1537 94.4535 70.3265 94.322C70.392 94.3877 70.4635 94.4535 70.535 94.5132Z" fill="#1F396B"/>
<path d="M215.049 79.8695C214.929 79.7679 214.816 79.6604 214.697 79.5588C214.816 79.6604 214.929 79.762 215.049 79.8695Z" fill="#F2F2F2"/>
<path d="M70.7673 94.3042C70.6898 94.3759 70.6124 94.4416 70.5349 94.5133C70.4634 94.4476 70.3979 94.3819 70.3264 94.3221C70.386 94.2086 70.4515 94.0891 70.5111 93.9756C70.5945 94.0831 70.6839 94.1966 70.7673 94.3042Z" fill="#1F396B"/>
<path d="M167.378 76.4041C160.521 74.8328 153.61 74.0023 146.569 74.7193C145.937 74.785 145.788 75.0777 145.681 75.6334C145.359 77.2107 144.4 78.1547 142.982 78.3877C141.684 78.6028 140.456 77.9635 139.67 76.6311C139.444 76.2488 139.342 75.8305 138.723 75.9202C134.755 76.4818 130.77 76.8761 126.844 77.7185C122.114 78.3041 117.443 79.2182 112.767 80.1383C104.855 81.6917 97.0154 83.5199 89.3364 85.9994C88.3237 86.328 87.3347 86.7343 86.3398 87.1107C80.734 88.8792 75.4141 91.1914 70.8567 95.0212C70.261 95.5171 70.2491 95.8815 70.6899 96.5567C71.6788 98.0683 71.238 99.9563 69.8082 100.924C68.4261 101.856 66.5078 101.557 65.4832 100.237C64.3989 98.845 64.5717 96.9928 65.9776 95.8039C66.4661 95.3916 66.7461 95.0989 66.4959 94.3759C63.7972 86.6148 61.1462 78.8418 58.4714 71.0747C58.3999 70.8656 58.2807 70.6744 58.1854 70.4713C56.6365 66.295 55.1353 62.1067 53.5327 57.9543C52.5259 55.3434 51.6859 52.6608 50.3158 50.2052C50.1013 48.8609 49.4281 47.6839 48.8979 46.465C46.932 41.9123 44.9065 37.3835 42.2435 33.1833C41.7431 32.4007 41.3916 31.8271 40.218 32.4664C38.687 33.3028 36.8104 32.4126 36.1075 30.8174C35.4224 29.264 36.0419 27.4955 37.5491 26.6829C39.0385 25.8823 40.9448 26.3244 41.7253 27.8599C42.2316 28.8517 42.8631 28.9831 43.8342 28.9772C47.0988 28.9473 50.3396 29.2879 53.5387 29.9271C58.5369 30.9249 63.6364 31.0683 68.6703 31.7853C69.415 31.8928 70.1716 31.9287 70.9282 31.9944C72.4175 32.1796 73.9128 32.3648 75.4022 32.55C76.9749 32.8547 78.5476 33.1774 80.1621 33.1594C83.2718 33.6733 86.3816 34.199 89.4972 34.689C98.4571 36.1109 107.363 37.8137 116.222 39.7734C116.353 39.8033 116.49 39.7913 116.621 39.8033C119.046 40.4366 121.47 41.0819 123.955 41.4523C125.897 42.0916 127.898 42.5218 129.894 42.946C130.663 43.2746 131.437 43.5613 132.289 43.5733C135.923 44.6009 139.563 45.6226 143.191 46.6682C143.566 46.7757 143.87 46.7518 144.216 46.6025C146.211 45.7302 148.213 44.8758 150.215 44.0154C154.82 42.1991 159.419 40.3649 164.036 38.5785C171.524 35.6808 179.054 32.8966 186.644 30.2677C187.347 30.0227 187.74 29.8077 187.734 28.9174C187.722 27.3341 188.908 26.1213 190.433 25.8942C191.856 25.6851 193.322 26.5455 193.864 27.9197C194.406 29.2879 193.936 30.8771 192.72 31.7315C191.463 32.6217 189.712 32.5978 188.693 31.3969C187.931 30.5007 187.394 30.7098 186.584 31.1639C181.36 34.1034 176.898 38.0228 172.537 42.0737C169.195 45.1745 166.043 48.4725 162.898 51.7825C162.04 52.6847 162.236 52.9834 163.303 53.306C164.834 53.7721 166.335 54.3456 167.848 54.8774C168.909 55.3075 169.969 55.7377 171.03 56.1679C171.989 56.7176 172.96 57.2374 174.098 57.3031C179.489 59.7228 184.874 62.1426 190.266 64.5623C193.209 66.2053 196.193 67.7647 199.238 69.2106C203.688 71.8932 208.215 74.4683 212.576 77.2943C218.527 81.148 224.145 85.4677 229.543 90.0742C229.543 90.1698 229.549 90.2654 229.549 90.3609C228.965 90.588 228.709 89.9786 228.262 89.8591C225.319 87.2003 222.239 84.7209 218.927 82.5341C218.444 81.8889 217.765 81.5125 217.068 81.1659C216.925 81.1002 216.788 81.0345 216.645 80.9628L216.669 80.9807C216.353 80.4848 215.96 80.1024 215.311 80.1562L215.328 80.1741C215.358 79.9531 215.227 79.8873 215.042 79.8814L215.066 79.8993C214.947 79.7977 214.834 79.6902 214.715 79.5886C213.66 78.6745 212.546 77.844 211.283 77.2406C208.299 75.1315 205.129 73.3152 201.954 71.5228C201.043 71.009 200.227 70.2442 199.107 70.1427C196.479 68.2248 193.572 66.8327 190.576 65.6079C189.611 64.7834 188.407 64.4129 187.287 63.8872C183.516 62.1187 179.787 60.2546 175.837 58.8924C172.447 57.2314 168.885 55.9887 165.37 54.6324C161.23 53.0312 161.218 53.0611 158.525 56.6698C158.501 56.7056 158.495 56.7534 158.483 56.7952C157.816 57.2613 157.351 57.9065 156.905 58.5637C156.613 58.8386 156.303 59.0835 156.041 59.3823C152.449 63.469 148.94 67.6273 145.55 71.8873C145.234 72.2816 144.627 72.5684 145.103 73.3511C145.568 74.1218 146.044 74.3428 146.92 74.2353C150.923 73.7394 154.927 73.9127 158.912 74.4444C161.909 74.8447 164.888 75.3585 167.872 75.8246C172.447 77.0016 177.041 78.1188 181.544 79.5468C196.968 84.446 211.754 90.9046 226.266 98.0205C229.269 99.4902 232.17 101.157 235.274 102.424C237.698 104.097 240.421 105.226 242.976 106.66C243.519 106.965 244.198 107.915 244.77 107.204C245.318 106.522 244.281 106.015 243.876 105.531C242.071 103.386 240.391 101.121 238.199 99.3349C235.577 96.2161 232.575 93.4977 229.471 90.8807C229.477 90.6955 229.286 90.4924 229.531 90.337C229.972 90.6119 230.412 90.8867 230.853 91.1556C233.492 93.6829 236.131 96.2102 238.771 98.7434C240.879 101.217 243 103.69 245.097 106.176C245.49 106.636 245.86 106.415 246.295 106.301C247.873 105.889 249.238 106.421 250 107.705C250.751 108.972 250.596 110.478 249.601 111.541C248.624 112.593 247.218 112.879 245.937 112.294C244.603 111.685 243.876 110.322 244.114 108.769C244.18 108.357 244.335 108.01 243.84 107.747C240.731 106.098 237.71 104.288 234.475 102.89C230.198 100.386 225.688 98.3431 221.226 96.2101C206.815 89.3154 192.125 83.1196 176.737 78.7103C173.627 77.8022 170.535 76.9657 167.378 76.4041ZM70.3265 94.3222C70.1597 94.4536 69.9929 94.585 70.1835 94.818C70.3027 94.7165 70.4159 94.6149 70.535 94.5133C70.6124 94.4416 70.6899 94.3759 70.7733 94.3042C73.5613 92.1593 76.6055 90.4506 79.8046 88.9868C81.6872 88.1264 83.7067 87.5827 85.5177 86.5491C85.7799 86.5073 86.0479 86.4953 86.2982 86.4117C96.3244 82.9344 106.654 80.6939 117.062 78.7283C119.802 78.2085 122.59 77.9516 125.277 77.1509C129.769 76.7925 134.189 75.8903 138.657 75.3645C139.527 75.263 139.253 74.3966 139.539 73.9067C139.819 73.4227 139.307 73.2136 138.997 72.9926C132.378 68.3562 125.593 63.9768 118.736 59.7049C118.349 59.4599 117.985 59.2508 117.503 59.5197C114.423 61.2165 111.182 62.6265 108.215 64.5444C107.929 64.6639 107.631 64.7535 107.363 64.9029C101.293 68.3084 95.2878 71.8215 89.5926 75.8425C86.2445 78.2085 82.8727 80.5505 79.9536 83.4722C76.2302 86.4475 73.0371 89.9009 70.5231 93.9637C70.4456 94.0891 70.3861 94.2086 70.3265 94.3222ZM155.392 51.1313C154.992 51.1253 154.939 50.8923 155.022 50.5696C156.815 50.7787 158.43 51.5734 160.104 52.1649C161.075 52.5054 161.653 52.4098 162.397 51.6092C167.348 46.2619 172.459 41.0759 178.113 36.4634C179.936 34.9757 181.836 33.5896 183.731 32.1378C183.254 31.8331 182.908 32.1139 182.551 32.2393C172.763 35.7166 163.053 39.3851 153.449 43.3403C153.056 43.5016 152.562 43.5554 152.389 44.0632C149.726 44.5711 147.421 45.9632 144.561 47.0745C147.015 47.8153 149.035 48.4964 151.09 49.0162C152.46 49.3628 153.58 50.4083 155.076 50.3366C155.088 50.4262 155.076 50.5099 155.04 50.5935C154.575 51.0894 154.087 50.5159 153.61 50.6294C152.21 49.8885 150.709 49.4643 149.16 49.1895C147.605 48.4367 145.907 48.126 144.275 47.5943C143.876 47.4628 143.489 47.5106 143.113 47.6779C141.666 48.3172 140.224 48.9684 138.776 49.6137C131.991 52.4576 125.372 55.6421 118.563 59.0238C125.813 63.5227 132.688 68.0037 139.426 72.6819C139.849 72.9747 140.176 73.0284 140.605 72.664C141.457 71.9351 142.512 71.8036 143.507 72.1681C144.269 72.4489 144.615 72.2039 145.061 71.6602C147.778 68.3443 150.53 65.0582 153.265 61.7542C154.343 60.4517 155.606 59.2986 156.517 57.8587C157.083 57.3867 157.614 56.8789 157.983 56.2336C159.121 55.3374 159.931 54.1604 161.015 53.0252C158.996 52.2963 157.244 51.5794 155.392 51.1313ZM132.867 44.4336C131.413 43.9915 130.001 43.3702 128.434 43.4359C126.755 42.5934 124.914 42.3784 123.109 42.002C120.94 41.3089 118.73 40.801 116.478 40.4784C111.819 39.2775 107.089 38.4052 102.359 37.515C94.7397 36.087 87.1083 34.7248 79.4055 33.7987C78.2736 33.506 77.1298 33.2969 75.9562 33.3686C74.2703 32.9264 72.5307 32.8249 70.809 32.6277C67.6516 32.096 64.4645 31.8211 61.2713 31.5821C63.1598 32.2692 65.0542 32.8786 66.9606 33.4642C68.5274 33.9481 70.0108 34.683 71.6431 34.9638C71.8694 35.0952 72.0839 35.2625 72.3282 35.3521C82.9323 39.385 93.0597 44.4277 102.985 49.9005C105.677 51.3822 108.358 52.8759 111.045 54.3695C112.933 55.7855 115.084 56.7773 117.026 58.1037C117.735 58.5876 118.295 58.5936 119.087 58.2053C122.912 56.3113 126.79 54.5249 130.621 52.6488C133.004 51.4778 135.542 50.6354 137.811 49.2313C139.491 48.7952 140.987 47.9288 142.857 47.182C139.348 46.1603 136.149 45.1387 132.867 44.4336ZM110.366 54.8475C110.151 54.6922 109.955 54.5129 109.728 54.3755C101.299 49.4524 92.7023 44.8399 83.8199 40.7951C79.3638 38.7697 74.9017 36.7442 70.2252 35.2685C69.9929 35.143 69.7784 34.9877 69.5342 34.8981C65.4593 33.4343 61.3607 32.0063 57.1012 31.2236C52.5319 30.3812 47.8732 30.3155 43.2444 30.0168C42.8333 29.9929 42.3389 29.7479 42.1244 30.3872C41.9338 30.9548 41.5942 31.4268 42.0767 32.1019C44.4418 35.4298 46.1218 39.1401 47.8613 42.8205C48.8324 44.8758 49.5353 47.0565 50.6851 49.0282C51.7872 51.8542 52.9012 54.6683 53.9855 57.5003C55.6774 61.9096 57.3454 66.3308 59.0254 70.7461C59.0909 71.0508 59.1207 71.3675 59.222 71.6602C61.7777 79.1345 64.3453 86.6088 66.901 94.0891C67.0976 94.6687 67.2823 95.057 68.0687 95.0809C68.8252 95.1048 69.272 95.0033 69.6712 94.2983C70.9282 92.0757 72.489 90.0562 74.2405 88.1981C75.8847 86.4475 77.5826 84.7507 79.2625 83.03C79.5187 82.8508 79.7868 82.6954 80.0251 82.4983C84.9458 78.2921 90.1883 74.534 95.6929 71.1464C99.8213 68.6072 104.027 66.1934 108.197 63.7259C111.218 62.1844 114.238 60.637 117.527 58.9581C114.935 57.5182 112.802 55.9289 110.366 54.8475Z" fill="#D93636" stroke="#D93636" stroke-width="2" stroke-miterlimit="10"/>
</g>
<defs>
<clipPath id="clip0">
<rect width="264" height="142" fill="white"/>
</clipPath>
</defs>
</svg>
