<svg width="64" height="70" viewBox="0 0 64 70" fill="none" xmlns="http://www.w3.org/2000/svg">
<g clip-path="url(#clip0)">
<path d="M64 18.0036V42.3089C64 51.9736 55.6 59.8201 45.1 59.8201H43.2L33.5 68.815C33.1 69.1978 32.6 69.3891 32 69.3891C31.5 69.3891 31 69.1978 30.6 68.9107L30.4 68.7193L20.8 59.8201H18.9C8.4 59.8201 0 51.9736 0 42.3089V18.0036C0 8.33889 8.4 0.49231 18.9 0.49231H45.2C55.6 0.49231 64 8.33889 64 18.0036Z" fill="#034074"/>
<path d="M19.5 54.7486C18.8 54.2701 18.7 53.8874 19.3 53.8874C19.9 53.8874 23 52.3563 24.7 51.208L26.3 50.1554L26.5 48.0503C27 41.9261 30.3 37.8114 38.8 32.3571C42.9 29.7735 49.2 26.2329 49.4 26.3286C49.5 26.4243 49.7 27.6683 49.8 29.1993C50.6 36.6631 48.1 43.6485 43 48.146C39.4 51.208 35.7 52.452 30 52.2606H28.8L30.8 50.2511C33 47.9546 36.4 43.9356 36.4 43.5528C36.4 43.4571 34.8 44.9882 32.8 46.902C28.9 50.8253 26.1 53.0261 23.4 54.3658C21.6 55.227 20.4 55.4184 19.5 54.7486Z" fill="#FFFCF9"/>
<path d="M20.2 42.883C19 42.2131 19.4 39.0554 21.5 33.0269C22.2 31.1131 22.7 29.3907 22.6 29.295C22.4 29.1036 20.6 33.0269 19.9 35.1321C19.6 36.1847 19.2 37.0459 19.1 37.0459C18.7 37.0459 17.5 35.3235 16.9 33.8881C16.1 31.9743 16 28.2424 16.8 26.2329C18.3 22.2139 21.9 18.8648 27 16.4725L29.3 15.4199L29.5 16.0898C29.6 16.4725 29.8 18.2906 30 20.1087C30.8 28.6251 28.8 33.6967 23.4 36.4717C21.5 37.4286 21.4 37.5243 21.2 41.3519C21.2 43.0743 21 43.2657 20.2 42.883Z" fill="#FFFCF9"/>
<path d="M36.7 21.4485C36.7 21.2571 36.8 20.5873 37 19.9174C37.3 18.7692 37.2 18.6735 36.1 17.5252C34.3 15.6114 33.9 13.6976 34.7 10.8269C35.2 8.91308 36.8 5.27686 37.1 5.27686C37.2 5.27686 37.9 5.851 38.6 6.42514C42.3 9.96567 43.1 15.1329 40.4 18.0036C39.5 18.8648 39.1 18.7692 39.1 17.6209C39.1 16.1855 38.8 13.7933 38.6 13.7933C38.5 13.7933 38.4 15.3243 38.4 17.2381C38.4 20.683 38.1 21.8312 37.3 21.8312C36.9 21.7355 36.7 21.6399 36.7 21.4485Z" fill="#FFFCF9"/>
</g>
<defs>
<clipPath id="clip0">
<rect width="64" height="68.8968" fill="white" transform="translate(0 0.49231)"/>
</clipPath>
</defs>
</svg>
