<svg width="229" height="151" viewBox="0 0 229 151" fill="none" xmlns="http://www.w3.org/2000/svg">
<g clip-path="url(#clip0)">
<path d="M189.302 44.6756C192.354 44.4856 195.235 43.4537 198.212 42.8836C200.021 42.5364 201.809 42.0581 203.615 41.6879C206.513 41.0949 208.522 42.33 209.192 45.2227C211.018 53.118 212.799 61.0264 214.582 68.9316C219.313 89.8885 224.047 110.845 228.758 131.809C229.568 135.406 228.372 137.313 224.798 138.132C211.201 141.234 197.597 144.307 183.994 147.387C179.018 148.514 174.042 149.631 169.06 150.741C165.254 151.59 163.402 150.423 162.549 146.643C161.004 139.799 159.472 132.952 157.926 126.109C157.832 125.686 157.685 125.273 157.56 124.857C156.691 120.955 155.799 117.06 154.963 113.152C154.712 111.972 154.463 111.265 152.915 111.707C150.105 112.51 147.22 113.053 144.362 113.679C143.806 113.8 143.101 114.361 142.813 113.263C142.526 112.162 143.411 112.28 143.963 112.149C146.812 111.471 149.667 110.816 152.526 110.193C153.352 110.013 154.221 109.994 153.95 108.752C153.676 107.501 152.866 107.697 151.951 107.91C149.151 108.565 146.345 109.181 143.535 109.777C142.999 109.892 142.238 110.574 142 109.411C141.804 108.444 142.578 108.379 143.195 108.234C146.1 107.566 149.001 106.862 151.925 106.292C152.951 106.092 153.166 105.614 153.019 104.726C152.849 103.7 152.176 103.782 151.422 103.956C148.514 104.618 145.603 105.263 142.692 105.922C142.072 106.062 141.366 106.459 141.085 105.496C140.771 104.428 141.745 104.51 142.271 104.385C145.116 103.704 147.988 103.12 150.834 102.436C151.467 102.282 152.562 102.586 152.199 101.066C151.886 99.7494 151.324 99.9132 150.373 100.146C147.475 100.85 144.558 101.469 141.65 102.131C140.948 102.292 140.334 102.308 140.154 101.41C139.964 100.454 140.788 100.693 141.216 100.591C144.221 99.8706 147.233 99.1827 150.252 98.5176C151.02 98.3473 151.631 98.1704 151.324 97.1613C151.082 96.3652 150.889 95.8804 149.775 96.1818C146.848 96.9713 143.872 97.5905 140.895 98.19C140.448 98.2785 139.611 99.0451 139.376 97.8231C139.187 96.8534 139.85 96.801 140.516 96.6568C143.378 96.0344 146.224 95.3464 149.092 94.76C150.226 94.5274 150.651 94.0392 150.383 92.873C148.037 82.6582 145.718 72.4402 143.388 62.2222C143.039 60.6857 142.578 59.1198 143.039 57.5702C143.391 56.3908 143.061 56.3941 142.091 56.6267C138.772 57.4162 135.426 58.1075 132.107 58.9068C131.15 59.1361 130.588 59.0673 130.346 57.9731C128.902 51.3948 127.445 44.823 125.923 38.2611C125.714 37.3569 125.988 37.0948 126.746 36.9245C136.527 34.7295 146.315 32.5608 156.077 30.2905C157.449 29.9727 157.698 30.4281 157.949 31.5878C159.276 37.6354 160.703 43.66 162.036 49.7076C162.242 50.6348 162.369 50.9493 163.474 50.6774C167.61 49.6585 171.791 48.8395 175.944 47.8829C180.406 46.8444 184.85 45.7436 189.302 44.6756ZM164.101 87.8541C164.454 89.4462 164.836 91.0286 165.146 92.6273C165.316 93.5151 165.64 93.7215 166.581 93.502C172.014 92.221 177.466 91.0318 182.912 89.8C189.838 88.2341 196.754 86.6321 203.687 85.1087C204.863 84.8499 205.219 84.3913 204.886 83.2381C204.523 81.9866 204.161 80.7188 204.01 79.4313C203.863 78.1897 203.344 78.1209 202.289 78.3699C197.49 79.5099 192.674 80.5714 187.865 81.6656C180.308 83.3855 172.752 85.1153 165.195 86.8319C164.617 86.9662 163.908 86.904 164.101 87.8541ZM148.713 70.5434C149.903 70.373 150.651 69.7014 150.608 68.5122C150.569 67.3361 149.818 66.5924 148.609 66.6285C147.4 66.6612 146.707 67.4246 146.737 68.6236C146.766 69.8325 147.527 70.4451 148.713 70.5434ZM150.755 77.7474C151.837 77.5443 152.614 76.9088 152.568 75.7097C152.523 74.5303 151.778 73.7899 150.569 73.826C149.36 73.8587 148.668 74.6221 148.697 75.8211C148.726 77.0267 149.488 77.6426 150.755 77.7474ZM163.376 130.407C164.571 130.246 165.323 129.581 165.293 128.392C165.267 127.213 164.519 126.466 163.314 126.489C162.105 126.512 161.406 127.265 161.422 128.467C161.442 129.676 162.196 130.295 163.376 130.407ZM165.368 133.65C164.183 133.739 163.418 134.351 163.379 135.557C163.343 136.756 164.029 137.522 165.238 137.565C166.447 137.608 167.201 136.867 167.25 135.694C167.299 134.505 166.561 133.827 165.368 133.65Z" fill="#D93636"/>
<path d="M75.0038 42.1726C79.4632 41.5273 83.8018 40.2987 88.1926 39.3323C96.1445 37.5763 104.08 35.7581 112.006 33.8908C113.182 33.6123 113.577 33.822 113.842 35.0046C117.86 53.0033 121.918 70.9921 125.972 88.9842C128.925 102.092 131.856 115.206 134.891 128.294C135.218 129.709 134.832 130.069 133.607 130.344C113.273 134.924 92.9461 139.537 72.6156 144.133C69.0317 144.943 69.0349 144.923 68.2117 141.247C65.3628 128.562 62.5108 115.877 59.6423 103.196C59.528 102.688 59.528 102.095 59.0412 101.722C59.0053 101.292 59.0216 100.847 58.9269 100.431C55.1306 83.5656 51.3409 66.6972 47.4957 49.8419C47.2441 48.7477 47.4499 48.4725 48.5248 48.2301C57.3587 46.2579 66.1796 44.2038 75.0038 42.1726ZM93.2532 132.939C93.4329 132.883 93.5341 132.844 93.6387 132.821C103.636 130.564 113.629 128.303 123.63 126.059C124.512 125.863 124.688 125.502 124.473 124.585C123.055 118.498 121.709 112.395 120.346 106.295C119.755 103.645 119.762 103.631 117.115 104.231C107.804 106.331 98.5 108.454 89.1858 110.531C88.124 110.767 87.5065 111.016 88.0129 112.313C88.4017 113.312 88.5095 114.426 88.7447 115.484C89.9568 120.893 91.159 126.305 92.4038 131.707C92.5148 132.186 92.3646 133.021 93.2532 132.939ZM102.46 52.8559C102.319 52.2596 102.081 51.2539 101.852 50.2481C101.195 47.375 101.189 47.3423 98.3693 47.9811C86.5264 50.6609 74.6967 53.3833 62.844 56.0205C61.6581 56.2859 61.4653 56.7445 61.743 57.7765C62.0828 59.0345 62.416 60.3023 62.6186 61.5866C62.7885 62.6611 63.1119 63.0051 64.2945 62.7201C69.6688 61.4326 75.0724 60.2696 80.4629 59.0443C87.3857 57.4751 94.3084 55.8993 101.225 54.2941C101.764 54.1696 102.685 54.3596 102.46 52.8559ZM113.476 70.7726C113.424 69.59 112.741 69.7079 111.908 69.8979C95.148 73.7178 78.3851 77.5213 61.6254 81.3281C60.9557 81.4788 60.1389 81.4427 60.3905 82.5632C60.642 83.6934 61.3444 83.1299 61.9096 83.0021C70.3744 81.102 78.8392 79.2019 87.2974 77.2854C95.6512 75.3919 104.002 73.4786 112.352 71.5589C112.813 71.4508 113.538 71.6178 113.476 70.7726ZM66.4508 106.449C66.6468 106.39 66.9049 106.301 67.1695 106.239C76.5817 104.116 85.9972 102.007 95.4094 99.8738C102.812 98.1965 110.209 96.4995 117.602 94.7927C118.024 94.6944 118.706 94.8582 118.71 94.1276C118.713 93.7738 118.599 93.266 118.353 93.0924C117.88 92.7582 117.315 93.1153 116.808 93.23C102.531 96.4569 88.2579 99.7002 73.9845 102.94C71.446 103.517 68.9075 104.09 66.3691 104.663C65.8431 104.781 65.4445 104.981 65.6046 105.646C65.7124 106.079 65.7582 106.541 66.4508 106.449ZM112.574 67.0183C112.489 65.4392 111.542 65.9306 110.8 66.0977C94.132 69.8684 77.4671 73.6457 60.8054 77.4492C60.2467 77.577 59.2209 77.3444 59.4855 78.5696C59.7306 79.7097 60.446 79.2707 61.1158 79.12C71.5375 76.7613 81.9625 74.409 92.3874 72.0536C98.5784 70.6547 104.769 69.2656 110.95 67.8176C111.525 67.6833 112.46 67.9061 112.574 67.0183ZM59.4921 75.4377C59.7567 75.3722 60.018 75.3034 60.2827 75.2444C73.0958 72.3451 85.909 69.4458 98.7189 66.5465C102.688 65.6489 106.654 64.725 110.634 63.8601C111.571 63.657 112.029 63.2836 111.529 62.3433C111.166 61.6586 110.568 62.0812 110.088 62.1894C98.121 64.8888 86.154 67.6014 74.1903 70.3107C69.3192 71.4147 64.4481 72.5155 59.5835 73.6523C59.1719 73.7473 58.3323 73.5868 58.6165 74.5466C58.7505 75.0118 58.7439 75.5884 59.4921 75.4377ZM63.5039 94.8385C64.1835 94.7108 64.4514 94.6715 64.716 94.6092C81.4332 90.8221 98.1504 87.035 114.861 83.2282C115.403 83.1037 116.292 83.2347 116.067 82.1405C115.835 81.0103 115.136 81.4067 114.453 81.564C102.656 84.2372 90.8519 86.8974 79.0516 89.5706C74.0237 90.7074 69.0023 91.8671 63.9776 93.017C63.4647 93.135 62.8342 93.0989 62.9714 93.9474C63.0662 94.5044 63.2491 94.8975 63.5039 94.8385ZM64.6408 98.6846C64.9871 98.6191 65.1505 98.5962 65.3073 98.5601C82.1389 94.7403 98.9737 90.9269 115.802 87.0841C116.305 86.9694 117.21 87.13 116.909 85.967C116.635 84.899 116.005 85.2725 115.413 85.4068C105.354 87.6804 95.2951 89.9638 85.236 92.2472C78.4602 93.7836 71.6812 95.3136 64.9087 96.8762C64.4448 96.9843 63.5725 96.8173 63.8698 97.8787C64.0234 98.4324 64.1704 98.8058 64.6408 98.6846ZM65.6209 102.57C65.8823 102.495 66.1371 102.406 66.4018 102.347C76.8757 99.9819 87.3497 97.6232 97.8204 95.2513C102.845 94.1145 107.857 92.9319 112.888 91.8278C113.796 91.628 114.136 91.2709 113.829 90.4028C113.482 89.4265 112.783 90.1014 112.329 90.1996C101.584 92.601 90.8519 95.0449 80.1133 97.479C75.301 98.57 70.4855 99.6478 65.6797 100.762C65.242 100.863 64.4416 100.781 64.7127 101.682C64.8499 102.124 64.8695 102.734 65.6209 102.57ZM90.6298 82.9071C90.5514 82.9202 90.4991 82.9268 90.4436 82.9399C81.1849 85.03 71.9295 87.1267 62.6708 89.2037C61.9782 89.361 62.0109 89.7312 62.1318 90.2848C62.3703 91.3888 63.1282 90.8811 63.6607 90.7631C69.1134 89.5575 74.5594 88.3159 80.0055 87.0743C83.5469 86.2684 87.0851 85.433 90.6298 84.6434C91.2505 84.5058 91.6556 84.3814 91.4106 83.6049C91.2701 83.1659 91.2538 82.7106 90.6298 82.9071ZM67.3002 110.305C67.4047 110.272 67.506 110.233 67.6105 110.21C76.1701 108.28 84.7296 106.357 93.2859 104.418C93.7596 104.31 94.4097 104.3 94.1745 103.415C93.9654 102.642 93.5995 102.547 92.8807 102.714C87.6045 103.939 82.3186 105.125 77.0358 106.324C73.8146 107.055 70.5933 107.789 67.3688 108.503C66.7709 108.634 66.3331 108.808 66.5226 109.564C66.6304 110 66.6468 110.465 67.3002 110.305ZM62.0501 87.0579C62.2069 87.0153 62.3638 86.9694 62.5238 86.9334C70.3058 85.1742 78.0845 83.4084 85.8698 81.6655C86.484 81.5279 86.8727 81.3838 86.7192 80.6172C86.546 79.7523 86.0658 79.8407 85.4059 79.9947C80.8582 81.0463 76.3007 82.0619 71.7498 83.0906C68.522 83.8212 65.2942 84.5583 62.0632 85.279C61.4784 85.41 60.9916 85.5411 61.2693 86.3306C61.4098 86.7303 61.3771 87.2512 62.0501 87.0579Z" fill="#D93636"/>
<path d="M75.0037 42.1731C66.1796 44.2043 57.3587 46.2551 48.5215 48.2338C47.4466 48.473 47.2408 48.7482 47.4924 49.8457C51.3376 66.701 55.1306 83.5661 58.9236 100.435C59.0183 100.854 59.002 101.296 59.0379 101.725C47.8289 104.284 36.6231 106.869 25.4042 109.388C22.3659 110.069 20.3861 108.562 19.6216 105.182C16.469 91.2354 13.3196 77.2859 10.1735 63.3365C6.84114 48.5352 3.51207 33.7373 0.183001 18.9361C-0.516136 15.8205 0.806997 13.6813 3.87144 12.9835C22.5456 8.74425 41.2165 4.50504 59.8906 0.269095C63.7653 -0.608888 65.6242 0.632738 66.5259 4.62625C69.3453 17.1441 72.1778 29.6586 75.0037 42.1731ZM21.1865 46.4255C21.5393 47.9685 21.9575 49.767 22.3561 51.5721C22.526 52.342 22.9964 52.0635 23.4734 51.9554C27.4951 51.0447 31.52 50.1602 35.5417 49.2461C44.0065 47.3231 52.4615 45.364 60.936 43.4967C62.0534 43.251 62.2232 42.8316 61.9651 41.8586C61.6025 40.4925 61.2431 39.1166 61.0308 37.7242C60.8707 36.6726 60.446 36.5809 59.5116 36.8037C55.6631 37.7308 51.7917 38.5727 47.9301 39.454C39.3608 41.4033 30.7915 43.3558 22.2221 45.305C21.7288 45.4164 21.046 45.2887 21.1865 46.4255ZM5.69115 25.0295C4.64898 25.1868 3.83877 25.7109 3.81263 26.9559C3.7865 28.1713 4.46603 28.9149 5.66175 28.9641C6.87381 29.0132 7.61215 28.2597 7.65789 27.0902C7.70362 25.9075 6.97835 25.2195 5.69115 25.0295ZM7.70036 36.2009C8.91241 36.0404 9.64749 35.3622 9.61808 34.1796C9.58868 33.01 8.86014 32.2467 7.64808 32.2794C6.45236 32.3122 5.75649 33.0428 5.77283 34.2582C5.78916 35.4867 6.55037 36.0731 7.70036 36.2009ZM20.5266 88.8733C21.6341 88.6735 22.3888 88.015 22.3463 86.8291C22.3006 85.6595 21.572 84.9027 20.3567 84.9453C19.161 84.9879 18.4716 85.7283 18.501 86.9437C18.5272 88.169 19.2949 88.7488 20.5266 88.8733ZM22.3822 96.0643C23.5943 95.907 24.3294 95.2289 24.3032 94.0462C24.2771 92.8767 23.5485 92.1101 22.3365 92.1428C21.1408 92.1723 20.4416 92.9029 20.458 94.1216C20.4743 95.3468 21.2323 95.9332 22.3822 96.0643Z" fill="#1F396B"/>
<path d="M189.303 44.6754C184.85 45.7434 180.407 46.8442 175.944 47.8728C171.792 48.8294 167.61 49.6485 163.474 50.6673C162.373 50.9392 162.242 50.6247 162.036 49.6976C160.703 43.65 159.276 37.6253 157.949 31.5777C157.695 30.418 157.45 29.9626 156.077 30.2804C146.312 32.5507 136.528 34.7195 126.746 36.9144C125.992 37.0848 125.714 37.3469 125.923 38.2511C127.445 44.8097 128.903 51.3848 130.347 57.9631C130.588 59.0573 131.147 59.1294 132.107 58.8968C135.427 58.0974 138.769 57.4062 142.091 56.6166C143.062 56.384 143.392 56.3808 143.039 57.5601C142.575 59.1097 143.039 60.6757 143.388 62.2121C145.718 72.4302 148.041 82.6482 150.383 92.8629C150.651 94.0292 150.226 94.5173 149.093 94.7499C146.224 95.3363 143.379 96.0243 140.517 96.6468C139.85 96.7909 139.19 96.8433 139.376 97.813C139.615 99.0383 140.448 98.2717 140.896 98.18C143.872 97.5837 146.848 96.9645 149.775 96.1717C150.886 95.8703 151.082 96.3552 151.324 97.1513C151.631 98.1603 151.02 98.3372 150.252 98.5076C147.234 99.1726 144.221 99.8606 141.216 100.581C140.788 100.683 139.965 100.44 140.154 101.4C140.33 102.298 140.948 102.278 141.65 102.121C144.558 101.459 147.475 100.84 150.373 100.136C151.324 99.9032 151.883 99.7394 152.199 101.056C152.562 102.576 151.468 102.272 150.834 102.426C147.988 103.11 145.117 103.694 142.271 104.375C141.745 104.503 140.772 104.421 141.085 105.486C141.369 106.449 142.072 106.052 142.692 105.911C145.6 105.253 148.514 104.608 151.422 103.946C152.177 103.772 152.85 103.69 153.019 104.716C153.166 105.604 152.948 106.082 151.925 106.282C149.001 106.852 146.1 107.556 143.196 108.224C142.581 108.365 141.804 108.431 142 109.4C142.238 110.563 143 109.882 143.535 109.767C146.345 109.171 149.155 108.555 151.951 107.9C152.866 107.687 153.676 107.491 153.951 108.742C154.222 109.98 153.349 110.003 152.526 110.183C149.664 110.806 146.809 111.461 143.963 112.139C143.411 112.27 142.526 112.152 142.813 113.253C143.098 114.347 143.807 113.79 144.362 113.669C147.221 113.043 150.105 112.503 152.915 111.697C154.463 111.255 154.709 111.962 154.963 113.142C155.8 117.05 156.692 120.945 157.561 124.847C151.687 126.18 145.806 127.481 139.948 128.877C138.942 129.116 138.795 128.808 138.602 127.946C135.606 114.577 132.568 101.214 129.546 87.8506C125.554 70.1893 121.571 52.5281 117.553 34.8734C117.233 33.4746 117.073 32.685 118.977 32.2657C140.004 27.6039 161.001 22.8208 182.004 18.0574C182.713 17.8969 183.269 17.5824 183.52 18.7225C185.412 27.3844 187.365 36.0266 189.303 44.6754Z" fill="#1F396B"/>
<path d="M164.101 87.8541C163.908 86.9074 164.62 86.9663 165.192 86.8353C172.749 85.1186 180.305 83.3889 187.862 81.6689C192.671 80.5747 197.49 79.51 202.286 78.3732C203.338 78.1242 203.86 78.193 204.007 79.4347C204.161 80.7222 204.524 81.99 204.883 83.2414C205.216 84.3913 204.86 84.8533 203.684 85.1121C196.748 86.6322 189.832 88.2374 182.909 89.8034C177.466 91.0352 172.01 92.2244 166.577 93.5054C165.64 93.7281 165.316 93.5184 165.143 92.6306C164.836 91.0286 164.454 89.443 164.101 87.8541Z" fill="#F8F8F9"/>
<path d="M148.714 70.5432C147.531 70.445 146.766 69.8291 146.737 68.6202C146.708 67.4212 147.4 66.6578 148.609 66.6251C149.818 66.5923 150.569 67.3327 150.608 68.5088C150.648 69.7013 149.903 70.3729 148.714 70.5432Z" fill="#F8F8F9"/>
<path d="M150.755 77.7473C149.488 77.6425 148.727 77.0266 148.697 75.8177C148.668 74.6187 149.36 73.8553 150.569 73.8226C151.778 73.7898 152.523 74.5302 152.569 75.7063C152.614 76.9086 151.837 77.5442 150.755 77.7473Z" fill="#F8F8F9"/>
<path d="M163.376 130.407C162.196 130.295 161.438 129.676 161.422 128.464C161.406 127.262 162.105 126.508 163.314 126.485C164.523 126.462 165.267 127.209 165.294 128.389C165.323 129.581 164.572 130.249 163.376 130.407Z" fill="#F8F8F9"/>
<path d="M165.369 133.65C166.558 133.827 167.3 134.505 167.251 135.694C167.202 136.87 166.45 137.607 165.238 137.565C164.029 137.522 163.34 136.756 163.379 135.557C163.418 134.348 164.183 133.738 165.369 133.65Z" fill="#F8F8F9"/>
<path d="M93.2531 132.939C92.3677 133.024 92.5147 132.189 92.4037 131.71C91.1589 126.308 89.9567 120.896 88.7446 115.487C88.5061 114.426 88.4016 113.315 88.0128 112.316C87.5064 111.016 88.1239 110.77 89.1857 110.534C98.4999 108.454 107.808 106.334 117.115 104.234C119.761 103.638 119.755 103.648 120.346 106.298C121.709 112.398 123.051 118.501 124.472 124.588C124.685 125.506 124.512 125.863 123.63 126.062C113.629 128.307 103.636 130.567 93.6386 132.824C93.5308 132.844 93.4295 132.883 93.2531 132.939Z" fill="#F8F8F9"/>
<path d="M102.46 52.8559C102.685 54.3596 101.764 54.1728 101.228 54.294C94.3117 55.896 87.3889 57.4718 80.4662 59.0443C75.0756 60.2663 69.672 61.4326 64.2978 62.7201C63.1119 63.0051 62.7917 62.6578 62.6218 61.5866C62.416 60.3023 62.0828 59.0345 61.7463 57.7765C61.4686 56.7445 61.6613 56.2859 62.8473 56.0205C74.6967 53.3833 86.5297 50.6609 98.3726 47.9811C101.195 47.3422 101.199 47.3783 101.855 50.2481C102.084 51.2539 102.322 52.2596 102.46 52.8559Z" fill="#F8F8F9"/>
<path d="M113.476 70.7726C113.538 71.6211 112.813 71.4507 112.349 71.5588C103.998 73.4786 95.6479 75.3918 87.2942 77.2854C78.8327 79.2052 70.3712 81.102 61.9064 83.0021C61.3412 83.1299 60.6388 83.6934 60.3872 82.5631C60.139 81.4427 60.9524 81.482 61.6222 81.328C78.3851 77.5213 95.1481 73.7178 111.904 69.8979C112.741 69.7046 113.424 69.5899 113.476 70.7726Z" fill="#F8F8F9"/>
<path d="M66.4506 106.449C65.758 106.54 65.7123 106.079 65.6078 105.646C65.4477 104.981 65.843 104.781 66.3722 104.663C68.9107 104.09 71.4491 103.517 73.9876 102.94C88.2611 99.7 102.535 96.4567 116.811 93.2298C117.318 93.1151 117.883 92.7581 118.357 93.0922C118.602 93.2658 118.716 93.7736 118.713 94.1275C118.706 94.858 118.027 94.6942 117.605 94.7925C110.209 96.496 102.812 98.1963 95.4125 99.8737C86.0003 102.006 76.5849 104.116 67.1726 106.239C66.9048 106.301 66.6467 106.39 66.4506 106.449Z" fill="#F8F8F9"/>
<path d="M112.574 67.0182C112.46 67.9092 111.525 67.6865 110.95 67.8208C104.773 69.2688 98.5783 70.6579 92.3874 72.0567C81.9624 74.4122 71.5374 76.7644 61.1157 79.1232C60.446 79.2739 59.7305 79.7096 59.4855 78.5728C59.2208 77.3476 60.2467 77.5802 60.8053 77.4524C77.467 73.6489 94.1319 69.8716 110.8 66.1009C111.542 65.9305 112.486 65.4358 112.574 67.0182Z" fill="#F8F8F9"/>
<path d="M59.492 75.4376C58.7406 75.585 58.7472 75.0117 58.6132 74.5498C58.329 73.5899 59.1686 73.7537 59.5802 73.6554C64.4448 72.5186 69.3159 71.4179 74.187 70.3138C86.154 67.6013 98.1177 64.892 110.085 62.1925C110.568 62.0844 111.163 61.6618 111.525 62.3465C112.025 63.2834 111.565 63.6569 110.63 63.8633C106.654 64.7282 102.688 65.652 98.7156 66.5496C85.9024 69.449 73.0893 72.3483 60.2794 75.2476C60.018 75.3065 59.7567 75.3753 59.492 75.4376Z" fill="#F8F8F9"/>
<path d="M63.5038 94.8385C63.249 94.8975 63.0661 94.5011 62.9779 93.9441C62.8374 93.0956 63.4712 93.1317 63.9841 93.0137C69.0087 91.8638 74.0301 90.7074 79.058 89.5673C90.8584 86.8941 102.659 84.2372 114.459 81.5606C115.142 81.4067 115.841 81.007 116.073 82.1372C116.298 83.2314 115.41 83.1004 114.868 83.2249C98.1568 87.0317 81.4396 90.8188 64.7224 94.6059C64.4513 94.6714 64.1834 94.714 63.5038 94.8385Z" fill="#F8F8F9"/>
<path d="M64.6408 98.6846C64.1703 98.8058 64.0233 98.4323 63.8697 97.8787C63.5725 96.8172 64.4447 96.981 64.9087 96.8762C71.6779 95.3135 78.4569 93.7836 85.2359 92.2471C95.295 89.9637 105.354 87.6803 115.413 85.4067C116.004 85.2724 116.635 84.899 116.909 85.9669C117.21 87.1299 116.305 86.9694 115.802 87.0841C98.9736 90.9269 82.142 94.7435 65.3072 98.5601C65.1471 98.5961 64.9871 98.6191 64.6408 98.6846Z" fill="#F8F8F9"/>
<path d="M65.6209 102.57C64.8662 102.734 64.8466 102.125 64.7159 101.686C64.4415 100.785 65.2419 100.867 65.6829 100.765C70.4887 99.6512 75.3042 98.5733 80.1165 97.4824C90.8519 95.0483 101.587 92.6044 112.332 90.203C112.786 90.1015 113.482 89.4266 113.832 90.4061C114.139 91.2743 113.799 91.6314 112.891 91.8312C107.86 92.932 102.848 94.1179 97.8236 95.2547C87.3529 97.6266 76.8789 99.9853 66.4049 102.351C66.1403 102.406 65.8822 102.495 65.6209 102.57Z" fill="#F8F8F9"/>
<path d="M90.6297 82.9071C91.2504 82.7106 91.2667 83.166 91.4072 83.6082C91.6522 84.3847 91.2504 84.5091 90.6264 84.6467C87.0784 85.4363 83.5435 86.2684 80.0021 87.0776C74.556 88.3159 69.11 89.5576 63.6573 90.7664C63.1248 90.8844 62.3669 91.3922 62.1284 90.2881C62.0108 89.7378 61.9748 89.3643 62.6674 89.207C71.9261 87.13 81.1848 85.0333 90.4402 82.9432C90.499 82.9268 90.5512 82.9203 90.6297 82.9071Z" fill="#F8F8F9"/>
<path d="M67.3 110.301C66.6466 110.465 66.6303 110 66.5225 109.561C66.333 108.804 66.7708 108.631 67.3686 108.5C70.5932 107.785 73.8144 107.052 77.0357 106.321C82.3184 105.122 87.6044 103.936 92.8806 102.711C93.5993 102.544 93.9652 102.639 94.1743 103.412C94.4128 104.296 93.7594 104.306 93.2857 104.414C84.7294 106.357 76.1699 108.28 67.6104 110.206C67.5058 110.229 67.4013 110.272 67.3 110.301Z" fill="#F8F8F9"/>
<path d="M62.05 87.0579C61.377 87.2512 61.4096 86.7303 61.2691 86.3241C60.9947 85.5346 61.4782 85.4035 62.063 85.2725C65.2941 84.5517 68.5219 83.8146 71.7497 83.0841C76.3039 82.0554 80.8581 81.0398 85.4057 79.9882C86.0657 79.8342 86.5459 79.7458 86.7191 80.6107C86.8726 81.3772 86.4838 81.5214 85.8696 81.659C78.0844 83.4018 70.3057 85.1676 62.5237 86.9269C62.3636 86.9662 62.2068 87.0153 62.05 87.0579Z" fill="#F8F8F9"/>
<path d="M21.1865 46.4249C21.046 45.2881 21.7255 45.4159 22.2221 45.3045C30.7914 43.3552 39.3608 41.4027 47.9301 39.4535C51.7917 38.5755 55.6631 37.7303 59.5116 36.8031C60.4459 36.5771 60.8706 36.6688 61.0307 37.7237C61.2431 39.116 61.6025 40.492 61.9651 41.8581C62.2232 42.8311 62.0533 43.2504 60.936 43.4961C52.4614 45.3635 44.0032 47.3258 35.5416 49.2456C31.52 50.1596 27.495 51.0442 23.4734 51.9549C22.9964 52.063 22.5259 52.3447 22.356 51.5716C21.9575 49.7665 21.5393 47.9679 21.1865 46.4249Z" fill="#F8F8F9"/>
<path d="M5.69102 25.0291C6.98148 25.2158 7.70349 25.907 7.65775 27.0864C7.61201 28.256 6.87367 29.0095 5.66161 28.9603C4.46589 28.9112 3.78636 28.1675 3.81249 26.9521C3.83863 25.7105 4.64885 25.1863 5.69102 25.0291Z" fill="#F8F8F9"/>
<path d="M7.70015 36.2003C6.55016 36.0725 5.78895 35.4861 5.77262 34.2576C5.75302 33.0422 6.45215 32.3083 7.64787 32.2788C8.85993 32.2461 9.58847 33.0094 9.61787 34.179C9.64727 35.3616 8.90893 36.0398 7.70015 36.2003Z" fill="#F8F8F9"/>
<path d="M20.5265 88.8728C19.2949 88.7483 18.5304 88.1685 18.4977 86.9432C18.4683 85.7278 19.1577 84.9907 20.3534 84.9448C21.5687 84.899 22.2972 85.659 22.343 86.8286C22.3887 88.0178 21.634 88.673 20.5265 88.8728Z" fill="#F8F8F9"/>
<path d="M22.3821 96.0637C21.2321 95.9327 20.4741 95.3495 20.4578 94.1177C20.4415 92.9023 21.1406 92.1718 22.3363 92.139C23.5484 92.1095 24.2769 92.8728 24.3031 94.0424C24.3292 95.2283 23.5941 95.9032 22.3821 96.0637Z" fill="#F8F8F9"/>
</g>
<defs>
<clipPath id="clip0">
<rect width="229" height="151" fill="white"/>
</clipPath>
</defs>
</svg>
